%TF.GenerationSoftware,KiCad,Pcbnew,10.0.5*%
%TF.CreationDate,2026-08-03T15:41:09-04:00*%
%TF.ProjectId,wazza,77617a7a-612e-46b6-9963-61645f706362,rev?*%
%TF.SameCoordinates,Original*%
%TF.FileFunction,Copper,L1,Top*%
%TF.FilePolarity,Positive*%
%FSLAX46Y46*%
G04 Gerber Fmt 4.6, Leading zero omitted, Abs format (unit mm)*
G04 Created by KiCad (PCBNEW 10.0.5) date 2026-08-03 15:41:09*
%MOMM*%
%LPD*%
G01*
G04 APERTURE LIST*
G04 Aperture macros list*
%AMRoundRect*
0 Rectangle with rounded corners*
0 $1 Rounding radius*
0 $2 $3 $4 $5 $6 $7 $8 $9 X,Y pos of 4 corners*
0 Add a 4 corners polygon primitive as box body*
4,1,4,$2,$3,$4,$5,$6,$7,$8,$9,$2,$3,0*
0 Add four circle primitives for the rounded corners*
1,1,$1+$1,$2,$3*
1,1,$1+$1,$4,$5*
1,1,$1+$1,$6,$7*
1,1,$1+$1,$8,$9*
0 Add four rect primitives between the rounded corners*
20,1,$1+$1,$2,$3,$4,$5,0*
20,1,$1+$1,$4,$5,$6,$7,0*
20,1,$1+$1,$6,$7,$8,$9,0*
20,1,$1+$1,$8,$9,$2,$3,0*%
G04 Aperture macros list end*
%TA.AperFunction,SMDPad,CuDef*%
%ADD10RoundRect,0.250000X-0.250000X-0.475000X0.250000X-0.475000X0.250000X0.475000X-0.250000X0.475000X0*%
%TD*%
%TA.AperFunction,SMDPad,CuDef*%
%ADD11RoundRect,0.250000X-0.262500X-0.450000X0.262500X-0.450000X0.262500X0.450000X-0.262500X0.450000X0*%
%TD*%
%TA.AperFunction,SMDPad,CuDef*%
%ADD12RoundRect,0.250000X0.450000X-0.262500X0.450000X0.262500X-0.450000X0.262500X-0.450000X-0.262500X0*%
%TD*%
%TA.AperFunction,SMDPad,CuDef*%
%ADD13R,1.550000X1.300000*%
%TD*%
%TA.AperFunction,ComponentPad*%
%ADD14R,1.700000X1.700000*%
%TD*%
%TA.AperFunction,ComponentPad*%
%ADD15C,1.700000*%
%TD*%
%TA.AperFunction,ComponentPad*%
%ADD16R,1.000000X1.000000*%
%TD*%
%TA.AperFunction,ComponentPad*%
%ADD17C,1.000000*%
%TD*%
%TA.AperFunction,SMDPad,CuDef*%
%ADD18RoundRect,0.150000X-0.150000X-0.425000X0.150000X-0.425000X0.150000X0.425000X-0.150000X0.425000X0*%
%TD*%
%TA.AperFunction,SMDPad,CuDef*%
%ADD19RoundRect,0.075000X-0.075000X-0.500000X0.075000X-0.500000X0.075000X0.500000X-0.075000X0.500000X0*%
%TD*%
%TA.AperFunction,ComponentPad*%
%ADD20O,1.000000X2.100000*%
%TD*%
%TA.AperFunction,ComponentPad*%
%ADD21O,1.000000X1.800000*%
%TD*%
%TA.AperFunction,SMDPad,CuDef*%
%ADD22RoundRect,0.062500X-0.350000X-0.062500X0.350000X-0.062500X0.350000X0.062500X-0.350000X0.062500X0*%
%TD*%
%TA.AperFunction,SMDPad,CuDef*%
%ADD23RoundRect,0.062500X-0.062500X-0.350000X0.062500X-0.350000X0.062500X0.350000X-0.062500X0.350000X0*%
%TD*%
%TA.AperFunction,HeatsinkPad*%
%ADD24R,1.700000X1.700000*%
%TD*%
%TA.AperFunction,SMDPad,CuDef*%
%ADD25RoundRect,0.150000X-0.512500X-0.150000X0.512500X-0.150000X0.512500X0.150000X-0.512500X0.150000X0*%
%TD*%
%TA.AperFunction,SMDPad,CuDef*%
%ADD26R,1.500000X0.900000*%
%TD*%
%TA.AperFunction,SMDPad,CuDef*%
%ADD27R,0.900000X1.500000*%
%TD*%
%TA.AperFunction,HeatsinkPad*%
%ADD28C,0.600000*%
%TD*%
%TA.AperFunction,HeatsinkPad*%
%ADD29R,3.900000X3.900000*%
%TD*%
%TA.AperFunction,SMDPad,CuDef*%
%ADD30RoundRect,0.090000X-0.660000X-0.360000X0.660000X-0.360000X0.660000X0.360000X-0.660000X0.360000X0*%
%TD*%
%TA.AperFunction,SMDPad,CuDef*%
%ADD31R,0.230000X0.350000*%
%TD*%
%TA.AperFunction,SMDPad,CuDef*%
%ADD32R,0.350000X0.230000*%
%TD*%
G04 APERTURE END LIST*
D10*
%TO.P,C1,1*%
%TO.N,N/C*%
X34050000Y-13000000D03*
%TO.P,C1,2*%
X35950000Y-13000000D03*
%TD*%
D11*
%TO.P,R10,1*%
%TO.N,N/C*%
X129087500Y-7000000D03*
%TO.P,R10,2*%
X130912500Y-7000000D03*
%TD*%
D12*
%TO.P,R3,1*%
%TO.N,N/C*%
X30000000Y-20912500D03*
%TO.P,R3,2*%
X30000000Y-19087500D03*
%TD*%
D11*
%TO.P,R14,1*%
%TO.N,N/C*%
X87087500Y-9000000D03*
%TO.P,R14,2*%
X88912500Y-9000000D03*
%TD*%
D13*
%TO.P,SW2,1*%
%TO.N,N/C*%
X108025000Y-4750000D03*
X115975000Y-4750000D03*
%TO.P,SW2,2*%
X108025000Y-9250000D03*
X115975000Y-9250000D03*
%TD*%
D14*
%TO.P,U14,1*%
%TO.N,N/C*%
X100000000Y-13000000D03*
D15*
%TO.P,U14,2*%
X102540000Y-13000000D03*
%TO.P,U14,3*%
X105080000Y-13000000D03*
%TO.P,U14,4*%
X107620000Y-13000000D03*
%TD*%
D14*
%TO.P,J2,1*%
%TO.N,N/C*%
X118000000Y-3500000D03*
D15*
%TO.P,J2,2*%
X118000000Y-6040000D03*
%TO.P,J2,3*%
X118000000Y-8580000D03*
%TD*%
D13*
%TO.P,SW3,1*%
%TO.N,N/C*%
X108025000Y-16750000D03*
X115975000Y-16750000D03*
%TO.P,SW3,2*%
X108025000Y-21250000D03*
X115975000Y-21250000D03*
%TD*%
D16*
%TO.P,MK2,1*%
%TO.N,N/C*%
X148000000Y-13000000D03*
D17*
%TO.P,MK2,2*%
X149270000Y-13000000D03*
%TO.P,MK2,3*%
X150540000Y-13000000D03*
%TO.P,MK2,4*%
X151810000Y-13000000D03*
%TO.P,MK2,5*%
X153080000Y-13000000D03*
%TO.P,MK2,6*%
X154350000Y-13000000D03*
%TD*%
D18*
%TO.P,J1,A1*%
%TO.N,N/C*%
X4800000Y-9320000D03*
%TO.P,J1,A4*%
X5600000Y-9320000D03*
D19*
%TO.P,J1,A5*%
X6750000Y-9320000D03*
%TO.P,J1,A6*%
X7750000Y-9320000D03*
%TO.P,J1,A7*%
X8250000Y-9320000D03*
%TO.P,J1,A8*%
X9250000Y-9320000D03*
D18*
%TO.P,J1,A9*%
X10400000Y-9320000D03*
%TO.P,J1,A12*%
X11200000Y-9320000D03*
%TO.P,J1,B1*%
X11200000Y-9320000D03*
%TO.P,J1,B4*%
X10400000Y-9320000D03*
D19*
%TO.P,J1,B5*%
X9750000Y-9320000D03*
%TO.P,J1,B6*%
X8750000Y-9320000D03*
%TO.P,J1,B7*%
X7250000Y-9320000D03*
%TO.P,J1,B8*%
X6250000Y-9320000D03*
D18*
%TO.P,J1,B9*%
X5600000Y-9320000D03*
%TO.P,J1,B12*%
X4800000Y-9320000D03*
D20*
%TO.P,J1,SH*%
X3680000Y-9895000D03*
D21*
X3680000Y-14075000D03*
D20*
X12320000Y-9895000D03*
D21*
X12320000Y-14075000D03*
%TD*%
D22*
%TO.P,U12,1*%
%TO.N,N/C*%
X138537500Y-8250000D03*
%TO.P,U12,2*%
X138537500Y-8750000D03*
%TO.P,U12,3*%
X138537500Y-9250000D03*
%TO.P,U12,4*%
X138537500Y-9750000D03*
D23*
%TO.P,U12,5*%
X139250000Y-10462500D03*
%TO.P,U12,6*%
X139750000Y-10462500D03*
%TO.P,U12,7*%
X140250000Y-10462500D03*
%TO.P,U12,8*%
X140750000Y-10462500D03*
D22*
%TO.P,U12,9*%
X141462500Y-9750000D03*
%TO.P,U12,10*%
X141462500Y-9250000D03*
%TO.P,U12,11*%
X141462500Y-8750000D03*
%TO.P,U12,12*%
X141462500Y-8250000D03*
D23*
%TO.P,U12,13*%
X140750000Y-7537500D03*
%TO.P,U12,14*%
X140250000Y-7537500D03*
%TO.P,U12,15*%
X139750000Y-7537500D03*
%TO.P,U12,16*%
X139250000Y-7537500D03*
D24*
%TO.P,U12,17*%
X140000000Y-9000000D03*
%TD*%
D12*
%TO.P,R2,1*%
%TO.N,N/C*%
X32500000Y-6912500D03*
%TO.P,R2,2*%
X32500000Y-5087500D03*
%TD*%
D25*
%TO.P,U2,1*%
%TO.N,N/C*%
X20862500Y-17050000D03*
%TO.P,U2,2*%
X20862500Y-18000000D03*
%TO.P,U2,3*%
X20862500Y-18950000D03*
%TO.P,U2,4*%
X23137500Y-18950000D03*
%TO.P,U2,5*%
X23137500Y-17050000D03*
%TD*%
D26*
%TO.P,U9,1*%
%TO.N,N/C*%
X53250000Y-7740000D03*
%TO.P,U9,2*%
X53250000Y-9010000D03*
%TO.P,U9,3*%
X53250000Y-10280000D03*
%TO.P,U9,4*%
X53250000Y-11550000D03*
%TO.P,U9,5*%
X53250000Y-12820000D03*
%TO.P,U9,6*%
X53250000Y-14090000D03*
%TO.P,U9,7*%
X53250000Y-15360000D03*
%TO.P,U9,8*%
X53250000Y-16630000D03*
%TO.P,U9,9*%
X53250000Y-17900000D03*
%TO.P,U9,10*%
X53250000Y-19170000D03*
%TO.P,U9,11*%
X53250000Y-20440000D03*
%TO.P,U9,12*%
X53250000Y-21710000D03*
%TO.P,U9,13*%
X53250000Y-22980000D03*
%TO.P,U9,14*%
X53250000Y-24250000D03*
D27*
%TO.P,U9,15*%
X55015000Y-25500000D03*
%TO.P,U9,16*%
X56285000Y-25500000D03*
%TO.P,U9,17*%
X57555000Y-25500000D03*
%TO.P,U9,18*%
X58825000Y-25500000D03*
%TO.P,U9,19*%
X60095000Y-25500000D03*
%TO.P,U9,20*%
X61365000Y-25500000D03*
%TO.P,U9,21*%
X62635000Y-25500000D03*
%TO.P,U9,22*%
X63905000Y-25500000D03*
%TO.P,U9,23*%
X65175000Y-25500000D03*
%TO.P,U9,24*%
X66445000Y-25500000D03*
%TO.P,U9,25*%
X67715000Y-25500000D03*
%TO.P,U9,26*%
X68985000Y-25500000D03*
D26*
%TO.P,U9,27*%
X70750000Y-24250000D03*
%TO.P,U9,28*%
X70750000Y-22980000D03*
%TO.P,U9,29*%
X70750000Y-21710000D03*
%TO.P,U9,30*%
X70750000Y-20440000D03*
%TO.P,U9,31*%
X70750000Y-19170000D03*
%TO.P,U9,32*%
X70750000Y-17900000D03*
%TO.P,U9,33*%
X70750000Y-16630000D03*
%TO.P,U9,34*%
X70750000Y-15360000D03*
%TO.P,U9,35*%
X70750000Y-14090000D03*
%TO.P,U9,36*%
X70750000Y-12820000D03*
%TO.P,U9,37*%
X70750000Y-11550000D03*
%TO.P,U9,38*%
X70750000Y-10280000D03*
%TO.P,U9,39*%
X70750000Y-9010000D03*
%TO.P,U9,40*%
X70750000Y-7740000D03*
D28*
%TO.P,U9,41*%
X59100000Y-14760000D03*
X59100000Y-16160000D03*
X59800000Y-14060000D03*
X59800000Y-15460000D03*
X59800000Y-16860000D03*
X60500000Y-14760000D03*
D29*
X60500000Y-15460000D03*
D28*
X60500000Y-16160000D03*
X61200000Y-14060000D03*
X61200000Y-15460000D03*
X61200000Y-16860000D03*
X61900000Y-14760000D03*
X61900000Y-16160000D03*
%TD*%
D11*
%TO.P,R13,1*%
%TO.N,N/C*%
X129087500Y-19000000D03*
%TO.P,R13,2*%
X130912500Y-19000000D03*
%TD*%
D25*
%TO.P,U1,1*%
%TO.N,N/C*%
X20862500Y-7050000D03*
%TO.P,U1,2*%
X20862500Y-8000000D03*
%TO.P,U1,3*%
X20862500Y-8950000D03*
%TO.P,U1,4*%
X23137500Y-8950000D03*
%TO.P,U1,5*%
X23137500Y-7050000D03*
%TD*%
D11*
%TO.P,R15,1*%
%TO.N,N/C*%
X87087500Y-17000000D03*
%TO.P,R15,2*%
X88912500Y-17000000D03*
%TD*%
D14*
%TO.P,LS1,1*%
%TO.N,N/C*%
X140000000Y-20000000D03*
D15*
%TO.P,LS1,2*%
X140000000Y-22540000D03*
%TD*%
D10*
%TO.P,C3,1*%
%TO.N,N/C*%
X81050000Y-7000000D03*
%TO.P,C3,2*%
X82950000Y-7000000D03*
%TD*%
%TO.P,C4,1*%
%TO.N,N/C*%
X81050000Y-19000000D03*
%TO.P,C4,2*%
X82950000Y-19000000D03*
%TD*%
D30*
%TO.P,D1,1*%
%TO.N,N/C*%
X107550000Y-1850000D03*
%TO.P,D1,2*%
X107550000Y-5150000D03*
%TO.P,D1,3*%
X112450000Y-5150000D03*
%TO.P,D1,4*%
X112450000Y-1850000D03*
%TD*%
D14*
%TO.P,BT1,1*%
%TO.N,N/C*%
X40000000Y-13000000D03*
D15*
%TO.P,BT1,2*%
X42540000Y-13000000D03*
%TD*%
D12*
%TO.P,R1,1*%
%TO.N,N/C*%
X30000000Y-6912500D03*
%TO.P,R1,2*%
X30000000Y-5087500D03*
%TD*%
D31*
%TO.P,U13,1*%
%TO.N,N/C*%
X120495000Y-11775000D03*
D32*
%TO.P,U13,2*%
X120525000Y-12355000D03*
%TO.P,U13,3*%
X120525000Y-12785000D03*
%TO.P,U13,4*%
X120525000Y-13215000D03*
%TO.P,U13,5*%
X120525000Y-13645000D03*
D31*
%TO.P,U13,6*%
X120495000Y-14225000D03*
%TO.P,U13,7*%
X120925000Y-14225000D03*
%TO.P,U13,8*%
X121355000Y-14225000D03*
%TO.P,U13,9*%
X121785000Y-14225000D03*
%TO.P,U13,10*%
X122215000Y-14225000D03*
%TO.P,U13,11*%
X122645000Y-14225000D03*
%TO.P,U13,12*%
X123075000Y-14225000D03*
%TO.P,U13,13*%
X123505000Y-14225000D03*
D32*
%TO.P,U13,14*%
X123475000Y-13645000D03*
%TO.P,U13,15*%
X123475000Y-13215000D03*
%TO.P,U13,16*%
X123475000Y-12785000D03*
%TO.P,U13,17*%
X123475000Y-12355000D03*
D31*
%TO.P,U13,18*%
X123505000Y-11775000D03*
%TO.P,U13,19*%
X123075000Y-11775000D03*
%TO.P,U13,20*%
X122645000Y-11775000D03*
%TO.P,U13,21*%
X122215000Y-11775000D03*
%TO.P,U13,22*%
X121785000Y-11775000D03*
%TO.P,U13,23*%
X121355000Y-11775000D03*
%TO.P,U13,24*%
X120925000Y-11775000D03*
%TD*%
M02*
