%TF.GenerationSoftware,KiCad,Pcbnew,10.0.5*%
%TF.CreationDate,2026-08-03T21:37:27-04:00*%
%TF.ProjectId,wazza,77617a7a-612e-46b6-9963-61645f706362,rev?*%
%TF.SameCoordinates,Original*%
%TF.FileFunction,Legend,Top*%
%TF.FilePolarity,Positive*%
%FSLAX46Y46*%
G04 Gerber Fmt 4.6, Leading zero omitted, Abs format (unit mm)*
G04 Created by KiCad (PCBNEW 10.0.5) date 2026-08-03 21:37:27*
%MOMM*%
%LPD*%
G01*
G04 APERTURE LIST*
G04 Aperture macros list*
%AMRoundRect*
0 Rectangle with rounded corners*
0 $1 Rounding radius*
0 $2 $3 $4 $5 $6 $7 $8 $9 X,Y pos of 4 corners*
0 Add a 4 corners polygon primitive as box body*
4,1,4,$2,$3,$4,$5,$6,$7,$8,$9,$2,$3,0*
0 Add four circle primitives for the rounded corners*
1,1,$1+$1,$2,$3*
1,1,$1+$1,$4,$5*
1,1,$1+$1,$6,$7*
1,1,$1+$1,$8,$9*
0 Add four rect primitives between the rounded corners*
20,1,$1+$1,$2,$3,$4,$5,0*
20,1,$1+$1,$4,$5,$6,$7,0*
20,1,$1+$1,$6,$7,$8,$9,0*
20,1,$1+$1,$8,$9,$2,$3,0*%
G04 Aperture macros list end*
%ADD10C,0.100000*%
%ADD11C,0.150000*%
%ADD12C,0.120000*%
%ADD13RoundRect,0.250000X0.250000X0.475000X-0.250000X0.475000X-0.250000X-0.475000X0.250000X-0.475000X0*%
%ADD14RoundRect,0.250000X0.262500X0.450000X-0.262500X0.450000X-0.262500X-0.450000X0.262500X-0.450000X0*%
%ADD15RoundRect,0.250000X-0.450000X0.262500X-0.450000X-0.262500X0.450000X-0.262500X0.450000X0.262500X0*%
%ADD16R,1.550000X1.300000*%
%ADD17R,1.700000X1.700000*%
%ADD18C,1.700000*%
%ADD19R,1.000000X1.000000*%
%ADD20C,1.000000*%
%ADD21C,0.650000*%
%ADD22RoundRect,0.150000X0.150000X0.425000X-0.150000X0.425000X-0.150000X-0.425000X0.150000X-0.425000X0*%
%ADD23RoundRect,0.075000X0.075000X0.500000X-0.075000X0.500000X-0.075000X-0.500000X0.075000X-0.500000X0*%
%ADD24O,1.000000X2.100000*%
%ADD25O,1.000000X1.800000*%
%ADD26RoundRect,0.062500X0.350000X0.062500X-0.350000X0.062500X-0.350000X-0.062500X0.350000X-0.062500X0*%
%ADD27RoundRect,0.062500X0.062500X0.350000X-0.062500X0.350000X-0.062500X-0.350000X0.062500X-0.350000X0*%
%ADD28RoundRect,0.150000X0.512500X0.150000X-0.512500X0.150000X-0.512500X-0.150000X0.512500X-0.150000X0*%
%ADD29R,1.500000X0.900000*%
%ADD30R,0.900000X1.500000*%
%ADD31C,0.600000*%
%ADD32R,3.900000X3.900000*%
%ADD33RoundRect,0.090000X0.660000X0.360000X-0.660000X0.360000X-0.660000X-0.360000X0.660000X-0.360000X0*%
%ADD34R,0.230000X0.350000*%
%ADD35R,0.350000X0.230000*%
G04 APERTURE END LIST*
D10*
X132585713Y-95635104D02*
X132585713Y-96168438D01*
X132585713Y-96016057D02*
X132547618Y-96092247D01*
X132547618Y-96092247D02*
X132509523Y-96130342D01*
X132509523Y-96130342D02*
X132433332Y-96168438D01*
X132433332Y-96168438D02*
X132357142Y-96168438D01*
X131785713Y-95673200D02*
X131861904Y-95635104D01*
X131861904Y-95635104D02*
X132014285Y-95635104D01*
X132014285Y-95635104D02*
X132090475Y-95673200D01*
X132090475Y-95673200D02*
X132128571Y-95749390D01*
X132128571Y-95749390D02*
X132128571Y-96054152D01*
X132128571Y-96054152D02*
X132090475Y-96130342D01*
X132090475Y-96130342D02*
X132014285Y-96168438D01*
X132014285Y-96168438D02*
X131861904Y-96168438D01*
X131861904Y-96168438D02*
X131785713Y-96130342D01*
X131785713Y-96130342D02*
X131747618Y-96054152D01*
X131747618Y-96054152D02*
X131747618Y-95977961D01*
X131747618Y-95977961D02*
X132128571Y-95901771D01*
X131480952Y-96168438D02*
X131290476Y-95635104D01*
X131290476Y-95635104D02*
X131099999Y-96168438D01*
X130833333Y-96358914D02*
X130795237Y-96397009D01*
X130795237Y-96397009D02*
X130719047Y-96435104D01*
X130719047Y-96435104D02*
X130528571Y-96435104D01*
X130528571Y-96435104D02*
X130452380Y-96397009D01*
X130452380Y-96397009D02*
X130414285Y-96358914D01*
X130414285Y-96358914D02*
X130376190Y-96282723D01*
X130376190Y-96282723D02*
X130376190Y-96206533D01*
X130376190Y-96206533D02*
X130414285Y-96092247D01*
X130414285Y-96092247D02*
X130871428Y-95635104D01*
X130871428Y-95635104D02*
X130376190Y-95635104D01*
D11*
X149185713Y-96652657D02*
X148899999Y-95452657D01*
X148899999Y-95452657D02*
X148671427Y-96309800D01*
X148671427Y-96309800D02*
X148442856Y-95452657D01*
X148442856Y-95452657D02*
X148157142Y-96652657D01*
X147757141Y-95795514D02*
X147185713Y-95795514D01*
X147871427Y-95452657D02*
X147471427Y-96652657D01*
X147471427Y-96652657D02*
X147071427Y-95452657D01*
X146785713Y-96652657D02*
X145985713Y-96652657D01*
X145985713Y-96652657D02*
X146785713Y-95452657D01*
X146785713Y-95452657D02*
X145985713Y-95452657D01*
X145642856Y-96652657D02*
X144842856Y-96652657D01*
X144842856Y-96652657D02*
X145642856Y-95452657D01*
X145642856Y-95452657D02*
X144842856Y-95452657D01*
X144442856Y-95795514D02*
X143871428Y-95795514D01*
X144557142Y-95452657D02*
X144157142Y-96652657D01*
X144157142Y-96652657D02*
X143757142Y-95452657D01*
X181333333Y-87039580D02*
X181285714Y-87087200D01*
X181285714Y-87087200D02*
X181142857Y-87134819D01*
X181142857Y-87134819D02*
X181047619Y-87134819D01*
X181047619Y-87134819D02*
X180904762Y-87087200D01*
X180904762Y-87087200D02*
X180809524Y-86991961D01*
X180809524Y-86991961D02*
X180761905Y-86896723D01*
X180761905Y-86896723D02*
X180714286Y-86706247D01*
X180714286Y-86706247D02*
X180714286Y-86563390D01*
X180714286Y-86563390D02*
X180761905Y-86372914D01*
X180761905Y-86372914D02*
X180809524Y-86277676D01*
X180809524Y-86277676D02*
X180904762Y-86182438D01*
X180904762Y-86182438D02*
X181047619Y-86134819D01*
X181047619Y-86134819D02*
X181142857Y-86134819D01*
X181142857Y-86134819D02*
X181285714Y-86182438D01*
X181285714Y-86182438D02*
X181333333Y-86230057D01*
X182285714Y-87134819D02*
X181714286Y-87134819D01*
X182000000Y-87134819D02*
X182000000Y-86134819D01*
X182000000Y-86134819D02*
X181904762Y-86277676D01*
X181904762Y-86277676D02*
X181809524Y-86372914D01*
X181809524Y-86372914D02*
X181714286Y-86420533D01*
X85857142Y-93104819D02*
X85523809Y-92628628D01*
X85285714Y-93104819D02*
X85285714Y-92104819D01*
X85285714Y-92104819D02*
X85666666Y-92104819D01*
X85666666Y-92104819D02*
X85761904Y-92152438D01*
X85761904Y-92152438D02*
X85809523Y-92200057D01*
X85809523Y-92200057D02*
X85857142Y-92295295D01*
X85857142Y-92295295D02*
X85857142Y-92438152D01*
X85857142Y-92438152D02*
X85809523Y-92533390D01*
X85809523Y-92533390D02*
X85761904Y-92581009D01*
X85761904Y-92581009D02*
X85666666Y-92628628D01*
X85666666Y-92628628D02*
X85285714Y-92628628D01*
X86809523Y-93104819D02*
X86238095Y-93104819D01*
X86523809Y-93104819D02*
X86523809Y-92104819D01*
X86523809Y-92104819D02*
X86428571Y-92247676D01*
X86428571Y-92247676D02*
X86333333Y-92342914D01*
X86333333Y-92342914D02*
X86238095Y-92390533D01*
X87428571Y-92104819D02*
X87523809Y-92104819D01*
X87523809Y-92104819D02*
X87619047Y-92152438D01*
X87619047Y-92152438D02*
X87666666Y-92200057D01*
X87666666Y-92200057D02*
X87714285Y-92295295D01*
X87714285Y-92295295D02*
X87761904Y-92485771D01*
X87761904Y-92485771D02*
X87761904Y-92723866D01*
X87761904Y-92723866D02*
X87714285Y-92914342D01*
X87714285Y-92914342D02*
X87666666Y-93009580D01*
X87666666Y-93009580D02*
X87619047Y-93057200D01*
X87619047Y-93057200D02*
X87523809Y-93104819D01*
X87523809Y-93104819D02*
X87428571Y-93104819D01*
X87428571Y-93104819D02*
X87333333Y-93057200D01*
X87333333Y-93057200D02*
X87285714Y-93009580D01*
X87285714Y-93009580D02*
X87238095Y-92914342D01*
X87238095Y-92914342D02*
X87190476Y-92723866D01*
X87190476Y-92723866D02*
X87190476Y-92485771D01*
X87190476Y-92485771D02*
X87238095Y-92295295D01*
X87238095Y-92295295D02*
X87285714Y-92200057D01*
X87285714Y-92200057D02*
X87333333Y-92152438D01*
X87333333Y-92152438D02*
X87428571Y-92104819D01*
X188604819Y-78166666D02*
X188128628Y-78499999D01*
X188604819Y-78738094D02*
X187604819Y-78738094D01*
X187604819Y-78738094D02*
X187604819Y-78357142D01*
X187604819Y-78357142D02*
X187652438Y-78261904D01*
X187652438Y-78261904D02*
X187700057Y-78214285D01*
X187700057Y-78214285D02*
X187795295Y-78166666D01*
X187795295Y-78166666D02*
X187938152Y-78166666D01*
X187938152Y-78166666D02*
X188033390Y-78214285D01*
X188033390Y-78214285D02*
X188081009Y-78261904D01*
X188081009Y-78261904D02*
X188128628Y-78357142D01*
X188128628Y-78357142D02*
X188128628Y-78738094D01*
X187604819Y-77833332D02*
X187604819Y-77214285D01*
X187604819Y-77214285D02*
X187985771Y-77547618D01*
X187985771Y-77547618D02*
X187985771Y-77404761D01*
X187985771Y-77404761D02*
X188033390Y-77309523D01*
X188033390Y-77309523D02*
X188081009Y-77261904D01*
X188081009Y-77261904D02*
X188176247Y-77214285D01*
X188176247Y-77214285D02*
X188414342Y-77214285D01*
X188414342Y-77214285D02*
X188509580Y-77261904D01*
X188509580Y-77261904D02*
X188557200Y-77309523D01*
X188557200Y-77309523D02*
X188604819Y-77404761D01*
X188604819Y-77404761D02*
X188604819Y-77690475D01*
X188604819Y-77690475D02*
X188557200Y-77785713D01*
X188557200Y-77785713D02*
X188509580Y-77833332D01*
X127857142Y-91104819D02*
X127523809Y-90628628D01*
X127285714Y-91104819D02*
X127285714Y-90104819D01*
X127285714Y-90104819D02*
X127666666Y-90104819D01*
X127666666Y-90104819D02*
X127761904Y-90152438D01*
X127761904Y-90152438D02*
X127809523Y-90200057D01*
X127809523Y-90200057D02*
X127857142Y-90295295D01*
X127857142Y-90295295D02*
X127857142Y-90438152D01*
X127857142Y-90438152D02*
X127809523Y-90533390D01*
X127809523Y-90533390D02*
X127761904Y-90581009D01*
X127761904Y-90581009D02*
X127666666Y-90628628D01*
X127666666Y-90628628D02*
X127285714Y-90628628D01*
X128809523Y-91104819D02*
X128238095Y-91104819D01*
X128523809Y-91104819D02*
X128523809Y-90104819D01*
X128523809Y-90104819D02*
X128428571Y-90247676D01*
X128428571Y-90247676D02*
X128333333Y-90342914D01*
X128333333Y-90342914D02*
X128238095Y-90390533D01*
X129666666Y-90438152D02*
X129666666Y-91104819D01*
X129428571Y-90057200D02*
X129190476Y-90771485D01*
X129190476Y-90771485D02*
X129809523Y-90771485D01*
X103166667Y-95907200D02*
X103309524Y-95954819D01*
X103309524Y-95954819D02*
X103547619Y-95954819D01*
X103547619Y-95954819D02*
X103642857Y-95907200D01*
X103642857Y-95907200D02*
X103690476Y-95859580D01*
X103690476Y-95859580D02*
X103738095Y-95764342D01*
X103738095Y-95764342D02*
X103738095Y-95669104D01*
X103738095Y-95669104D02*
X103690476Y-95573866D01*
X103690476Y-95573866D02*
X103642857Y-95526247D01*
X103642857Y-95526247D02*
X103547619Y-95478628D01*
X103547619Y-95478628D02*
X103357143Y-95431009D01*
X103357143Y-95431009D02*
X103261905Y-95383390D01*
X103261905Y-95383390D02*
X103214286Y-95335771D01*
X103214286Y-95335771D02*
X103166667Y-95240533D01*
X103166667Y-95240533D02*
X103166667Y-95145295D01*
X103166667Y-95145295D02*
X103214286Y-95050057D01*
X103214286Y-95050057D02*
X103261905Y-95002438D01*
X103261905Y-95002438D02*
X103357143Y-94954819D01*
X103357143Y-94954819D02*
X103595238Y-94954819D01*
X103595238Y-94954819D02*
X103738095Y-95002438D01*
X104071429Y-94954819D02*
X104309524Y-95954819D01*
X104309524Y-95954819D02*
X104500000Y-95240533D01*
X104500000Y-95240533D02*
X104690476Y-95954819D01*
X104690476Y-95954819D02*
X104928572Y-94954819D01*
X105261905Y-95050057D02*
X105309524Y-95002438D01*
X105309524Y-95002438D02*
X105404762Y-94954819D01*
X105404762Y-94954819D02*
X105642857Y-94954819D01*
X105642857Y-94954819D02*
X105738095Y-95002438D01*
X105738095Y-95002438D02*
X105785714Y-95050057D01*
X105785714Y-95050057D02*
X105833333Y-95145295D01*
X105833333Y-95145295D02*
X105833333Y-95240533D01*
X105833333Y-95240533D02*
X105785714Y-95383390D01*
X105785714Y-95383390D02*
X105214286Y-95954819D01*
X105214286Y-95954819D02*
X105833333Y-95954819D01*
X118334819Y-86238094D02*
X119144342Y-86238094D01*
X119144342Y-86238094D02*
X119239580Y-86190475D01*
X119239580Y-86190475D02*
X119287200Y-86142856D01*
X119287200Y-86142856D02*
X119334819Y-86047618D01*
X119334819Y-86047618D02*
X119334819Y-85857142D01*
X119334819Y-85857142D02*
X119287200Y-85761904D01*
X119287200Y-85761904D02*
X119239580Y-85714285D01*
X119239580Y-85714285D02*
X119144342Y-85666666D01*
X119144342Y-85666666D02*
X118334819Y-85666666D01*
X119334819Y-84666666D02*
X119334819Y-85238094D01*
X119334819Y-84952380D02*
X118334819Y-84952380D01*
X118334819Y-84952380D02*
X118477676Y-85047618D01*
X118477676Y-85047618D02*
X118572914Y-85142856D01*
X118572914Y-85142856D02*
X118620533Y-85238094D01*
X118668152Y-83809523D02*
X119334819Y-83809523D01*
X118287200Y-84047618D02*
X119001485Y-84285713D01*
X119001485Y-84285713D02*
X119001485Y-83666666D01*
X98166666Y-97334819D02*
X98166666Y-98049104D01*
X98166666Y-98049104D02*
X98119047Y-98191961D01*
X98119047Y-98191961D02*
X98023809Y-98287200D01*
X98023809Y-98287200D02*
X97880952Y-98334819D01*
X97880952Y-98334819D02*
X97785714Y-98334819D01*
X98595238Y-97430057D02*
X98642857Y-97382438D01*
X98642857Y-97382438D02*
X98738095Y-97334819D01*
X98738095Y-97334819D02*
X98976190Y-97334819D01*
X98976190Y-97334819D02*
X99071428Y-97382438D01*
X99071428Y-97382438D02*
X99119047Y-97430057D01*
X99119047Y-97430057D02*
X99166666Y-97525295D01*
X99166666Y-97525295D02*
X99166666Y-97620533D01*
X99166666Y-97620533D02*
X99119047Y-97763390D01*
X99119047Y-97763390D02*
X98547619Y-98334819D01*
X98547619Y-98334819D02*
X99166666Y-98334819D01*
X103166667Y-83907200D02*
X103309524Y-83954819D01*
X103309524Y-83954819D02*
X103547619Y-83954819D01*
X103547619Y-83954819D02*
X103642857Y-83907200D01*
X103642857Y-83907200D02*
X103690476Y-83859580D01*
X103690476Y-83859580D02*
X103738095Y-83764342D01*
X103738095Y-83764342D02*
X103738095Y-83669104D01*
X103738095Y-83669104D02*
X103690476Y-83573866D01*
X103690476Y-83573866D02*
X103642857Y-83526247D01*
X103642857Y-83526247D02*
X103547619Y-83478628D01*
X103547619Y-83478628D02*
X103357143Y-83431009D01*
X103357143Y-83431009D02*
X103261905Y-83383390D01*
X103261905Y-83383390D02*
X103214286Y-83335771D01*
X103214286Y-83335771D02*
X103166667Y-83240533D01*
X103166667Y-83240533D02*
X103166667Y-83145295D01*
X103166667Y-83145295D02*
X103214286Y-83050057D01*
X103214286Y-83050057D02*
X103261905Y-83002438D01*
X103261905Y-83002438D02*
X103357143Y-82954819D01*
X103357143Y-82954819D02*
X103595238Y-82954819D01*
X103595238Y-82954819D02*
X103738095Y-83002438D01*
X104071429Y-82954819D02*
X104309524Y-83954819D01*
X104309524Y-83954819D02*
X104500000Y-83240533D01*
X104500000Y-83240533D02*
X104690476Y-83954819D01*
X104690476Y-83954819D02*
X104928572Y-82954819D01*
X105214286Y-82954819D02*
X105833333Y-82954819D01*
X105833333Y-82954819D02*
X105500000Y-83335771D01*
X105500000Y-83335771D02*
X105642857Y-83335771D01*
X105642857Y-83335771D02*
X105738095Y-83383390D01*
X105738095Y-83383390D02*
X105785714Y-83431009D01*
X105785714Y-83431009D02*
X105833333Y-83526247D01*
X105833333Y-83526247D02*
X105833333Y-83764342D01*
X105833333Y-83764342D02*
X105785714Y-83859580D01*
X105785714Y-83859580D02*
X105738095Y-83907200D01*
X105738095Y-83907200D02*
X105642857Y-83954819D01*
X105642857Y-83954819D02*
X105357143Y-83954819D01*
X105357143Y-83954819D02*
X105261905Y-83907200D01*
X105261905Y-83907200D02*
X105214286Y-83859580D01*
X70699819Y-86309523D02*
X69699819Y-86309523D01*
X69699819Y-86309523D02*
X70414104Y-85976190D01*
X70414104Y-85976190D02*
X69699819Y-85642857D01*
X69699819Y-85642857D02*
X70699819Y-85642857D01*
X70699819Y-85166666D02*
X69699819Y-85166666D01*
X70699819Y-84595238D02*
X70128390Y-85023809D01*
X69699819Y-84595238D02*
X70271247Y-85166666D01*
X69795057Y-84214285D02*
X69747438Y-84166666D01*
X69747438Y-84166666D02*
X69699819Y-84071428D01*
X69699819Y-84071428D02*
X69699819Y-83833333D01*
X69699819Y-83833333D02*
X69747438Y-83738095D01*
X69747438Y-83738095D02*
X69795057Y-83690476D01*
X69795057Y-83690476D02*
X69890295Y-83642857D01*
X69890295Y-83642857D02*
X69985533Y-83642857D01*
X69985533Y-83642857D02*
X70128390Y-83690476D01*
X70128390Y-83690476D02*
X70699819Y-84261904D01*
X70699819Y-84261904D02*
X70699819Y-83642857D01*
X208833333Y-91045180D02*
X208833333Y-90330895D01*
X208833333Y-90330895D02*
X208880952Y-90188038D01*
X208880952Y-90188038D02*
X208976190Y-90092800D01*
X208976190Y-90092800D02*
X209119047Y-90045180D01*
X209119047Y-90045180D02*
X209214285Y-90045180D01*
X207833333Y-90045180D02*
X208404761Y-90045180D01*
X208119047Y-90045180D02*
X208119047Y-91045180D01*
X208119047Y-91045180D02*
X208214285Y-90902323D01*
X208214285Y-90902323D02*
X208309523Y-90807085D01*
X208309523Y-90807085D02*
X208404761Y-90759466D01*
X75261905Y-91284819D02*
X75261905Y-92094342D01*
X75261905Y-92094342D02*
X75309524Y-92189580D01*
X75309524Y-92189580D02*
X75357143Y-92237200D01*
X75357143Y-92237200D02*
X75452381Y-92284819D01*
X75452381Y-92284819D02*
X75642857Y-92284819D01*
X75642857Y-92284819D02*
X75738095Y-92237200D01*
X75738095Y-92237200D02*
X75785714Y-92189580D01*
X75785714Y-92189580D02*
X75833333Y-92094342D01*
X75833333Y-92094342D02*
X75833333Y-91284819D01*
X76833333Y-92284819D02*
X76261905Y-92284819D01*
X76547619Y-92284819D02*
X76547619Y-91284819D01*
X76547619Y-91284819D02*
X76452381Y-91427676D01*
X76452381Y-91427676D02*
X76357143Y-91522914D01*
X76357143Y-91522914D02*
X76261905Y-91570533D01*
X77214286Y-91380057D02*
X77261905Y-91332438D01*
X77261905Y-91332438D02*
X77357143Y-91284819D01*
X77357143Y-91284819D02*
X77595238Y-91284819D01*
X77595238Y-91284819D02*
X77690476Y-91332438D01*
X77690476Y-91332438D02*
X77738095Y-91380057D01*
X77738095Y-91380057D02*
X77785714Y-91475295D01*
X77785714Y-91475295D02*
X77785714Y-91570533D01*
X77785714Y-91570533D02*
X77738095Y-91713390D01*
X77738095Y-91713390D02*
X77166667Y-92284819D01*
X77166667Y-92284819D02*
X77785714Y-92284819D01*
X186104819Y-92166666D02*
X185628628Y-92499999D01*
X186104819Y-92738094D02*
X185104819Y-92738094D01*
X185104819Y-92738094D02*
X185104819Y-92357142D01*
X185104819Y-92357142D02*
X185152438Y-92261904D01*
X185152438Y-92261904D02*
X185200057Y-92214285D01*
X185200057Y-92214285D02*
X185295295Y-92166666D01*
X185295295Y-92166666D02*
X185438152Y-92166666D01*
X185438152Y-92166666D02*
X185533390Y-92214285D01*
X185533390Y-92214285D02*
X185581009Y-92261904D01*
X185581009Y-92261904D02*
X185628628Y-92357142D01*
X185628628Y-92357142D02*
X185628628Y-92738094D01*
X185200057Y-91785713D02*
X185152438Y-91738094D01*
X185152438Y-91738094D02*
X185104819Y-91642856D01*
X185104819Y-91642856D02*
X185104819Y-91404761D01*
X185104819Y-91404761D02*
X185152438Y-91309523D01*
X185152438Y-91309523D02*
X185200057Y-91261904D01*
X185200057Y-91261904D02*
X185295295Y-91214285D01*
X185295295Y-91214285D02*
X185390533Y-91214285D01*
X185390533Y-91214285D02*
X185533390Y-91261904D01*
X185533390Y-91261904D02*
X186104819Y-91833332D01*
X186104819Y-91833332D02*
X186104819Y-91214285D01*
X193738095Y-81854819D02*
X193738095Y-82664342D01*
X193738095Y-82664342D02*
X193785714Y-82759580D01*
X193785714Y-82759580D02*
X193833333Y-82807200D01*
X193833333Y-82807200D02*
X193928571Y-82854819D01*
X193928571Y-82854819D02*
X194119047Y-82854819D01*
X194119047Y-82854819D02*
X194214285Y-82807200D01*
X194214285Y-82807200D02*
X194261904Y-82759580D01*
X194261904Y-82759580D02*
X194309523Y-82664342D01*
X194309523Y-82664342D02*
X194309523Y-81854819D01*
X194738095Y-81950057D02*
X194785714Y-81902438D01*
X194785714Y-81902438D02*
X194880952Y-81854819D01*
X194880952Y-81854819D02*
X195119047Y-81854819D01*
X195119047Y-81854819D02*
X195214285Y-81902438D01*
X195214285Y-81902438D02*
X195261904Y-81950057D01*
X195261904Y-81950057D02*
X195309523Y-82045295D01*
X195309523Y-82045295D02*
X195309523Y-82140533D01*
X195309523Y-82140533D02*
X195261904Y-82283390D01*
X195261904Y-82283390D02*
X194690476Y-82854819D01*
X194690476Y-82854819D02*
X195309523Y-82854819D01*
X165545180Y-72838095D02*
X164735657Y-72838095D01*
X164735657Y-72838095D02*
X164640419Y-72885714D01*
X164640419Y-72885714D02*
X164592800Y-72933333D01*
X164592800Y-72933333D02*
X164545180Y-73028571D01*
X164545180Y-73028571D02*
X164545180Y-73219047D01*
X164545180Y-73219047D02*
X164592800Y-73314285D01*
X164592800Y-73314285D02*
X164640419Y-73361904D01*
X164640419Y-73361904D02*
X164735657Y-73409523D01*
X164735657Y-73409523D02*
X165545180Y-73409523D01*
X164545180Y-73933333D02*
X164545180Y-74123809D01*
X164545180Y-74123809D02*
X164592800Y-74219047D01*
X164592800Y-74219047D02*
X164640419Y-74266666D01*
X164640419Y-74266666D02*
X164783276Y-74361904D01*
X164783276Y-74361904D02*
X164973752Y-74409523D01*
X164973752Y-74409523D02*
X165354704Y-74409523D01*
X165354704Y-74409523D02*
X165449942Y-74361904D01*
X165449942Y-74361904D02*
X165497561Y-74314285D01*
X165497561Y-74314285D02*
X165545180Y-74219047D01*
X165545180Y-74219047D02*
X165545180Y-74028571D01*
X165545180Y-74028571D02*
X165497561Y-73933333D01*
X165497561Y-73933333D02*
X165449942Y-73885714D01*
X165449942Y-73885714D02*
X165354704Y-73838095D01*
X165354704Y-73838095D02*
X165116609Y-73838095D01*
X165116609Y-73838095D02*
X165021371Y-73885714D01*
X165021371Y-73885714D02*
X164973752Y-73933333D01*
X164973752Y-73933333D02*
X164926133Y-74028571D01*
X164926133Y-74028571D02*
X164926133Y-74219047D01*
X164926133Y-74219047D02*
X164973752Y-74314285D01*
X164973752Y-74314285D02*
X165021371Y-74361904D01*
X165021371Y-74361904D02*
X165116609Y-74409523D01*
X85857142Y-81104819D02*
X85523809Y-80628628D01*
X85285714Y-81104819D02*
X85285714Y-80104819D01*
X85285714Y-80104819D02*
X85666666Y-80104819D01*
X85666666Y-80104819D02*
X85761904Y-80152438D01*
X85761904Y-80152438D02*
X85809523Y-80200057D01*
X85809523Y-80200057D02*
X85857142Y-80295295D01*
X85857142Y-80295295D02*
X85857142Y-80438152D01*
X85857142Y-80438152D02*
X85809523Y-80533390D01*
X85809523Y-80533390D02*
X85761904Y-80581009D01*
X85761904Y-80581009D02*
X85666666Y-80628628D01*
X85666666Y-80628628D02*
X85285714Y-80628628D01*
X86809523Y-81104819D02*
X86238095Y-81104819D01*
X86523809Y-81104819D02*
X86523809Y-80104819D01*
X86523809Y-80104819D02*
X86428571Y-80247676D01*
X86428571Y-80247676D02*
X86333333Y-80342914D01*
X86333333Y-80342914D02*
X86238095Y-80390533D01*
X87142857Y-80104819D02*
X87761904Y-80104819D01*
X87761904Y-80104819D02*
X87428571Y-80485771D01*
X87428571Y-80485771D02*
X87571428Y-80485771D01*
X87571428Y-80485771D02*
X87666666Y-80533390D01*
X87666666Y-80533390D02*
X87714285Y-80581009D01*
X87714285Y-80581009D02*
X87761904Y-80676247D01*
X87761904Y-80676247D02*
X87761904Y-80914342D01*
X87761904Y-80914342D02*
X87714285Y-81009580D01*
X87714285Y-81009580D02*
X87666666Y-81057200D01*
X87666666Y-81057200D02*
X87571428Y-81104819D01*
X87571428Y-81104819D02*
X87285714Y-81104819D01*
X87285714Y-81104819D02*
X87190476Y-81057200D01*
X87190476Y-81057200D02*
X87142857Y-81009580D01*
X193738095Y-91854819D02*
X193738095Y-92664342D01*
X193738095Y-92664342D02*
X193785714Y-92759580D01*
X193785714Y-92759580D02*
X193833333Y-92807200D01*
X193833333Y-92807200D02*
X193928571Y-92854819D01*
X193928571Y-92854819D02*
X194119047Y-92854819D01*
X194119047Y-92854819D02*
X194214285Y-92807200D01*
X194214285Y-92807200D02*
X194261904Y-92759580D01*
X194261904Y-92759580D02*
X194309523Y-92664342D01*
X194309523Y-92664342D02*
X194309523Y-91854819D01*
X195309523Y-92854819D02*
X194738095Y-92854819D01*
X195023809Y-92854819D02*
X195023809Y-91854819D01*
X195023809Y-91854819D02*
X194928571Y-91997676D01*
X194928571Y-91997676D02*
X194833333Y-92092914D01*
X194833333Y-92092914D02*
X194738095Y-92140533D01*
X127857142Y-83104819D02*
X127523809Y-82628628D01*
X127285714Y-83104819D02*
X127285714Y-82104819D01*
X127285714Y-82104819D02*
X127666666Y-82104819D01*
X127666666Y-82104819D02*
X127761904Y-82152438D01*
X127761904Y-82152438D02*
X127809523Y-82200057D01*
X127809523Y-82200057D02*
X127857142Y-82295295D01*
X127857142Y-82295295D02*
X127857142Y-82438152D01*
X127857142Y-82438152D02*
X127809523Y-82533390D01*
X127809523Y-82533390D02*
X127761904Y-82581009D01*
X127761904Y-82581009D02*
X127666666Y-82628628D01*
X127666666Y-82628628D02*
X127285714Y-82628628D01*
X128809523Y-83104819D02*
X128238095Y-83104819D01*
X128523809Y-83104819D02*
X128523809Y-82104819D01*
X128523809Y-82104819D02*
X128428571Y-82247676D01*
X128428571Y-82247676D02*
X128333333Y-82342914D01*
X128333333Y-82342914D02*
X128238095Y-82390533D01*
X129714285Y-82104819D02*
X129238095Y-82104819D01*
X129238095Y-82104819D02*
X129190476Y-82581009D01*
X129190476Y-82581009D02*
X129238095Y-82533390D01*
X129238095Y-82533390D02*
X129333333Y-82485771D01*
X129333333Y-82485771D02*
X129571428Y-82485771D01*
X129571428Y-82485771D02*
X129666666Y-82533390D01*
X129666666Y-82533390D02*
X129714285Y-82581009D01*
X129714285Y-82581009D02*
X129761904Y-82676247D01*
X129761904Y-82676247D02*
X129761904Y-82914342D01*
X129761904Y-82914342D02*
X129714285Y-83009580D01*
X129714285Y-83009580D02*
X129666666Y-83057200D01*
X129666666Y-83057200D02*
X129571428Y-83104819D01*
X129571428Y-83104819D02*
X129333333Y-83104819D01*
X129333333Y-83104819D02*
X129238095Y-83057200D01*
X129238095Y-83057200D02*
X129190476Y-83009580D01*
X75857142Y-80834819D02*
X75380952Y-80834819D01*
X75380952Y-80834819D02*
X75380952Y-79834819D01*
X76142857Y-80787200D02*
X76285714Y-80834819D01*
X76285714Y-80834819D02*
X76523809Y-80834819D01*
X76523809Y-80834819D02*
X76619047Y-80787200D01*
X76619047Y-80787200D02*
X76666666Y-80739580D01*
X76666666Y-80739580D02*
X76714285Y-80644342D01*
X76714285Y-80644342D02*
X76714285Y-80549104D01*
X76714285Y-80549104D02*
X76666666Y-80453866D01*
X76666666Y-80453866D02*
X76619047Y-80406247D01*
X76619047Y-80406247D02*
X76523809Y-80358628D01*
X76523809Y-80358628D02*
X76333333Y-80311009D01*
X76333333Y-80311009D02*
X76238095Y-80263390D01*
X76238095Y-80263390D02*
X76190476Y-80215771D01*
X76190476Y-80215771D02*
X76142857Y-80120533D01*
X76142857Y-80120533D02*
X76142857Y-80025295D01*
X76142857Y-80025295D02*
X76190476Y-79930057D01*
X76190476Y-79930057D02*
X76238095Y-79882438D01*
X76238095Y-79882438D02*
X76333333Y-79834819D01*
X76333333Y-79834819D02*
X76571428Y-79834819D01*
X76571428Y-79834819D02*
X76714285Y-79882438D01*
X77666666Y-80834819D02*
X77095238Y-80834819D01*
X77380952Y-80834819D02*
X77380952Y-79834819D01*
X77380952Y-79834819D02*
X77285714Y-79977676D01*
X77285714Y-79977676D02*
X77190476Y-80072914D01*
X77190476Y-80072914D02*
X77095238Y-80120533D01*
X134333333Y-93039580D02*
X134285714Y-93087200D01*
X134285714Y-93087200D02*
X134142857Y-93134819D01*
X134142857Y-93134819D02*
X134047619Y-93134819D01*
X134047619Y-93134819D02*
X133904762Y-93087200D01*
X133904762Y-93087200D02*
X133809524Y-92991961D01*
X133809524Y-92991961D02*
X133761905Y-92896723D01*
X133761905Y-92896723D02*
X133714286Y-92706247D01*
X133714286Y-92706247D02*
X133714286Y-92563390D01*
X133714286Y-92563390D02*
X133761905Y-92372914D01*
X133761905Y-92372914D02*
X133809524Y-92277676D01*
X133809524Y-92277676D02*
X133904762Y-92182438D01*
X133904762Y-92182438D02*
X134047619Y-92134819D01*
X134047619Y-92134819D02*
X134142857Y-92134819D01*
X134142857Y-92134819D02*
X134285714Y-92182438D01*
X134285714Y-92182438D02*
X134333333Y-92230057D01*
X134666667Y-92134819D02*
X135285714Y-92134819D01*
X135285714Y-92134819D02*
X134952381Y-92515771D01*
X134952381Y-92515771D02*
X135095238Y-92515771D01*
X135095238Y-92515771D02*
X135190476Y-92563390D01*
X135190476Y-92563390D02*
X135238095Y-92611009D01*
X135238095Y-92611009D02*
X135285714Y-92706247D01*
X135285714Y-92706247D02*
X135285714Y-92944342D01*
X135285714Y-92944342D02*
X135238095Y-93039580D01*
X135238095Y-93039580D02*
X135190476Y-93087200D01*
X135190476Y-93087200D02*
X135095238Y-93134819D01*
X135095238Y-93134819D02*
X134809524Y-93134819D01*
X134809524Y-93134819D02*
X134714286Y-93087200D01*
X134714286Y-93087200D02*
X134666667Y-93039580D01*
X134333333Y-81039580D02*
X134285714Y-81087200D01*
X134285714Y-81087200D02*
X134142857Y-81134819D01*
X134142857Y-81134819D02*
X134047619Y-81134819D01*
X134047619Y-81134819D02*
X133904762Y-81087200D01*
X133904762Y-81087200D02*
X133809524Y-80991961D01*
X133809524Y-80991961D02*
X133761905Y-80896723D01*
X133761905Y-80896723D02*
X133714286Y-80706247D01*
X133714286Y-80706247D02*
X133714286Y-80563390D01*
X133714286Y-80563390D02*
X133761905Y-80372914D01*
X133761905Y-80372914D02*
X133809524Y-80277676D01*
X133809524Y-80277676D02*
X133904762Y-80182438D01*
X133904762Y-80182438D02*
X134047619Y-80134819D01*
X134047619Y-80134819D02*
X134142857Y-80134819D01*
X134142857Y-80134819D02*
X134285714Y-80182438D01*
X134285714Y-80182438D02*
X134333333Y-80230057D01*
X135190476Y-80468152D02*
X135190476Y-81134819D01*
X134952381Y-80087200D02*
X134714286Y-80801485D01*
X134714286Y-80801485D02*
X135333333Y-80801485D01*
X119261905Y-98954819D02*
X119261905Y-97954819D01*
X119261905Y-97954819D02*
X119500000Y-97954819D01*
X119500000Y-97954819D02*
X119642857Y-98002438D01*
X119642857Y-98002438D02*
X119738095Y-98097676D01*
X119738095Y-98097676D02*
X119785714Y-98192914D01*
X119785714Y-98192914D02*
X119833333Y-98383390D01*
X119833333Y-98383390D02*
X119833333Y-98526247D01*
X119833333Y-98526247D02*
X119785714Y-98716723D01*
X119785714Y-98716723D02*
X119738095Y-98811961D01*
X119738095Y-98811961D02*
X119642857Y-98907200D01*
X119642857Y-98907200D02*
X119500000Y-98954819D01*
X119500000Y-98954819D02*
X119261905Y-98954819D01*
X120785714Y-98954819D02*
X120214286Y-98954819D01*
X120500000Y-98954819D02*
X120500000Y-97954819D01*
X120500000Y-97954819D02*
X120404762Y-98097676D01*
X120404762Y-98097676D02*
X120309524Y-98192914D01*
X120309524Y-98192914D02*
X120214286Y-98240533D01*
X123771428Y-96237704D02*
X124228571Y-96237704D01*
X123999999Y-96237704D02*
X123999999Y-97037704D01*
X123999999Y-97037704D02*
X124076190Y-96923419D01*
X124076190Y-96923419D02*
X124152380Y-96847228D01*
X124152380Y-96847228D02*
X124228571Y-96809133D01*
X178811009Y-85785714D02*
X178858628Y-85642857D01*
X178858628Y-85642857D02*
X178906247Y-85595238D01*
X178906247Y-85595238D02*
X179001485Y-85547619D01*
X179001485Y-85547619D02*
X179144342Y-85547619D01*
X179144342Y-85547619D02*
X179239580Y-85595238D01*
X179239580Y-85595238D02*
X179287200Y-85642857D01*
X179287200Y-85642857D02*
X179334819Y-85738095D01*
X179334819Y-85738095D02*
X179334819Y-86119047D01*
X179334819Y-86119047D02*
X178334819Y-86119047D01*
X178334819Y-86119047D02*
X178334819Y-85785714D01*
X178334819Y-85785714D02*
X178382438Y-85690476D01*
X178382438Y-85690476D02*
X178430057Y-85642857D01*
X178430057Y-85642857D02*
X178525295Y-85595238D01*
X178525295Y-85595238D02*
X178620533Y-85595238D01*
X178620533Y-85595238D02*
X178715771Y-85642857D01*
X178715771Y-85642857D02*
X178763390Y-85690476D01*
X178763390Y-85690476D02*
X178811009Y-85785714D01*
X178811009Y-85785714D02*
X178811009Y-86119047D01*
X178334819Y-85261904D02*
X178334819Y-84690476D01*
X179334819Y-84976190D02*
X178334819Y-84976190D01*
X179334819Y-83833333D02*
X179334819Y-84404761D01*
X179334819Y-84119047D02*
X178334819Y-84119047D01*
X178334819Y-84119047D02*
X178477676Y-84214285D01*
X178477676Y-84214285D02*
X178572914Y-84309523D01*
X178572914Y-84309523D02*
X178620533Y-84404761D01*
X188604819Y-92166666D02*
X188128628Y-92499999D01*
X188604819Y-92738094D02*
X187604819Y-92738094D01*
X187604819Y-92738094D02*
X187604819Y-92357142D01*
X187604819Y-92357142D02*
X187652438Y-92261904D01*
X187652438Y-92261904D02*
X187700057Y-92214285D01*
X187700057Y-92214285D02*
X187795295Y-92166666D01*
X187795295Y-92166666D02*
X187938152Y-92166666D01*
X187938152Y-92166666D02*
X188033390Y-92214285D01*
X188033390Y-92214285D02*
X188081009Y-92261904D01*
X188081009Y-92261904D02*
X188128628Y-92357142D01*
X188128628Y-92357142D02*
X188128628Y-92738094D01*
X188604819Y-91214285D02*
X188604819Y-91785713D01*
X188604819Y-91499999D02*
X187604819Y-91499999D01*
X187604819Y-91499999D02*
X187747676Y-91595237D01*
X187747676Y-91595237D02*
X187842914Y-91690475D01*
X187842914Y-91690475D02*
X187890533Y-91785713D01*
X93261905Y-87154819D02*
X93261905Y-87964342D01*
X93261905Y-87964342D02*
X93309524Y-88059580D01*
X93309524Y-88059580D02*
X93357143Y-88107200D01*
X93357143Y-88107200D02*
X93452381Y-88154819D01*
X93452381Y-88154819D02*
X93642857Y-88154819D01*
X93642857Y-88154819D02*
X93738095Y-88107200D01*
X93738095Y-88107200D02*
X93785714Y-88059580D01*
X93785714Y-88059580D02*
X93833333Y-87964342D01*
X93833333Y-87964342D02*
X93833333Y-87154819D01*
X94833333Y-88154819D02*
X94261905Y-88154819D01*
X94547619Y-88154819D02*
X94547619Y-87154819D01*
X94547619Y-87154819D02*
X94452381Y-87297676D01*
X94452381Y-87297676D02*
X94357143Y-87392914D01*
X94357143Y-87392914D02*
X94261905Y-87440533D01*
X95166667Y-87154819D02*
X95785714Y-87154819D01*
X95785714Y-87154819D02*
X95452381Y-87535771D01*
X95452381Y-87535771D02*
X95595238Y-87535771D01*
X95595238Y-87535771D02*
X95690476Y-87583390D01*
X95690476Y-87583390D02*
X95738095Y-87631009D01*
X95738095Y-87631009D02*
X95785714Y-87726247D01*
X95785714Y-87726247D02*
X95785714Y-87964342D01*
X95785714Y-87964342D02*
X95738095Y-88059580D01*
X95738095Y-88059580D02*
X95690476Y-88107200D01*
X95690476Y-88107200D02*
X95595238Y-88154819D01*
X95595238Y-88154819D02*
X95309524Y-88154819D01*
X95309524Y-88154819D02*
X95214286Y-88107200D01*
X95214286Y-88107200D02*
X95166667Y-88059580D01*
%TO.C,C1*%
D12*
X181761252Y-84265000D02*
X181238748Y-84265000D01*
X181761252Y-85735000D02*
X181238748Y-85735000D01*
%TO.C,R10*%
X86727064Y-90265000D02*
X86272936Y-90265000D01*
X86727064Y-91735000D02*
X86272936Y-91735000D01*
%TO.C,R3*%
X185765000Y-77772936D02*
X185765000Y-78227064D01*
X187235000Y-77772936D02*
X187235000Y-78227064D01*
%TO.C,R14*%
X128727064Y-88265000D02*
X128272936Y-88265000D01*
X128727064Y-89735000D02*
X128272936Y-89735000D01*
%TO.C,SW2*%
X101350000Y-87550000D02*
X107650000Y-87550000D01*
X101350000Y-87800000D02*
X101350000Y-87550000D01*
X101350000Y-92300000D02*
X101350000Y-89700000D01*
X101350000Y-94450000D02*
X101350000Y-94200000D01*
X107650000Y-87550000D02*
X107650000Y-87800000D01*
X107650000Y-89700000D02*
X107650000Y-92300000D01*
X107650000Y-94200000D02*
X107650000Y-94450000D01*
X107650000Y-94450000D02*
X101350000Y-94450000D01*
%TO.C,U14*%
X107500000Y-83620000D02*
X107500000Y-86380000D01*
X115230000Y-83620000D02*
X107500000Y-83620000D01*
X115230000Y-83620000D02*
X115230000Y-86380000D01*
X115230000Y-86380000D02*
X107500000Y-86380000D01*
X116500000Y-83620000D02*
X117880000Y-83620000D01*
X117880000Y-83620000D02*
X117880000Y-85000000D01*
%TO.C,J2*%
X97120000Y-94230000D02*
X97120000Y-89040000D01*
X99880000Y-89040000D02*
X97120000Y-89040000D01*
X99880000Y-94230000D02*
X97120000Y-94230000D01*
X99880000Y-94230000D02*
X99880000Y-89040000D01*
X99880000Y-95500000D02*
X99880000Y-96880000D01*
X99880000Y-96880000D02*
X98500000Y-96880000D01*
%TO.C,SW3*%
X101350000Y-75550000D02*
X107650000Y-75550000D01*
X101350000Y-75800000D02*
X101350000Y-75550000D01*
X101350000Y-80300000D02*
X101350000Y-77700000D01*
X101350000Y-82450000D02*
X101350000Y-82200000D01*
X107650000Y-75550000D02*
X107650000Y-75800000D01*
X107650000Y-77700000D02*
X107650000Y-80300000D01*
X107650000Y-82200000D02*
X107650000Y-82450000D01*
X107650000Y-82450000D02*
X101350000Y-82450000D01*
%TO.C,MK2*%
X61405000Y-83840000D02*
X61405000Y-84682077D01*
X61405000Y-85317923D02*
X61405000Y-86160000D01*
X67690000Y-83840000D02*
X61405000Y-83840000D01*
X67690000Y-83840000D02*
X67690000Y-84333292D01*
X67690000Y-85666708D02*
X67690000Y-86160000D01*
X67690000Y-86160000D02*
X61405000Y-86160000D01*
X68500000Y-83840000D02*
X69310000Y-83840000D01*
X69310000Y-83840000D02*
X69310000Y-85000000D01*
%TO.C,J1*%
X203830000Y-85100000D02*
X203830000Y-86800000D01*
X213170000Y-85100000D02*
X213170000Y-86800000D01*
%TO.C,U12*%
X74890000Y-87390000D02*
X75365000Y-87390000D01*
X74890000Y-87865000D02*
X74890000Y-87390000D01*
X74890000Y-90610000D02*
X74890000Y-90135000D01*
X75365000Y-90610000D02*
X74890000Y-90610000D01*
X77635000Y-87390000D02*
X78110000Y-87390000D01*
X78110000Y-87390000D02*
X78110000Y-87865000D01*
X78110000Y-90135000D02*
X78110000Y-90610000D01*
X78110000Y-90610000D02*
X77635000Y-90610000D01*
X78640000Y-89750000D02*
X78970000Y-89510000D01*
X78970000Y-89990000D01*
X78640000Y-89750000D01*
G36*
X78970000Y-89990000D02*
G01*
X78640000Y-89750000D01*
X78970000Y-89510000D01*
X78970000Y-89990000D01*
G37*
%TO.C,R2*%
X183265000Y-91772936D02*
X183265000Y-92227064D01*
X184735000Y-91772936D02*
X184735000Y-92227064D01*
%TO.C,U2*%
X193590000Y-78440000D02*
X195410000Y-78440000D01*
X193590000Y-78490000D02*
X193590000Y-78440000D01*
X193590000Y-80390000D02*
X193590000Y-79610000D01*
X193590000Y-81560000D02*
X193590000Y-81510000D01*
X195410000Y-78440000D02*
X195410000Y-78490000D01*
X195410000Y-81510000D02*
X195410000Y-81560000D01*
X195410000Y-81560000D02*
X193590000Y-81560000D01*
X195950000Y-81510000D02*
X196190000Y-81840000D01*
X195710000Y-81840000D01*
X195950000Y-81510000D01*
G36*
X196190000Y-81840000D02*
G01*
X195710000Y-81840000D01*
X195950000Y-81510000D01*
X196190000Y-81840000D01*
G37*
%TO.C,U9*%
X145300000Y-72050000D02*
X145300000Y-73050000D01*
X145300000Y-72050000D02*
X146800000Y-72050000D01*
X145300000Y-97900000D02*
X145300000Y-91700000D01*
X163700000Y-72050000D02*
X162200000Y-72050000D01*
X163700000Y-73050000D02*
X163700000Y-72050000D01*
X163700000Y-97900000D02*
X145300000Y-97900000D01*
X163700000Y-97900000D02*
X163700000Y-91700000D01*
X163700000Y-91025000D02*
X164200000Y-91025000D01*
X163700000Y-91525000D01*
X163700000Y-91025000D01*
G36*
X163700000Y-91525000D02*
G01*
X163700000Y-91025000D01*
X164200000Y-91025000D01*
X163700000Y-91525000D01*
G37*
%TO.C,R13*%
X86727064Y-78265000D02*
X86272936Y-78265000D01*
X86727064Y-79735000D02*
X86272936Y-79735000D01*
%TO.C,U1*%
X193590000Y-88440000D02*
X195410000Y-88440000D01*
X193590000Y-88490000D02*
X193590000Y-88440000D01*
X193590000Y-90390000D02*
X193590000Y-89610000D01*
X193590000Y-91560000D02*
X193590000Y-91510000D01*
X195410000Y-88440000D02*
X195410000Y-88490000D01*
X195410000Y-91510000D02*
X195410000Y-91560000D01*
X195410000Y-91560000D02*
X193590000Y-91560000D01*
X195950000Y-91510000D02*
X196190000Y-91840000D01*
X195710000Y-91840000D01*
X195950000Y-91510000D01*
G36*
X196190000Y-91840000D02*
G01*
X195710000Y-91840000D01*
X195950000Y-91510000D01*
X196190000Y-91840000D01*
G37*
%TO.C,R15*%
X128727064Y-80265000D02*
X128272936Y-80265000D01*
X128727064Y-81735000D02*
X128272936Y-81735000D01*
%TO.C,LS1*%
X75120000Y-76730000D02*
X75120000Y-74080000D01*
X77880000Y-74080000D02*
X75120000Y-74080000D01*
X77880000Y-76730000D02*
X75120000Y-76730000D01*
X77880000Y-76730000D02*
X77880000Y-74080000D01*
X77880000Y-78000000D02*
X77880000Y-79380000D01*
X77880000Y-79380000D02*
X76500000Y-79380000D01*
%TO.C,C3*%
X134761252Y-90265000D02*
X134238748Y-90265000D01*
X134761252Y-91735000D02*
X134238748Y-91735000D01*
%TO.C,C4*%
X134761252Y-78265000D02*
X134238748Y-78265000D01*
X134761252Y-79735000D02*
X134238748Y-79735000D01*
%TO.C,D1*%
X116500000Y-92700000D02*
X116500000Y-97750000D01*
X116950000Y-92250000D02*
X116500000Y-92700000D01*
X117300000Y-94100000D02*
X117300000Y-95900000D01*
X122700000Y-94100000D02*
X122700000Y-95900000D01*
X123500000Y-92250000D02*
X116950000Y-92250000D01*
X123500000Y-97750000D02*
X116500000Y-97750000D01*
X123500000Y-97750000D02*
X123500000Y-92250000D01*
%TO.C,BT1*%
X172580000Y-83620000D02*
X172580000Y-86380000D01*
X175230000Y-83620000D02*
X172580000Y-83620000D01*
X175230000Y-83620000D02*
X175230000Y-86380000D01*
X175230000Y-86380000D02*
X172580000Y-86380000D01*
X176500000Y-83620000D02*
X177880000Y-83620000D01*
X177880000Y-83620000D02*
X177880000Y-85000000D01*
%TO.C,R1*%
X185765000Y-91772936D02*
X185765000Y-92227064D01*
X187235000Y-91772936D02*
X187235000Y-92227064D01*
%TO.C,U13*%
X92550000Y-83300000D02*
X93300000Y-83300000D01*
X92550000Y-84000000D02*
X92550000Y-83300000D01*
X92550000Y-86700000D02*
X92550000Y-86000000D01*
X93300000Y-86700000D02*
X92550000Y-86700000D01*
X95700000Y-83300000D02*
X96450000Y-83300000D01*
X95700000Y-86700000D02*
X96250000Y-86700000D01*
X96450000Y-83300000D02*
X96450000Y-84000000D01*
X96450000Y-86500000D02*
X96450000Y-86000000D01*
D10*
X96450000Y-86700000D02*
X96810000Y-86700000D01*
X96450000Y-87060000D01*
X96450000Y-86700000D01*
G36*
X96450000Y-87060000D02*
G01*
X96450000Y-86700000D01*
X96810000Y-86700000D01*
X96450000Y-87060000D01*
G37*
%TD*%
%LPC*%
D13*
%TO.C,C1*%
X182450000Y-85000000D03*
X180550000Y-85000000D03*
%TD*%
D14*
%TO.C,R10*%
X87412500Y-91000000D03*
X85587500Y-91000000D03*
%TD*%
D15*
%TO.C,R3*%
X186500000Y-77087500D03*
X186500000Y-78912500D03*
%TD*%
D14*
%TO.C,R14*%
X129412500Y-89000000D03*
X127587500Y-89000000D03*
%TD*%
D16*
%TO.C,SW2*%
X108475000Y-93250000D03*
X100525000Y-93250000D03*
X108475000Y-88750000D03*
X100525000Y-88750000D03*
%TD*%
D17*
%TO.C,U14*%
X116500000Y-85000000D03*
D18*
X113960000Y-85000000D03*
X111420000Y-85000000D03*
X108880000Y-85000000D03*
%TD*%
D17*
%TO.C,J2*%
X98500000Y-95500000D03*
D18*
X98500000Y-92960000D03*
X98500000Y-90420000D03*
%TD*%
D16*
%TO.C,SW3*%
X108475000Y-81250000D03*
X100525000Y-81250000D03*
X108475000Y-76750000D03*
X100525000Y-76750000D03*
%TD*%
D19*
%TO.C,MK2*%
X68500000Y-85000000D03*
D20*
X67230000Y-85000000D03*
X65960000Y-85000000D03*
X64690000Y-85000000D03*
X63420000Y-85000000D03*
X62150000Y-85000000D03*
%TD*%
D21*
%TO.C,J1*%
X211390000Y-87605000D03*
X205610000Y-87605000D03*
D22*
X211700000Y-88680000D03*
X210900000Y-88680000D03*
D23*
X209750000Y-88680000D03*
X208750000Y-88680000D03*
X208250000Y-88680000D03*
X207250000Y-88680000D03*
D22*
X206100000Y-88680000D03*
X205300000Y-88680000D03*
X205300000Y-88680000D03*
X206100000Y-88680000D03*
D23*
X206750000Y-88680000D03*
X207750000Y-88680000D03*
X209250000Y-88680000D03*
X210250000Y-88680000D03*
D22*
X210900000Y-88680000D03*
X211700000Y-88680000D03*
D24*
X212820000Y-88105000D03*
D25*
X212820000Y-83925000D03*
D24*
X204180000Y-88105000D03*
D25*
X204180000Y-83925000D03*
%TD*%
D26*
%TO.C,U12*%
X77962500Y-89750000D03*
X77962500Y-89250000D03*
X77962500Y-88750000D03*
X77962500Y-88250000D03*
D27*
X77250000Y-87537500D03*
X76750000Y-87537500D03*
X76250000Y-87537500D03*
X75750000Y-87537500D03*
D26*
X75037500Y-88250000D03*
X75037500Y-88750000D03*
X75037500Y-89250000D03*
X75037500Y-89750000D03*
D27*
X75750000Y-90462500D03*
X76250000Y-90462500D03*
X76750000Y-90462500D03*
X77250000Y-90462500D03*
D17*
X76500000Y-89000000D03*
%TD*%
D15*
%TO.C,R2*%
X184000000Y-91087500D03*
X184000000Y-92912500D03*
%TD*%
D28*
%TO.C,U2*%
X195637500Y-80950000D03*
X195637500Y-80000000D03*
X195637500Y-79050000D03*
X193362500Y-79050000D03*
X193362500Y-80950000D03*
%TD*%
D29*
%TO.C,U9*%
X163250000Y-90260000D03*
X163250000Y-88990000D03*
X163250000Y-87720000D03*
X163250000Y-86450000D03*
X163250000Y-85180000D03*
X163250000Y-83910000D03*
X163250000Y-82640000D03*
X163250000Y-81370000D03*
X163250000Y-80100000D03*
X163250000Y-78830000D03*
X163250000Y-77560000D03*
X163250000Y-76290000D03*
X163250000Y-75020000D03*
X163250000Y-73750000D03*
D30*
X161485000Y-72500000D03*
X160215000Y-72500000D03*
X158945000Y-72500000D03*
X157675000Y-72500000D03*
X156405000Y-72500000D03*
X155135000Y-72500000D03*
X153865000Y-72500000D03*
X152595000Y-72500000D03*
X151325000Y-72500000D03*
X150055000Y-72500000D03*
X148785000Y-72500000D03*
X147515000Y-72500000D03*
D29*
X145750000Y-73750000D03*
X145750000Y-75020000D03*
X145750000Y-76290000D03*
X145750000Y-77560000D03*
X145750000Y-78830000D03*
X145750000Y-80100000D03*
X145750000Y-81370000D03*
X145750000Y-82640000D03*
X145750000Y-83910000D03*
X145750000Y-85180000D03*
X145750000Y-86450000D03*
X145750000Y-87720000D03*
X145750000Y-88990000D03*
X145750000Y-90260000D03*
D31*
X157400000Y-83240000D03*
X157400000Y-81840000D03*
X156700000Y-83940000D03*
X156700000Y-82540000D03*
X156700000Y-81140000D03*
X156000000Y-83240000D03*
D32*
X156000000Y-82540000D03*
D31*
X156000000Y-81840000D03*
X155300000Y-83940000D03*
X155300000Y-82540000D03*
X155300000Y-81140000D03*
X154600000Y-83240000D03*
X154600000Y-81840000D03*
%TD*%
D14*
%TO.C,R13*%
X87412500Y-79000000D03*
X85587500Y-79000000D03*
%TD*%
D28*
%TO.C,U1*%
X195637500Y-90950000D03*
X195637500Y-90000000D03*
X195637500Y-89050000D03*
X193362500Y-89050000D03*
X193362500Y-90950000D03*
%TD*%
D14*
%TO.C,R15*%
X129412500Y-81000000D03*
X127587500Y-81000000D03*
%TD*%
D17*
%TO.C,LS1*%
X76500000Y-78000000D03*
D18*
X76500000Y-75460000D03*
%TD*%
D13*
%TO.C,C3*%
X135450000Y-91000000D03*
X133550000Y-91000000D03*
%TD*%
%TO.C,C4*%
X135450000Y-79000000D03*
X133550000Y-79000000D03*
%TD*%
D33*
%TO.C,D1*%
X122450000Y-96650000D03*
X122450000Y-93350000D03*
X117550000Y-93350000D03*
X117550000Y-96650000D03*
%TD*%
D17*
%TO.C,BT1*%
X176500000Y-85000000D03*
D18*
X173960000Y-85000000D03*
%TD*%
D15*
%TO.C,R1*%
X186500000Y-91087500D03*
X186500000Y-92912500D03*
%TD*%
D34*
%TO.C,U13*%
X96005000Y-86225000D03*
D35*
X95975000Y-85645000D03*
X95975000Y-85215000D03*
X95975000Y-84785000D03*
X95975000Y-84355000D03*
D34*
X96005000Y-83775000D03*
X95575000Y-83775000D03*
X95145000Y-83775000D03*
X94715000Y-83775000D03*
X94285000Y-83775000D03*
X93855000Y-83775000D03*
X93425000Y-83775000D03*
X92995000Y-83775000D03*
D35*
X93025000Y-84355000D03*
X93025000Y-84785000D03*
X93025000Y-85215000D03*
X93025000Y-85645000D03*
D34*
X92995000Y-86225000D03*
X93425000Y-86225000D03*
X93855000Y-86225000D03*
X94285000Y-86225000D03*
X94715000Y-86225000D03*
X95145000Y-86225000D03*
X95575000Y-86225000D03*
%TD*%
%LPD*%
M02*
