%TF.GenerationSoftware,KiCad,Pcbnew,10.0.5*%
%TF.CreationDate,2026-08-03T15:41:09-04:00*%
%TF.ProjectId,wazza,77617a7a-612e-46b6-9963-61645f706362,rev?*%
%TF.SameCoordinates,Original*%
%TF.FileFunction,Profile,NP*%
%FSLAX46Y46*%
G04 Gerber Fmt 4.6, Leading zero omitted, Abs format (unit mm)*
G04 Created by KiCad (PCBNEW 10.0.5) date 2026-08-03 15:41:09*
%MOMM*%
%LPD*%
G01*
G04 APERTURE LIST*
%TA.AperFunction,Profile*%
%ADD10C,0.100000*%
%TD*%
G04 APERTURE END LIST*
D10*
X0Y-3000000D02*
X25665Y-2608421D01*
X0Y-23000000D02*
X0Y-3000000D01*
X25665Y-2608421D02*
X102222Y-2223542D01*
X25665Y-23391578D02*
X0Y-23000000D01*
X102222Y-2223542D02*
X228361Y-1851949D01*
X102222Y-23776457D02*
X25665Y-23391578D01*
X228361Y-1851949D02*
X401923Y-1499999D01*
X228361Y-24148050D02*
X102222Y-23776457D01*
X401923Y-1499999D02*
X619939Y-1173715D01*
X401923Y-24500000D02*
X228361Y-24148050D01*
X619939Y-1173715D02*
X878679Y-878679D01*
X619939Y-24826284D02*
X401923Y-24500000D01*
X878679Y-878679D02*
X1173715Y-619939D01*
X878679Y-25121320D02*
X619939Y-24826284D01*
X1173715Y-619939D02*
X1499999Y-401923D01*
X1173715Y-25380060D02*
X878679Y-25121320D01*
X1499999Y-401923D02*
X1851949Y-228361D01*
X1500000Y-25598076D02*
X1173715Y-25380060D01*
X1851949Y-228361D02*
X2223542Y-102222D01*
X1851949Y-25771638D02*
X1500000Y-25598076D01*
X2223542Y-102222D02*
X2608421Y-25665D01*
X2223542Y-25897777D02*
X1851949Y-25771638D01*
X2608421Y-25665D02*
X2999999Y0D01*
X2608421Y-25974334D02*
X2223542Y-25897777D01*
X3000000Y0D02*
X152000000Y0D01*
X3000000Y-26000000D02*
X2608421Y-25974334D01*
X152000000Y0D02*
X152391578Y-25665D01*
X152000000Y-26000000D02*
X3000000Y-26000000D01*
X152391578Y-25665D02*
X152776457Y-102222D01*
X152391578Y-25974334D02*
X152000000Y-26000000D01*
X152776457Y-102222D02*
X153148050Y-228361D01*
X152776457Y-25897777D02*
X152391578Y-25974334D01*
X153148050Y-228361D02*
X153500000Y-401923D01*
X153148050Y-25771638D02*
X152776457Y-25897777D01*
X153500000Y-401923D02*
X153826284Y-619939D01*
X153500000Y-25598076D02*
X153148050Y-25771638D01*
X153826284Y-619939D02*
X154121320Y-878679D01*
X153826284Y-25380060D02*
X153500000Y-25598076D01*
X154121320Y-878679D02*
X154380060Y-1173715D01*
X154121320Y-25121320D02*
X153826284Y-25380060D01*
X154380060Y-1173715D02*
X154598076Y-1500000D01*
X154380060Y-24826284D02*
X154121320Y-25121320D01*
X154598076Y-1500000D02*
X154771638Y-1851949D01*
X154598076Y-24500000D02*
X154380060Y-24826284D01*
X154771638Y-1851949D02*
X154897777Y-2223542D01*
X154771638Y-24148050D02*
X154598076Y-24500000D01*
X154897777Y-2223542D02*
X154974334Y-2608421D01*
X154897777Y-23776457D02*
X154771638Y-24148050D01*
X154974334Y-2608421D02*
X155000000Y-3000000D01*
X154974334Y-23391578D02*
X154897777Y-23776457D01*
X155000000Y-3000000D02*
X155000000Y-23000000D01*
X155000000Y-23000000D02*
X154974334Y-23391578D01*
M02*
