%TF.GenerationSoftware,KiCad,Pcbnew,10.0.5*%
%TF.CreationDate,2026-08-03T15:41:09-04:00*%
%TF.ProjectId,wazza,77617a7a-612e-46b6-9963-61645f706362,rev?*%
%TF.SameCoordinates,Original*%
%TF.FileFunction,Legend,Top*%
%TF.FilePolarity,Positive*%
%FSLAX46Y46*%
G04 Gerber Fmt 4.6, Leading zero omitted, Abs format (unit mm)*
G04 Created by KiCad (PCBNEW 10.0.5) date 2026-08-03 15:41:09*
%MOMM*%
%LPD*%
G01*
G04 APERTURE LIST*
%ADD10C,0.100000*%
%ADD11C,0.150000*%
%ADD12C,0.120000*%
G04 APERTURE END LIST*
D10*
X83914286Y-2364895D02*
X83914286Y-1831561D01*
X83914286Y-1983942D02*
X83952381Y-1907752D01*
X83952381Y-1907752D02*
X83990476Y-1869657D01*
X83990476Y-1869657D02*
X84066667Y-1831561D01*
X84066667Y-1831561D02*
X84142857Y-1831561D01*
X84714286Y-2326800D02*
X84638095Y-2364895D01*
X84638095Y-2364895D02*
X84485714Y-2364895D01*
X84485714Y-2364895D02*
X84409524Y-2326800D01*
X84409524Y-2326800D02*
X84371428Y-2250609D01*
X84371428Y-2250609D02*
X84371428Y-1945847D01*
X84371428Y-1945847D02*
X84409524Y-1869657D01*
X84409524Y-1869657D02*
X84485714Y-1831561D01*
X84485714Y-1831561D02*
X84638095Y-1831561D01*
X84638095Y-1831561D02*
X84714286Y-1869657D01*
X84714286Y-1869657D02*
X84752381Y-1945847D01*
X84752381Y-1945847D02*
X84752381Y-2022038D01*
X84752381Y-2022038D02*
X84371428Y-2098228D01*
X85019047Y-1831561D02*
X85209523Y-2364895D01*
X85209523Y-2364895D02*
X85400000Y-1831561D01*
X85666666Y-1641085D02*
X85704762Y-1602990D01*
X85704762Y-1602990D02*
X85780952Y-1564895D01*
X85780952Y-1564895D02*
X85971428Y-1564895D01*
X85971428Y-1564895D02*
X86047619Y-1602990D01*
X86047619Y-1602990D02*
X86085714Y-1641085D01*
X86085714Y-1641085D02*
X86123809Y-1717276D01*
X86123809Y-1717276D02*
X86123809Y-1793466D01*
X86123809Y-1793466D02*
X86085714Y-1907752D01*
X86085714Y-1907752D02*
X85628571Y-2364895D01*
X85628571Y-2364895D02*
X86123809Y-2364895D01*
D11*
X67314286Y-1347342D02*
X67600000Y-2547342D01*
X67600000Y-2547342D02*
X67828572Y-1690200D01*
X67828572Y-1690200D02*
X68057143Y-2547342D01*
X68057143Y-2547342D02*
X68342858Y-1347342D01*
X68742858Y-2204485D02*
X69314287Y-2204485D01*
X68628572Y-2547342D02*
X69028572Y-1347342D01*
X69028572Y-1347342D02*
X69428572Y-2547342D01*
X69714286Y-1347342D02*
X70514286Y-1347342D01*
X70514286Y-1347342D02*
X69714286Y-2547342D01*
X69714286Y-2547342D02*
X70514286Y-2547342D01*
X70857143Y-1347342D02*
X71657143Y-1347342D01*
X71657143Y-1347342D02*
X70857143Y-2547342D01*
X70857143Y-2547342D02*
X71657143Y-2547342D01*
X72057143Y-2204485D02*
X72628572Y-2204485D01*
X71942857Y-2547342D02*
X72342857Y-1347342D01*
X72342857Y-1347342D02*
X72742857Y-2547342D01*
X34833333Y-11679580D02*
X34785714Y-11727200D01*
X34785714Y-11727200D02*
X34642857Y-11774819D01*
X34642857Y-11774819D02*
X34547619Y-11774819D01*
X34547619Y-11774819D02*
X34404762Y-11727200D01*
X34404762Y-11727200D02*
X34309524Y-11631961D01*
X34309524Y-11631961D02*
X34261905Y-11536723D01*
X34261905Y-11536723D02*
X34214286Y-11346247D01*
X34214286Y-11346247D02*
X34214286Y-11203390D01*
X34214286Y-11203390D02*
X34261905Y-11012914D01*
X34261905Y-11012914D02*
X34309524Y-10917676D01*
X34309524Y-10917676D02*
X34404762Y-10822438D01*
X34404762Y-10822438D02*
X34547619Y-10774819D01*
X34547619Y-10774819D02*
X34642857Y-10774819D01*
X34642857Y-10774819D02*
X34785714Y-10822438D01*
X34785714Y-10822438D02*
X34833333Y-10870057D01*
X35785714Y-11774819D02*
X35214286Y-11774819D01*
X35500000Y-11774819D02*
X35500000Y-10774819D01*
X35500000Y-10774819D02*
X35404762Y-10917676D01*
X35404762Y-10917676D02*
X35309524Y-11012914D01*
X35309524Y-11012914D02*
X35214286Y-11060533D01*
X129357142Y-5804819D02*
X129023809Y-5328628D01*
X128785714Y-5804819D02*
X128785714Y-4804819D01*
X128785714Y-4804819D02*
X129166666Y-4804819D01*
X129166666Y-4804819D02*
X129261904Y-4852438D01*
X129261904Y-4852438D02*
X129309523Y-4900057D01*
X129309523Y-4900057D02*
X129357142Y-4995295D01*
X129357142Y-4995295D02*
X129357142Y-5138152D01*
X129357142Y-5138152D02*
X129309523Y-5233390D01*
X129309523Y-5233390D02*
X129261904Y-5281009D01*
X129261904Y-5281009D02*
X129166666Y-5328628D01*
X129166666Y-5328628D02*
X128785714Y-5328628D01*
X130309523Y-5804819D02*
X129738095Y-5804819D01*
X130023809Y-5804819D02*
X130023809Y-4804819D01*
X130023809Y-4804819D02*
X129928571Y-4947676D01*
X129928571Y-4947676D02*
X129833333Y-5042914D01*
X129833333Y-5042914D02*
X129738095Y-5090533D01*
X130928571Y-4804819D02*
X131023809Y-4804819D01*
X131023809Y-4804819D02*
X131119047Y-4852438D01*
X131119047Y-4852438D02*
X131166666Y-4900057D01*
X131166666Y-4900057D02*
X131214285Y-4995295D01*
X131214285Y-4995295D02*
X131261904Y-5185771D01*
X131261904Y-5185771D02*
X131261904Y-5423866D01*
X131261904Y-5423866D02*
X131214285Y-5614342D01*
X131214285Y-5614342D02*
X131166666Y-5709580D01*
X131166666Y-5709580D02*
X131119047Y-5757200D01*
X131119047Y-5757200D02*
X131023809Y-5804819D01*
X131023809Y-5804819D02*
X130928571Y-5804819D01*
X130928571Y-5804819D02*
X130833333Y-5757200D01*
X130833333Y-5757200D02*
X130785714Y-5709580D01*
X130785714Y-5709580D02*
X130738095Y-5614342D01*
X130738095Y-5614342D02*
X130690476Y-5423866D01*
X130690476Y-5423866D02*
X130690476Y-5185771D01*
X130690476Y-5185771D02*
X130738095Y-4995295D01*
X130738095Y-4995295D02*
X130785714Y-4900057D01*
X130785714Y-4900057D02*
X130833333Y-4852438D01*
X130833333Y-4852438D02*
X130928571Y-4804819D01*
X28804819Y-20166666D02*
X28328628Y-20499999D01*
X28804819Y-20738094D02*
X27804819Y-20738094D01*
X27804819Y-20738094D02*
X27804819Y-20357142D01*
X27804819Y-20357142D02*
X27852438Y-20261904D01*
X27852438Y-20261904D02*
X27900057Y-20214285D01*
X27900057Y-20214285D02*
X27995295Y-20166666D01*
X27995295Y-20166666D02*
X28138152Y-20166666D01*
X28138152Y-20166666D02*
X28233390Y-20214285D01*
X28233390Y-20214285D02*
X28281009Y-20261904D01*
X28281009Y-20261904D02*
X28328628Y-20357142D01*
X28328628Y-20357142D02*
X28328628Y-20738094D01*
X27804819Y-19833332D02*
X27804819Y-19214285D01*
X27804819Y-19214285D02*
X28185771Y-19547618D01*
X28185771Y-19547618D02*
X28185771Y-19404761D01*
X28185771Y-19404761D02*
X28233390Y-19309523D01*
X28233390Y-19309523D02*
X28281009Y-19261904D01*
X28281009Y-19261904D02*
X28376247Y-19214285D01*
X28376247Y-19214285D02*
X28614342Y-19214285D01*
X28614342Y-19214285D02*
X28709580Y-19261904D01*
X28709580Y-19261904D02*
X28757200Y-19309523D01*
X28757200Y-19309523D02*
X28804819Y-19404761D01*
X28804819Y-19404761D02*
X28804819Y-19690475D01*
X28804819Y-19690475D02*
X28757200Y-19785713D01*
X28757200Y-19785713D02*
X28709580Y-19833332D01*
X87357142Y-7804819D02*
X87023809Y-7328628D01*
X86785714Y-7804819D02*
X86785714Y-6804819D01*
X86785714Y-6804819D02*
X87166666Y-6804819D01*
X87166666Y-6804819D02*
X87261904Y-6852438D01*
X87261904Y-6852438D02*
X87309523Y-6900057D01*
X87309523Y-6900057D02*
X87357142Y-6995295D01*
X87357142Y-6995295D02*
X87357142Y-7138152D01*
X87357142Y-7138152D02*
X87309523Y-7233390D01*
X87309523Y-7233390D02*
X87261904Y-7281009D01*
X87261904Y-7281009D02*
X87166666Y-7328628D01*
X87166666Y-7328628D02*
X86785714Y-7328628D01*
X88309523Y-7804819D02*
X87738095Y-7804819D01*
X88023809Y-7804819D02*
X88023809Y-6804819D01*
X88023809Y-6804819D02*
X87928571Y-6947676D01*
X87928571Y-6947676D02*
X87833333Y-7042914D01*
X87833333Y-7042914D02*
X87738095Y-7090533D01*
X89166666Y-7138152D02*
X89166666Y-7804819D01*
X88928571Y-6757200D02*
X88690476Y-7471485D01*
X88690476Y-7471485D02*
X89309523Y-7471485D01*
X110666667Y-2907200D02*
X110809524Y-2954819D01*
X110809524Y-2954819D02*
X111047619Y-2954819D01*
X111047619Y-2954819D02*
X111142857Y-2907200D01*
X111142857Y-2907200D02*
X111190476Y-2859580D01*
X111190476Y-2859580D02*
X111238095Y-2764342D01*
X111238095Y-2764342D02*
X111238095Y-2669104D01*
X111238095Y-2669104D02*
X111190476Y-2573866D01*
X111190476Y-2573866D02*
X111142857Y-2526247D01*
X111142857Y-2526247D02*
X111047619Y-2478628D01*
X111047619Y-2478628D02*
X110857143Y-2431009D01*
X110857143Y-2431009D02*
X110761905Y-2383390D01*
X110761905Y-2383390D02*
X110714286Y-2335771D01*
X110714286Y-2335771D02*
X110666667Y-2240533D01*
X110666667Y-2240533D02*
X110666667Y-2145295D01*
X110666667Y-2145295D02*
X110714286Y-2050057D01*
X110714286Y-2050057D02*
X110761905Y-2002438D01*
X110761905Y-2002438D02*
X110857143Y-1954819D01*
X110857143Y-1954819D02*
X111095238Y-1954819D01*
X111095238Y-1954819D02*
X111238095Y-2002438D01*
X111571429Y-1954819D02*
X111809524Y-2954819D01*
X111809524Y-2954819D02*
X112000000Y-2240533D01*
X112000000Y-2240533D02*
X112190476Y-2954819D01*
X112190476Y-2954819D02*
X112428572Y-1954819D01*
X112761905Y-2050057D02*
X112809524Y-2002438D01*
X112809524Y-2002438D02*
X112904762Y-1954819D01*
X112904762Y-1954819D02*
X113142857Y-1954819D01*
X113142857Y-1954819D02*
X113238095Y-2002438D01*
X113238095Y-2002438D02*
X113285714Y-2050057D01*
X113285714Y-2050057D02*
X113333333Y-2145295D01*
X113333333Y-2145295D02*
X113333333Y-2240533D01*
X113333333Y-2240533D02*
X113285714Y-2383390D01*
X113285714Y-2383390D02*
X112714286Y-2954819D01*
X112714286Y-2954819D02*
X113333333Y-2954819D01*
X97074819Y-14238094D02*
X97884342Y-14238094D01*
X97884342Y-14238094D02*
X97979580Y-14190475D01*
X97979580Y-14190475D02*
X98027200Y-14142856D01*
X98027200Y-14142856D02*
X98074819Y-14047618D01*
X98074819Y-14047618D02*
X98074819Y-13857142D01*
X98074819Y-13857142D02*
X98027200Y-13761904D01*
X98027200Y-13761904D02*
X97979580Y-13714285D01*
X97979580Y-13714285D02*
X97884342Y-13666666D01*
X97884342Y-13666666D02*
X97074819Y-13666666D01*
X98074819Y-12666666D02*
X98074819Y-13238094D01*
X98074819Y-12952380D02*
X97074819Y-12952380D01*
X97074819Y-12952380D02*
X97217676Y-13047618D01*
X97217676Y-13047618D02*
X97312914Y-13142856D01*
X97312914Y-13142856D02*
X97360533Y-13238094D01*
X97408152Y-11809523D02*
X98074819Y-11809523D01*
X97027200Y-12047618D02*
X97741485Y-12285713D01*
X97741485Y-12285713D02*
X97741485Y-11666666D01*
X117666666Y-574819D02*
X117666666Y-1289104D01*
X117666666Y-1289104D02*
X117619047Y-1431961D01*
X117619047Y-1431961D02*
X117523809Y-1527200D01*
X117523809Y-1527200D02*
X117380952Y-1574819D01*
X117380952Y-1574819D02*
X117285714Y-1574819D01*
X118095238Y-670057D02*
X118142857Y-622438D01*
X118142857Y-622438D02*
X118238095Y-574819D01*
X118238095Y-574819D02*
X118476190Y-574819D01*
X118476190Y-574819D02*
X118571428Y-622438D01*
X118571428Y-622438D02*
X118619047Y-670057D01*
X118619047Y-670057D02*
X118666666Y-765295D01*
X118666666Y-765295D02*
X118666666Y-860533D01*
X118666666Y-860533D02*
X118619047Y-1003390D01*
X118619047Y-1003390D02*
X118047619Y-1574819D01*
X118047619Y-1574819D02*
X118666666Y-1574819D01*
X110666667Y-14907200D02*
X110809524Y-14954819D01*
X110809524Y-14954819D02*
X111047619Y-14954819D01*
X111047619Y-14954819D02*
X111142857Y-14907200D01*
X111142857Y-14907200D02*
X111190476Y-14859580D01*
X111190476Y-14859580D02*
X111238095Y-14764342D01*
X111238095Y-14764342D02*
X111238095Y-14669104D01*
X111238095Y-14669104D02*
X111190476Y-14573866D01*
X111190476Y-14573866D02*
X111142857Y-14526247D01*
X111142857Y-14526247D02*
X111047619Y-14478628D01*
X111047619Y-14478628D02*
X110857143Y-14431009D01*
X110857143Y-14431009D02*
X110761905Y-14383390D01*
X110761905Y-14383390D02*
X110714286Y-14335771D01*
X110714286Y-14335771D02*
X110666667Y-14240533D01*
X110666667Y-14240533D02*
X110666667Y-14145295D01*
X110666667Y-14145295D02*
X110714286Y-14050057D01*
X110714286Y-14050057D02*
X110761905Y-14002438D01*
X110761905Y-14002438D02*
X110857143Y-13954819D01*
X110857143Y-13954819D02*
X111095238Y-13954819D01*
X111095238Y-13954819D02*
X111238095Y-14002438D01*
X111571429Y-13954819D02*
X111809524Y-14954819D01*
X111809524Y-14954819D02*
X112000000Y-14240533D01*
X112000000Y-14240533D02*
X112190476Y-14954819D01*
X112190476Y-14954819D02*
X112428572Y-13954819D01*
X112714286Y-13954819D02*
X113333333Y-13954819D01*
X113333333Y-13954819D02*
X113000000Y-14335771D01*
X113000000Y-14335771D02*
X113142857Y-14335771D01*
X113142857Y-14335771D02*
X113238095Y-14383390D01*
X113238095Y-14383390D02*
X113285714Y-14431009D01*
X113285714Y-14431009D02*
X113333333Y-14526247D01*
X113333333Y-14526247D02*
X113333333Y-14764342D01*
X113333333Y-14764342D02*
X113285714Y-14859580D01*
X113285714Y-14859580D02*
X113238095Y-14907200D01*
X113238095Y-14907200D02*
X113142857Y-14954819D01*
X113142857Y-14954819D02*
X112857143Y-14954819D01*
X112857143Y-14954819D02*
X112761905Y-14907200D01*
X112761905Y-14907200D02*
X112714286Y-14859580D01*
X146709819Y-14309523D02*
X145709819Y-14309523D01*
X145709819Y-14309523D02*
X146424104Y-13976190D01*
X146424104Y-13976190D02*
X145709819Y-13642857D01*
X145709819Y-13642857D02*
X146709819Y-13642857D01*
X146709819Y-13166666D02*
X145709819Y-13166666D01*
X146709819Y-12595238D02*
X146138390Y-13023809D01*
X145709819Y-12595238D02*
X146281247Y-13166666D01*
X145805057Y-12214285D02*
X145757438Y-12166666D01*
X145757438Y-12166666D02*
X145709819Y-12071428D01*
X145709819Y-12071428D02*
X145709819Y-11833333D01*
X145709819Y-11833333D02*
X145757438Y-11738095D01*
X145757438Y-11738095D02*
X145805057Y-11690476D01*
X145805057Y-11690476D02*
X145900295Y-11642857D01*
X145900295Y-11642857D02*
X145995533Y-11642857D01*
X145995533Y-11642857D02*
X146138390Y-11690476D01*
X146138390Y-11690476D02*
X146709819Y-12261904D01*
X146709819Y-12261904D02*
X146709819Y-11642857D01*
X7666666Y-6954819D02*
X7666666Y-7669104D01*
X7666666Y-7669104D02*
X7619047Y-7811961D01*
X7619047Y-7811961D02*
X7523809Y-7907200D01*
X7523809Y-7907200D02*
X7380952Y-7954819D01*
X7380952Y-7954819D02*
X7285714Y-7954819D01*
X8666666Y-7954819D02*
X8095238Y-7954819D01*
X8380952Y-7954819D02*
X8380952Y-6954819D01*
X8380952Y-6954819D02*
X8285714Y-7097676D01*
X8285714Y-7097676D02*
X8190476Y-7192914D01*
X8190476Y-7192914D02*
X8095238Y-7240533D01*
X138761905Y-5624819D02*
X138761905Y-6434342D01*
X138761905Y-6434342D02*
X138809524Y-6529580D01*
X138809524Y-6529580D02*
X138857143Y-6577200D01*
X138857143Y-6577200D02*
X138952381Y-6624819D01*
X138952381Y-6624819D02*
X139142857Y-6624819D01*
X139142857Y-6624819D02*
X139238095Y-6577200D01*
X139238095Y-6577200D02*
X139285714Y-6529580D01*
X139285714Y-6529580D02*
X139333333Y-6434342D01*
X139333333Y-6434342D02*
X139333333Y-5624819D01*
X140333333Y-6624819D02*
X139761905Y-6624819D01*
X140047619Y-6624819D02*
X140047619Y-5624819D01*
X140047619Y-5624819D02*
X139952381Y-5767676D01*
X139952381Y-5767676D02*
X139857143Y-5862914D01*
X139857143Y-5862914D02*
X139761905Y-5910533D01*
X140714286Y-5720057D02*
X140761905Y-5672438D01*
X140761905Y-5672438D02*
X140857143Y-5624819D01*
X140857143Y-5624819D02*
X141095238Y-5624819D01*
X141095238Y-5624819D02*
X141190476Y-5672438D01*
X141190476Y-5672438D02*
X141238095Y-5720057D01*
X141238095Y-5720057D02*
X141285714Y-5815295D01*
X141285714Y-5815295D02*
X141285714Y-5910533D01*
X141285714Y-5910533D02*
X141238095Y-6053390D01*
X141238095Y-6053390D02*
X140666667Y-6624819D01*
X140666667Y-6624819D02*
X141285714Y-6624819D01*
X31304819Y-6166666D02*
X30828628Y-6499999D01*
X31304819Y-6738094D02*
X30304819Y-6738094D01*
X30304819Y-6738094D02*
X30304819Y-6357142D01*
X30304819Y-6357142D02*
X30352438Y-6261904D01*
X30352438Y-6261904D02*
X30400057Y-6214285D01*
X30400057Y-6214285D02*
X30495295Y-6166666D01*
X30495295Y-6166666D02*
X30638152Y-6166666D01*
X30638152Y-6166666D02*
X30733390Y-6214285D01*
X30733390Y-6214285D02*
X30781009Y-6261904D01*
X30781009Y-6261904D02*
X30828628Y-6357142D01*
X30828628Y-6357142D02*
X30828628Y-6738094D01*
X30400057Y-5785713D02*
X30352438Y-5738094D01*
X30352438Y-5738094D02*
X30304819Y-5642856D01*
X30304819Y-5642856D02*
X30304819Y-5404761D01*
X30304819Y-5404761D02*
X30352438Y-5309523D01*
X30352438Y-5309523D02*
X30400057Y-5261904D01*
X30400057Y-5261904D02*
X30495295Y-5214285D01*
X30495295Y-5214285D02*
X30590533Y-5214285D01*
X30590533Y-5214285D02*
X30733390Y-5261904D01*
X30733390Y-5261904D02*
X31304819Y-5833332D01*
X31304819Y-5833332D02*
X31304819Y-5214285D01*
X21238095Y-15054819D02*
X21238095Y-15864342D01*
X21238095Y-15864342D02*
X21285714Y-15959580D01*
X21285714Y-15959580D02*
X21333333Y-16007200D01*
X21333333Y-16007200D02*
X21428571Y-16054819D01*
X21428571Y-16054819D02*
X21619047Y-16054819D01*
X21619047Y-16054819D02*
X21714285Y-16007200D01*
X21714285Y-16007200D02*
X21761904Y-15959580D01*
X21761904Y-15959580D02*
X21809523Y-15864342D01*
X21809523Y-15864342D02*
X21809523Y-15054819D01*
X22238095Y-15150057D02*
X22285714Y-15102438D01*
X22285714Y-15102438D02*
X22380952Y-15054819D01*
X22380952Y-15054819D02*
X22619047Y-15054819D01*
X22619047Y-15054819D02*
X22714285Y-15102438D01*
X22714285Y-15102438D02*
X22761904Y-15150057D01*
X22761904Y-15150057D02*
X22809523Y-15245295D01*
X22809523Y-15245295D02*
X22809523Y-15340533D01*
X22809523Y-15340533D02*
X22761904Y-15483390D01*
X22761904Y-15483390D02*
X22190476Y-16054819D01*
X22190476Y-16054819D02*
X22809523Y-16054819D01*
X50954819Y-25161904D02*
X51764342Y-25161904D01*
X51764342Y-25161904D02*
X51859580Y-25114285D01*
X51859580Y-25114285D02*
X51907200Y-25066666D01*
X51907200Y-25066666D02*
X51954819Y-24971428D01*
X51954819Y-24971428D02*
X51954819Y-24780952D01*
X51954819Y-24780952D02*
X51907200Y-24685714D01*
X51907200Y-24685714D02*
X51859580Y-24638095D01*
X51859580Y-24638095D02*
X51764342Y-24590476D01*
X51764342Y-24590476D02*
X50954819Y-24590476D01*
X51954819Y-24066666D02*
X51954819Y-23876190D01*
X51954819Y-23876190D02*
X51907200Y-23780952D01*
X51907200Y-23780952D02*
X51859580Y-23733333D01*
X51859580Y-23733333D02*
X51716723Y-23638095D01*
X51716723Y-23638095D02*
X51526247Y-23590476D01*
X51526247Y-23590476D02*
X51145295Y-23590476D01*
X51145295Y-23590476D02*
X51050057Y-23638095D01*
X51050057Y-23638095D02*
X51002438Y-23685714D01*
X51002438Y-23685714D02*
X50954819Y-23780952D01*
X50954819Y-23780952D02*
X50954819Y-23971428D01*
X50954819Y-23971428D02*
X51002438Y-24066666D01*
X51002438Y-24066666D02*
X51050057Y-24114285D01*
X51050057Y-24114285D02*
X51145295Y-24161904D01*
X51145295Y-24161904D02*
X51383390Y-24161904D01*
X51383390Y-24161904D02*
X51478628Y-24114285D01*
X51478628Y-24114285D02*
X51526247Y-24066666D01*
X51526247Y-24066666D02*
X51573866Y-23971428D01*
X51573866Y-23971428D02*
X51573866Y-23780952D01*
X51573866Y-23780952D02*
X51526247Y-23685714D01*
X51526247Y-23685714D02*
X51478628Y-23638095D01*
X51478628Y-23638095D02*
X51383390Y-23590476D01*
X129357142Y-17804819D02*
X129023809Y-17328628D01*
X128785714Y-17804819D02*
X128785714Y-16804819D01*
X128785714Y-16804819D02*
X129166666Y-16804819D01*
X129166666Y-16804819D02*
X129261904Y-16852438D01*
X129261904Y-16852438D02*
X129309523Y-16900057D01*
X129309523Y-16900057D02*
X129357142Y-16995295D01*
X129357142Y-16995295D02*
X129357142Y-17138152D01*
X129357142Y-17138152D02*
X129309523Y-17233390D01*
X129309523Y-17233390D02*
X129261904Y-17281009D01*
X129261904Y-17281009D02*
X129166666Y-17328628D01*
X129166666Y-17328628D02*
X128785714Y-17328628D01*
X130309523Y-17804819D02*
X129738095Y-17804819D01*
X130023809Y-17804819D02*
X130023809Y-16804819D01*
X130023809Y-16804819D02*
X129928571Y-16947676D01*
X129928571Y-16947676D02*
X129833333Y-17042914D01*
X129833333Y-17042914D02*
X129738095Y-17090533D01*
X130642857Y-16804819D02*
X131261904Y-16804819D01*
X131261904Y-16804819D02*
X130928571Y-17185771D01*
X130928571Y-17185771D02*
X131071428Y-17185771D01*
X131071428Y-17185771D02*
X131166666Y-17233390D01*
X131166666Y-17233390D02*
X131214285Y-17281009D01*
X131214285Y-17281009D02*
X131261904Y-17376247D01*
X131261904Y-17376247D02*
X131261904Y-17614342D01*
X131261904Y-17614342D02*
X131214285Y-17709580D01*
X131214285Y-17709580D02*
X131166666Y-17757200D01*
X131166666Y-17757200D02*
X131071428Y-17804819D01*
X131071428Y-17804819D02*
X130785714Y-17804819D01*
X130785714Y-17804819D02*
X130690476Y-17757200D01*
X130690476Y-17757200D02*
X130642857Y-17709580D01*
X21238095Y-5054819D02*
X21238095Y-5864342D01*
X21238095Y-5864342D02*
X21285714Y-5959580D01*
X21285714Y-5959580D02*
X21333333Y-6007200D01*
X21333333Y-6007200D02*
X21428571Y-6054819D01*
X21428571Y-6054819D02*
X21619047Y-6054819D01*
X21619047Y-6054819D02*
X21714285Y-6007200D01*
X21714285Y-6007200D02*
X21761904Y-5959580D01*
X21761904Y-5959580D02*
X21809523Y-5864342D01*
X21809523Y-5864342D02*
X21809523Y-5054819D01*
X22809523Y-6054819D02*
X22238095Y-6054819D01*
X22523809Y-6054819D02*
X22523809Y-5054819D01*
X22523809Y-5054819D02*
X22428571Y-5197676D01*
X22428571Y-5197676D02*
X22333333Y-5292914D01*
X22333333Y-5292914D02*
X22238095Y-5340533D01*
X87357142Y-15804819D02*
X87023809Y-15328628D01*
X86785714Y-15804819D02*
X86785714Y-14804819D01*
X86785714Y-14804819D02*
X87166666Y-14804819D01*
X87166666Y-14804819D02*
X87261904Y-14852438D01*
X87261904Y-14852438D02*
X87309523Y-14900057D01*
X87309523Y-14900057D02*
X87357142Y-14995295D01*
X87357142Y-14995295D02*
X87357142Y-15138152D01*
X87357142Y-15138152D02*
X87309523Y-15233390D01*
X87309523Y-15233390D02*
X87261904Y-15281009D01*
X87261904Y-15281009D02*
X87166666Y-15328628D01*
X87166666Y-15328628D02*
X86785714Y-15328628D01*
X88309523Y-15804819D02*
X87738095Y-15804819D01*
X88023809Y-15804819D02*
X88023809Y-14804819D01*
X88023809Y-14804819D02*
X87928571Y-14947676D01*
X87928571Y-14947676D02*
X87833333Y-15042914D01*
X87833333Y-15042914D02*
X87738095Y-15090533D01*
X89214285Y-14804819D02*
X88738095Y-14804819D01*
X88738095Y-14804819D02*
X88690476Y-15281009D01*
X88690476Y-15281009D02*
X88738095Y-15233390D01*
X88738095Y-15233390D02*
X88833333Y-15185771D01*
X88833333Y-15185771D02*
X89071428Y-15185771D01*
X89071428Y-15185771D02*
X89166666Y-15233390D01*
X89166666Y-15233390D02*
X89214285Y-15281009D01*
X89214285Y-15281009D02*
X89261904Y-15376247D01*
X89261904Y-15376247D02*
X89261904Y-15614342D01*
X89261904Y-15614342D02*
X89214285Y-15709580D01*
X89214285Y-15709580D02*
X89166666Y-15757200D01*
X89166666Y-15757200D02*
X89071428Y-15804819D01*
X89071428Y-15804819D02*
X88833333Y-15804819D01*
X88833333Y-15804819D02*
X88738095Y-15757200D01*
X88738095Y-15757200D02*
X88690476Y-15709580D01*
X139357142Y-18074819D02*
X138880952Y-18074819D01*
X138880952Y-18074819D02*
X138880952Y-17074819D01*
X139642857Y-18027200D02*
X139785714Y-18074819D01*
X139785714Y-18074819D02*
X140023809Y-18074819D01*
X140023809Y-18074819D02*
X140119047Y-18027200D01*
X140119047Y-18027200D02*
X140166666Y-17979580D01*
X140166666Y-17979580D02*
X140214285Y-17884342D01*
X140214285Y-17884342D02*
X140214285Y-17789104D01*
X140214285Y-17789104D02*
X140166666Y-17693866D01*
X140166666Y-17693866D02*
X140119047Y-17646247D01*
X140119047Y-17646247D02*
X140023809Y-17598628D01*
X140023809Y-17598628D02*
X139833333Y-17551009D01*
X139833333Y-17551009D02*
X139738095Y-17503390D01*
X139738095Y-17503390D02*
X139690476Y-17455771D01*
X139690476Y-17455771D02*
X139642857Y-17360533D01*
X139642857Y-17360533D02*
X139642857Y-17265295D01*
X139642857Y-17265295D02*
X139690476Y-17170057D01*
X139690476Y-17170057D02*
X139738095Y-17122438D01*
X139738095Y-17122438D02*
X139833333Y-17074819D01*
X139833333Y-17074819D02*
X140071428Y-17074819D01*
X140071428Y-17074819D02*
X140214285Y-17122438D01*
X141166666Y-18074819D02*
X140595238Y-18074819D01*
X140880952Y-18074819D02*
X140880952Y-17074819D01*
X140880952Y-17074819D02*
X140785714Y-17217676D01*
X140785714Y-17217676D02*
X140690476Y-17312914D01*
X140690476Y-17312914D02*
X140595238Y-17360533D01*
X81833333Y-5679580D02*
X81785714Y-5727200D01*
X81785714Y-5727200D02*
X81642857Y-5774819D01*
X81642857Y-5774819D02*
X81547619Y-5774819D01*
X81547619Y-5774819D02*
X81404762Y-5727200D01*
X81404762Y-5727200D02*
X81309524Y-5631961D01*
X81309524Y-5631961D02*
X81261905Y-5536723D01*
X81261905Y-5536723D02*
X81214286Y-5346247D01*
X81214286Y-5346247D02*
X81214286Y-5203390D01*
X81214286Y-5203390D02*
X81261905Y-5012914D01*
X81261905Y-5012914D02*
X81309524Y-4917676D01*
X81309524Y-4917676D02*
X81404762Y-4822438D01*
X81404762Y-4822438D02*
X81547619Y-4774819D01*
X81547619Y-4774819D02*
X81642857Y-4774819D01*
X81642857Y-4774819D02*
X81785714Y-4822438D01*
X81785714Y-4822438D02*
X81833333Y-4870057D01*
X82166667Y-4774819D02*
X82785714Y-4774819D01*
X82785714Y-4774819D02*
X82452381Y-5155771D01*
X82452381Y-5155771D02*
X82595238Y-5155771D01*
X82595238Y-5155771D02*
X82690476Y-5203390D01*
X82690476Y-5203390D02*
X82738095Y-5251009D01*
X82738095Y-5251009D02*
X82785714Y-5346247D01*
X82785714Y-5346247D02*
X82785714Y-5584342D01*
X82785714Y-5584342D02*
X82738095Y-5679580D01*
X82738095Y-5679580D02*
X82690476Y-5727200D01*
X82690476Y-5727200D02*
X82595238Y-5774819D01*
X82595238Y-5774819D02*
X82309524Y-5774819D01*
X82309524Y-5774819D02*
X82214286Y-5727200D01*
X82214286Y-5727200D02*
X82166667Y-5679580D01*
X81833333Y-17679580D02*
X81785714Y-17727200D01*
X81785714Y-17727200D02*
X81642857Y-17774819D01*
X81642857Y-17774819D02*
X81547619Y-17774819D01*
X81547619Y-17774819D02*
X81404762Y-17727200D01*
X81404762Y-17727200D02*
X81309524Y-17631961D01*
X81309524Y-17631961D02*
X81261905Y-17536723D01*
X81261905Y-17536723D02*
X81214286Y-17346247D01*
X81214286Y-17346247D02*
X81214286Y-17203390D01*
X81214286Y-17203390D02*
X81261905Y-17012914D01*
X81261905Y-17012914D02*
X81309524Y-16917676D01*
X81309524Y-16917676D02*
X81404762Y-16822438D01*
X81404762Y-16822438D02*
X81547619Y-16774819D01*
X81547619Y-16774819D02*
X81642857Y-16774819D01*
X81642857Y-16774819D02*
X81785714Y-16822438D01*
X81785714Y-16822438D02*
X81833333Y-16870057D01*
X82690476Y-17108152D02*
X82690476Y-17774819D01*
X82452381Y-16727200D02*
X82214286Y-17441485D01*
X82214286Y-17441485D02*
X82833333Y-17441485D01*
X109261905Y-454819D02*
X109261905Y545180D01*
X109261905Y545180D02*
X109500000Y545180D01*
X109500000Y545180D02*
X109642857Y497561D01*
X109642857Y497561D02*
X109738095Y402323D01*
X109738095Y402323D02*
X109785714Y307085D01*
X109785714Y307085D02*
X109833333Y116609D01*
X109833333Y116609D02*
X109833333Y-26247D01*
X109833333Y-26247D02*
X109785714Y-216723D01*
X109785714Y-216723D02*
X109738095Y-311961D01*
X109738095Y-311961D02*
X109642857Y-407200D01*
X109642857Y-407200D02*
X109500000Y-454819D01*
X109500000Y-454819D02*
X109261905Y-454819D01*
X110785714Y-454819D02*
X110214286Y-454819D01*
X110500000Y-454819D02*
X110500000Y545180D01*
X110500000Y545180D02*
X110404762Y402323D01*
X110404762Y402323D02*
X110309524Y307085D01*
X110309524Y307085D02*
X110214286Y259466D01*
X106228571Y-2262295D02*
X105771428Y-2262295D01*
X106000000Y-2262295D02*
X106000000Y-1462295D01*
X106000000Y-1462295D02*
X105923809Y-1576580D01*
X105923809Y-1576580D02*
X105847619Y-1652771D01*
X105847619Y-1652771D02*
X105771428Y-1690866D01*
X37551009Y-13785714D02*
X37598628Y-13642857D01*
X37598628Y-13642857D02*
X37646247Y-13595238D01*
X37646247Y-13595238D02*
X37741485Y-13547619D01*
X37741485Y-13547619D02*
X37884342Y-13547619D01*
X37884342Y-13547619D02*
X37979580Y-13595238D01*
X37979580Y-13595238D02*
X38027200Y-13642857D01*
X38027200Y-13642857D02*
X38074819Y-13738095D01*
X38074819Y-13738095D02*
X38074819Y-14119047D01*
X38074819Y-14119047D02*
X37074819Y-14119047D01*
X37074819Y-14119047D02*
X37074819Y-13785714D01*
X37074819Y-13785714D02*
X37122438Y-13690476D01*
X37122438Y-13690476D02*
X37170057Y-13642857D01*
X37170057Y-13642857D02*
X37265295Y-13595238D01*
X37265295Y-13595238D02*
X37360533Y-13595238D01*
X37360533Y-13595238D02*
X37455771Y-13642857D01*
X37455771Y-13642857D02*
X37503390Y-13690476D01*
X37503390Y-13690476D02*
X37551009Y-13785714D01*
X37551009Y-13785714D02*
X37551009Y-14119047D01*
X37074819Y-13261904D02*
X37074819Y-12690476D01*
X38074819Y-12976190D02*
X37074819Y-12976190D01*
X38074819Y-11833333D02*
X38074819Y-12404761D01*
X38074819Y-12119047D02*
X37074819Y-12119047D01*
X37074819Y-12119047D02*
X37217676Y-12214285D01*
X37217676Y-12214285D02*
X37312914Y-12309523D01*
X37312914Y-12309523D02*
X37360533Y-12404761D01*
X28804819Y-6166666D02*
X28328628Y-6499999D01*
X28804819Y-6738094D02*
X27804819Y-6738094D01*
X27804819Y-6738094D02*
X27804819Y-6357142D01*
X27804819Y-6357142D02*
X27852438Y-6261904D01*
X27852438Y-6261904D02*
X27900057Y-6214285D01*
X27900057Y-6214285D02*
X27995295Y-6166666D01*
X27995295Y-6166666D02*
X28138152Y-6166666D01*
X28138152Y-6166666D02*
X28233390Y-6214285D01*
X28233390Y-6214285D02*
X28281009Y-6261904D01*
X28281009Y-6261904D02*
X28328628Y-6357142D01*
X28328628Y-6357142D02*
X28328628Y-6738094D01*
X28804819Y-5214285D02*
X28804819Y-5785713D01*
X28804819Y-5499999D02*
X27804819Y-5499999D01*
X27804819Y-5499999D02*
X27947676Y-5595237D01*
X27947676Y-5595237D02*
X28042914Y-5690475D01*
X28042914Y-5690475D02*
X28090533Y-5785713D01*
X120761905Y-9754819D02*
X120761905Y-10564342D01*
X120761905Y-10564342D02*
X120809524Y-10659580D01*
X120809524Y-10659580D02*
X120857143Y-10707200D01*
X120857143Y-10707200D02*
X120952381Y-10754819D01*
X120952381Y-10754819D02*
X121142857Y-10754819D01*
X121142857Y-10754819D02*
X121238095Y-10707200D01*
X121238095Y-10707200D02*
X121285714Y-10659580D01*
X121285714Y-10659580D02*
X121333333Y-10564342D01*
X121333333Y-10564342D02*
X121333333Y-9754819D01*
X122333333Y-10754819D02*
X121761905Y-10754819D01*
X122047619Y-10754819D02*
X122047619Y-9754819D01*
X122047619Y-9754819D02*
X121952381Y-9897676D01*
X121952381Y-9897676D02*
X121857143Y-9992914D01*
X121857143Y-9992914D02*
X121761905Y-10040533D01*
X122666667Y-9754819D02*
X123285714Y-9754819D01*
X123285714Y-9754819D02*
X122952381Y-10135771D01*
X122952381Y-10135771D02*
X123095238Y-10135771D01*
X123095238Y-10135771D02*
X123190476Y-10183390D01*
X123190476Y-10183390D02*
X123238095Y-10231009D01*
X123238095Y-10231009D02*
X123285714Y-10326247D01*
X123285714Y-10326247D02*
X123285714Y-10564342D01*
X123285714Y-10564342D02*
X123238095Y-10659580D01*
X123238095Y-10659580D02*
X123190476Y-10707200D01*
X123190476Y-10707200D02*
X123095238Y-10754819D01*
X123095238Y-10754819D02*
X122809524Y-10754819D01*
X122809524Y-10754819D02*
X122714286Y-10707200D01*
X122714286Y-10707200D02*
X122666667Y-10659580D01*
%TO.C,C1*%
D12*
X34738748Y-12265000D02*
X35261252Y-12265000D01*
X34738748Y-13735000D02*
X35261252Y-13735000D01*
%TO.C,R10*%
X129772936Y-6265000D02*
X130227064Y-6265000D01*
X129772936Y-7735000D02*
X130227064Y-7735000D01*
%TO.C,R3*%
X29265000Y-20227064D02*
X29265000Y-19772936D01*
X30735000Y-20227064D02*
X30735000Y-19772936D01*
%TO.C,R14*%
X87772936Y-8265000D02*
X88227064Y-8265000D01*
X87772936Y-9735000D02*
X88227064Y-9735000D01*
%TO.C,SW2*%
X108850000Y-3550000D02*
X115150000Y-3550000D01*
X108850000Y-3800000D02*
X108850000Y-3550000D01*
X108850000Y-8300000D02*
X108850000Y-5700000D01*
X108850000Y-10450000D02*
X108850000Y-10200000D01*
X115150000Y-3550000D02*
X115150000Y-3800000D01*
X115150000Y-5700000D02*
X115150000Y-8300000D01*
X115150000Y-10200000D02*
X115150000Y-10450000D01*
X115150000Y-10450000D02*
X108850000Y-10450000D01*
%TO.C,U14*%
X98620000Y-14380000D02*
X98620000Y-13000000D01*
X100000000Y-14380000D02*
X98620000Y-14380000D01*
X101270000Y-11620000D02*
X109000000Y-11620000D01*
X101270000Y-14380000D02*
X101270000Y-11620000D01*
X101270000Y-14380000D02*
X109000000Y-14380000D01*
X109000000Y-14380000D02*
X109000000Y-11620000D01*
%TO.C,J2*%
X116620000Y-2120000D02*
X118000000Y-2120000D01*
X116620000Y-3500000D02*
X116620000Y-2120000D01*
X116620000Y-4770000D02*
X116620000Y-9960000D01*
X116620000Y-4770000D02*
X119380000Y-4770000D01*
X116620000Y-9960000D02*
X119380000Y-9960000D01*
X119380000Y-4770000D02*
X119380000Y-9960000D01*
%TO.C,SW3*%
X108850000Y-15550000D02*
X115150000Y-15550000D01*
X108850000Y-15800000D02*
X108850000Y-15550000D01*
X108850000Y-20300000D02*
X108850000Y-17700000D01*
X108850000Y-22450000D02*
X108850000Y-22200000D01*
X115150000Y-15550000D02*
X115150000Y-15800000D01*
X115150000Y-17700000D02*
X115150000Y-20300000D01*
X115150000Y-22200000D02*
X115150000Y-22450000D01*
X115150000Y-22450000D02*
X108850000Y-22450000D01*
%TO.C,MK2*%
X147190000Y-14160000D02*
X147190000Y-13000000D01*
X148000000Y-14160000D02*
X147190000Y-14160000D01*
X148810000Y-11840000D02*
X155095000Y-11840000D01*
X148810000Y-12333292D02*
X148810000Y-11840000D01*
X148810000Y-14160000D02*
X148810000Y-13666708D01*
X148810000Y-14160000D02*
X155095000Y-14160000D01*
X155095000Y-12682077D02*
X155095000Y-11840000D01*
X155095000Y-14160000D02*
X155095000Y-13317923D01*
%TO.C,J1*%
X3330000Y-12900000D02*
X3330000Y-11200000D01*
X12670000Y-12900000D02*
X12670000Y-11200000D01*
%TO.C,U12*%
X138390000Y-7390000D02*
X138865000Y-7390000D01*
X138390000Y-7865000D02*
X138390000Y-7390000D01*
X138390000Y-10610000D02*
X138390000Y-10135000D01*
X138865000Y-10610000D02*
X138390000Y-10610000D01*
X141135000Y-7390000D02*
X141610000Y-7390000D01*
X141610000Y-7390000D02*
X141610000Y-7865000D01*
X141610000Y-10135000D02*
X141610000Y-10610000D01*
X141610000Y-10610000D02*
X141135000Y-10610000D01*
X137860000Y-8250000D02*
X137530000Y-8490000D01*
X137530000Y-8010000D01*
X137860000Y-8250000D01*
G36*
X137860000Y-8250000D02*
G01*
X137530000Y-8490000D01*
X137530000Y-8010000D01*
X137860000Y-8250000D01*
G37*
%TO.C,R2*%
X31765000Y-6227064D02*
X31765000Y-5772936D01*
X33235000Y-6227064D02*
X33235000Y-5772936D01*
%TO.C,U2*%
X21090000Y-16440000D02*
X22910000Y-16440000D01*
X21090000Y-16490000D02*
X21090000Y-16440000D01*
X21090000Y-19560000D02*
X21090000Y-19510000D01*
X22910000Y-16440000D02*
X22910000Y-16490000D01*
X22910000Y-17610000D02*
X22910000Y-18390000D01*
X22910000Y-19510000D02*
X22910000Y-19560000D01*
X22910000Y-19560000D02*
X21090000Y-19560000D01*
X20550000Y-16490000D02*
X20310000Y-16160000D01*
X20790000Y-16160000D01*
X20550000Y-16490000D01*
G36*
X20550000Y-16490000D02*
G01*
X20310000Y-16160000D01*
X20790000Y-16160000D01*
X20550000Y-16490000D01*
G37*
%TO.C,U9*%
X52800000Y-100000D02*
X52800000Y-6300000D01*
X52800000Y-100000D02*
X71200000Y-100000D01*
X52800000Y-24950000D02*
X52800000Y-25950000D01*
X52800000Y-25950000D02*
X54300000Y-25950000D01*
X71200000Y-100000D02*
X71200000Y-6300000D01*
X71200000Y-25950000D02*
X69700000Y-25950000D01*
X71200000Y-25950000D02*
X71200000Y-24950000D01*
X52800000Y-6975000D02*
X52300000Y-6975000D01*
X52800000Y-6475000D01*
X52800000Y-6975000D01*
G36*
X52800000Y-6975000D02*
G01*
X52300000Y-6975000D01*
X52800000Y-6475000D01*
X52800000Y-6975000D01*
G37*
%TO.C,R13*%
X129772936Y-18265000D02*
X130227064Y-18265000D01*
X129772936Y-19735000D02*
X130227064Y-19735000D01*
%TO.C,U1*%
X21090000Y-6440000D02*
X22910000Y-6440000D01*
X21090000Y-6490000D02*
X21090000Y-6440000D01*
X21090000Y-9560000D02*
X21090000Y-9510000D01*
X22910000Y-6440000D02*
X22910000Y-6490000D01*
X22910000Y-7610000D02*
X22910000Y-8390000D01*
X22910000Y-9510000D02*
X22910000Y-9560000D01*
X22910000Y-9560000D02*
X21090000Y-9560000D01*
X20550000Y-6490000D02*
X20310000Y-6160000D01*
X20790000Y-6160000D01*
X20550000Y-6490000D01*
G36*
X20550000Y-6490000D02*
G01*
X20310000Y-6160000D01*
X20790000Y-6160000D01*
X20550000Y-6490000D01*
G37*
%TO.C,R15*%
X87772936Y-16265000D02*
X88227064Y-16265000D01*
X87772936Y-17735000D02*
X88227064Y-17735000D01*
%TO.C,LS1*%
X138620000Y-18620000D02*
X140000000Y-18620000D01*
X138620000Y-20000000D02*
X138620000Y-18620000D01*
X138620000Y-21270000D02*
X138620000Y-23920000D01*
X138620000Y-21270000D02*
X141380000Y-21270000D01*
X138620000Y-23920000D02*
X141380000Y-23920000D01*
X141380000Y-21270000D02*
X141380000Y-23920000D01*
%TO.C,C3*%
X81738748Y-6265000D02*
X82261252Y-6265000D01*
X81738748Y-7735000D02*
X82261252Y-7735000D01*
%TO.C,C4*%
X81738748Y-18265000D02*
X82261252Y-18265000D01*
X81738748Y-19735000D02*
X82261252Y-19735000D01*
%TO.C,D1*%
X106500000Y-750000D02*
X106500000Y-6250000D01*
X106500000Y-750000D02*
X113500000Y-750000D01*
X106500000Y-6250000D02*
X113050000Y-6250000D01*
X107300000Y-4400000D02*
X107300000Y-2600000D01*
X112700000Y-4400000D02*
X112700000Y-2600000D01*
X113050000Y-6250000D02*
X113500000Y-5800000D01*
X113500000Y-5800000D02*
X113500000Y-750000D01*
%TO.C,BT1*%
X38620000Y-14380000D02*
X38620000Y-13000000D01*
X40000000Y-14380000D02*
X38620000Y-14380000D01*
X41270000Y-11620000D02*
X43920000Y-11620000D01*
X41270000Y-14380000D02*
X41270000Y-11620000D01*
X41270000Y-14380000D02*
X43920000Y-14380000D01*
X43920000Y-14380000D02*
X43920000Y-11620000D01*
%TO.C,R1*%
X29265000Y-6227064D02*
X29265000Y-5772936D01*
X30735000Y-6227064D02*
X30735000Y-5772936D01*
%TO.C,U13*%
X120050000Y-11500000D02*
X120050000Y-12000000D01*
X120050000Y-14700000D02*
X120050000Y-14000000D01*
X120800000Y-11300000D02*
X120250000Y-11300000D01*
X120800000Y-14700000D02*
X120050000Y-14700000D01*
X123200000Y-11300000D02*
X123950000Y-11300000D01*
X123950000Y-11300000D02*
X123950000Y-12000000D01*
X123950000Y-14000000D02*
X123950000Y-14700000D01*
X123950000Y-14700000D02*
X123200000Y-14700000D01*
D10*
X120050000Y-11300000D02*
X119690000Y-11300000D01*
X120050000Y-10940000D01*
X120050000Y-11300000D01*
G36*
X120050000Y-11300000D02*
G01*
X119690000Y-11300000D01*
X120050000Y-10940000D01*
X120050000Y-11300000D01*
G37*
%TD*%
M02*
