%TF.GenerationSoftware,KiCad,Pcbnew,10.0.5*%
%TF.CreationDate,2026-08-03T21:37:27-04:00*%
%TF.ProjectId,wazza,77617a7a-612e-46b6-9963-61645f706362,rev?*%
%TF.SameCoordinates,Original*%
%TF.FileFunction,Copper,L2,Bot*%
%TF.FilePolarity,Positive*%
%FSLAX46Y46*%
G04 Gerber Fmt 4.6, Leading zero omitted, Abs format (unit mm)*
G04 Created by KiCad (PCBNEW 10.0.5) date 2026-08-03 21:37:27*
%MOMM*%
%LPD*%
G01*
G04 APERTURE LIST*
%TA.AperFunction,ComponentPad*%
%ADD10R,1.700000X1.700000*%
%TD*%
%TA.AperFunction,ComponentPad*%
%ADD11C,1.700000*%
%TD*%
%TA.AperFunction,ComponentPad*%
%ADD12R,1.000000X1.000000*%
%TD*%
%TA.AperFunction,ComponentPad*%
%ADD13C,1.000000*%
%TD*%
%TA.AperFunction,ComponentPad*%
%ADD14O,1.000000X2.100000*%
%TD*%
%TA.AperFunction,ComponentPad*%
%ADD15O,1.000000X1.800000*%
%TD*%
%TA.AperFunction,HeatsinkPad*%
%ADD16C,0.600000*%
%TD*%
%TA.AperFunction,ViaPad*%
%ADD17C,0.550000*%
%TD*%
%TA.AperFunction,ViaPad*%
%ADD18C,0.500000*%
%TD*%
%TA.AperFunction,Conductor*%
%ADD19C,0.200000*%
%TD*%
G04 APERTURE END LIST*
D10*
%TO.P,U14,1*%
%TO.N,GND*%
X116500000Y-85000000D03*
D11*
%TO.P,U14,2*%
%TO.N,+3V3*%
X113960000Y-85000000D03*
%TO.P,U14,3*%
%TO.N,SCL*%
X111420000Y-85000000D03*
%TO.P,U14,4*%
%TO.N,SDA*%
X108880000Y-85000000D03*
%TD*%
D10*
%TO.P,J2,1*%
%TO.N,+3V3*%
X98500000Y-95500000D03*
D11*
%TO.P,J2,2*%
%TO.N,/05_LEDs_Buttons/LED_DOUT*%
X98500000Y-92960000D03*
%TO.P,J2,3*%
%TO.N,GND*%
X98500000Y-90420000D03*
%TD*%
D12*
%TO.P,MK2,1*%
%TO.N,I2S_LRCLK*%
X68500000Y-85000000D03*
D13*
%TO.P,MK2,2*%
%TO.N,GND*%
X67230000Y-85000000D03*
%TO.P,MK2,3*%
X65960000Y-85000000D03*
%TO.P,MK2,4*%
%TO.N,I2S_BCLK*%
X64690000Y-85000000D03*
%TO.P,MK2,5*%
%TO.N,+3V3*%
X63420000Y-85000000D03*
%TO.P,MK2,6*%
%TO.N,MIC_DOUT*%
X62150000Y-85000000D03*
%TD*%
D14*
%TO.P,J1,SH*%
%TO.N,GND*%
X212820000Y-88105000D03*
D15*
%TO.N,N/C*%
X212820000Y-83925000D03*
D14*
X204180000Y-88105000D03*
D15*
X204180000Y-83925000D03*
%TD*%
D16*
%TO.P,U9,41*%
%TO.N,N/C*%
X157400000Y-83240000D03*
X157400000Y-81840000D03*
X156700000Y-83940000D03*
X156700000Y-82540000D03*
X156700000Y-81140000D03*
X156000000Y-83240000D03*
X156000000Y-81840000D03*
X155300000Y-83940000D03*
X155300000Y-82540000D03*
X155300000Y-81140000D03*
X154600000Y-83240000D03*
X154600000Y-81840000D03*
%TD*%
D10*
%TO.P,LS1,1*%
%TO.N,Net-(U12-OUTP)*%
X76500000Y-78000000D03*
D11*
%TO.P,LS1,2*%
%TO.N,Net-(U12-OUTN)*%
X76500000Y-75460000D03*
%TD*%
D10*
%TO.P,BT1,1*%
%TO.N,Net-(BT1-+)*%
X176500000Y-85000000D03*
D11*
%TO.P,BT1,2*%
%TO.N,GND*%
X173960000Y-85000000D03*
%TD*%
D17*
%TO.N,BTN_ACTION*%
X100600000Y-90100000D03*
X161050000Y-94600000D03*
X161050000Y-82600000D03*
X100600000Y-93250000D03*
%TO.N,Net-(U1-PROG)*%
X193300000Y-77050000D03*
D18*
X193300000Y-91000000D03*
D17*
%TO.N,SCL*%
X111400000Y-87100000D03*
X144550000Y-87850000D03*
X112150000Y-89050000D03*
X146950000Y-85150000D03*
%TO.N,BTN_BOOT*%
X144700000Y-82150000D03*
X147700000Y-86500000D03*
%TO.N,I2S_LRCLK*%
X146950000Y-80050000D03*
X68500000Y-91300000D03*
X90550000Y-79750000D03*
X144700000Y-80500000D03*
X90550000Y-85000000D03*
%TO.N,I2S_BCLK*%
X146950000Y-78850000D03*
X89800000Y-86800000D03*
X144700000Y-78250000D03*
X89800000Y-78850000D03*
D18*
X77200000Y-90400000D03*
D17*
X77950000Y-86800000D03*
X77950000Y-86050000D03*
%TO.N,MIC_DOUT*%
X144700000Y-76750000D03*
X146950000Y-76300000D03*
X62200000Y-79300000D03*
D18*
%TO.N,Net-(J1-CC1)*%
X209800000Y-88750000D03*
D17*
X209800000Y-92200000D03*
D18*
%TO.N,Net-(J1-CC2)*%
X206800000Y-88750000D03*
D17*
X185350000Y-86650000D03*
X206800000Y-86650000D03*
X185350000Y-91150000D03*
%TO.N,AMP_DIN*%
X143950000Y-82900000D03*
X146950000Y-77500000D03*
X86050000Y-82900000D03*
X86050000Y-89800000D03*
D18*
%TO.N,Net-(U12-OUTP)*%
X76500000Y-76800000D03*
D17*
%TO.N,Net-(U12-OUTN)*%
X74650000Y-75400000D03*
X74650000Y-88750000D03*
%TO.N,LED_DIN*%
X161800000Y-95500000D03*
D18*
X163300000Y-81400000D03*
%TD*%
%TO.N,BTN_ACTION*%
D19*
X161050000Y-94600000D02*
X161050000Y-82600000D01*
X100600000Y-90100000D02*
X100600000Y-93250000D01*
%TO.N,Net-(U1-PROG)*%
X193300000Y-77050000D02*
X193300000Y-91000000D01*
%TO.N,SCL*%
X144550000Y-85150000D02*
X146950000Y-85150000D01*
X111400000Y-87100000D02*
X111400000Y-85000000D01*
X112000000Y-86050000D02*
X112150000Y-86050000D01*
X111850000Y-85750000D02*
X111850000Y-85900000D01*
X112000000Y-85900000D02*
X112000000Y-86050000D01*
X144550000Y-87850000D02*
X144550000Y-85150000D01*
X111850000Y-85900000D02*
X112000000Y-85900000D01*
X111400000Y-85750000D02*
X111850000Y-85750000D01*
X112150000Y-86050000D02*
X112150000Y-89050000D01*
%TO.N,BTN_BOOT*%
X144700000Y-82150000D02*
X144700000Y-84400000D01*
X147250000Y-84400000D02*
X147250000Y-84550000D01*
X147400000Y-84700000D02*
X147550000Y-84700000D01*
X144700000Y-84400000D02*
X147250000Y-84400000D01*
X147550000Y-84700000D02*
X147550000Y-84850000D01*
X147700000Y-84850000D02*
X147700000Y-86500000D01*
X147400000Y-84550000D02*
X147400000Y-84700000D01*
X147250000Y-84550000D02*
X147400000Y-84550000D01*
X147550000Y-84850000D02*
X147700000Y-84850000D01*
%TO.N,I2S_LRCLK*%
X90550000Y-85000000D02*
X90550000Y-79750000D01*
X68500000Y-85000000D02*
X68500000Y-91300000D01*
X144700000Y-80500000D02*
X144700000Y-80050000D01*
X144700000Y-80050000D02*
X146950000Y-80050000D01*
%TO.N,I2S_BCLK*%
X144700000Y-78850000D02*
X146950000Y-78850000D01*
X89800000Y-86800000D02*
X89800000Y-78850000D01*
X77950000Y-86050000D02*
X77950000Y-90400000D01*
X77950000Y-90400000D02*
X77200000Y-90400000D01*
X144700000Y-78250000D02*
X144700000Y-78850000D01*
%TO.N,MIC_DOUT*%
X62200000Y-85000000D02*
X62200000Y-79300000D01*
X144700000Y-76750000D02*
X144700000Y-76300000D01*
X144700000Y-76300000D02*
X146950000Y-76300000D01*
%TO.N,Net-(J1-CC1)*%
X209800000Y-92200000D02*
X209800000Y-88750000D01*
%TO.N,Net-(J1-CC2)*%
X206800000Y-86650000D02*
X206800000Y-88750000D01*
X185350000Y-91150000D02*
X185350000Y-86650000D01*
%TO.N,AMP_DIN*%
X86050000Y-89800000D02*
X86050000Y-82900000D01*
X143950000Y-82900000D02*
X143950000Y-77500000D01*
X143950000Y-77500000D02*
X146950000Y-77500000D01*
%TO.N,Net-(U12-OUTP)*%
X76300000Y-77950000D02*
X76450000Y-77950000D01*
X76500000Y-76800000D02*
X76450000Y-77950000D01*
X76300000Y-87250000D02*
X76300000Y-77950000D01*
X75400000Y-87250000D02*
X76300000Y-87250000D01*
X75400000Y-88300000D02*
X75400000Y-87250000D01*
%TO.N,Net-(U12-OUTN)*%
X74650000Y-88750000D02*
X74650000Y-75400000D01*
%TO.N,LED_DIN*%
X161800000Y-81400000D02*
X163300000Y-81400000D01*
X161800000Y-95500000D02*
X161800000Y-81400000D01*
%TD*%
%TA.AperFunction,Conductor*%
%TO.N,GND*%
G36*
X213486022Y-72500658D02*
G01*
X213821276Y-72522632D01*
X213830872Y-72523895D01*
X214141883Y-72585759D01*
X214151229Y-72588263D01*
X214451515Y-72690197D01*
X214460455Y-72693900D01*
X214744864Y-72834155D01*
X214753247Y-72838995D01*
X214797219Y-72868376D01*
X215016914Y-73015171D01*
X215024584Y-73021056D01*
X215024591Y-73021062D01*
X215263007Y-73230148D01*
X215269851Y-73236992D01*
X215478937Y-73475408D01*
X215484828Y-73483085D01*
X215603044Y-73660008D01*
X215661007Y-73746754D01*
X215665847Y-73755137D01*
X215806098Y-74039541D01*
X215809802Y-74048483D01*
X215911735Y-74348768D01*
X215914240Y-74358118D01*
X215976103Y-74669125D01*
X215977367Y-74678722D01*
X215999342Y-75013974D01*
X215999500Y-75018814D01*
X215999500Y-94981185D01*
X215999342Y-94986025D01*
X215977367Y-95321277D01*
X215976103Y-95330874D01*
X215914240Y-95641881D01*
X215911735Y-95651231D01*
X215809802Y-95951516D01*
X215806098Y-95960458D01*
X215665847Y-96244862D01*
X215661007Y-96253245D01*
X215484830Y-96516911D01*
X215478937Y-96524591D01*
X215269851Y-96763007D01*
X215263007Y-96769851D01*
X215024591Y-96978937D01*
X215016911Y-96984830D01*
X214753245Y-97161007D01*
X214744862Y-97165847D01*
X214460454Y-97306100D01*
X214451512Y-97309804D01*
X214151234Y-97411735D01*
X214141884Y-97414240D01*
X213830874Y-97476103D01*
X213821277Y-97477367D01*
X213486026Y-97499342D01*
X213481186Y-97499500D01*
X178574000Y-97499500D01*
X178521674Y-97477826D01*
X178500000Y-97425500D01*
X178500000Y-92137396D01*
X209324500Y-92137396D01*
X209324500Y-92262603D01*
X209356904Y-92383535D01*
X209402438Y-92462402D01*
X209419505Y-92491964D01*
X209508036Y-92580495D01*
X209616464Y-92643095D01*
X209616463Y-92643095D01*
X209655616Y-92653586D01*
X209737396Y-92675499D01*
X209737397Y-92675500D01*
X209737399Y-92675500D01*
X209862603Y-92675500D01*
X209862603Y-92675499D01*
X209983536Y-92643095D01*
X210091964Y-92580495D01*
X210180495Y-92491964D01*
X210243095Y-92383536D01*
X210275499Y-92262603D01*
X210275500Y-92262603D01*
X210275500Y-92137397D01*
X210275499Y-92137396D01*
X210243095Y-92016464D01*
X210180495Y-91908036D01*
X210122174Y-91849715D01*
X210100500Y-91797389D01*
X210100500Y-89117253D01*
X210122173Y-89064928D01*
X210160489Y-89026613D01*
X210219799Y-88923886D01*
X210250499Y-88809311D01*
X210250500Y-88809311D01*
X210250500Y-88690689D01*
X210250499Y-88690688D01*
X210219800Y-88576117D01*
X210219798Y-88576112D01*
X210160491Y-88473390D01*
X210160490Y-88473389D01*
X210160489Y-88473387D01*
X210076613Y-88389511D01*
X210076610Y-88389509D01*
X210076609Y-88389508D01*
X209973887Y-88330201D01*
X209973882Y-88330199D01*
X209859311Y-88299500D01*
X209859309Y-88299500D01*
X209740691Y-88299500D01*
X209740689Y-88299500D01*
X209626117Y-88330199D01*
X209626112Y-88330201D01*
X209523390Y-88389508D01*
X209439508Y-88473390D01*
X209380201Y-88576112D01*
X209380199Y-88576117D01*
X209349500Y-88690688D01*
X209349500Y-88809311D01*
X209380199Y-88923882D01*
X209380201Y-88923887D01*
X209439508Y-89026609D01*
X209439509Y-89026610D01*
X209439511Y-89026613D01*
X209477826Y-89064928D01*
X209499500Y-89117253D01*
X209499500Y-91797389D01*
X209477826Y-91849715D01*
X209419504Y-91908036D01*
X209356904Y-92016464D01*
X209324500Y-92137396D01*
X178500000Y-92137396D01*
X178500000Y-91750000D01*
X162174500Y-91750000D01*
X162122174Y-91728326D01*
X162100500Y-91676000D01*
X162100500Y-86587396D01*
X184874500Y-86587396D01*
X184874500Y-86712603D01*
X184906904Y-86833535D01*
X184969504Y-86941963D01*
X185027826Y-87000285D01*
X185049500Y-87052611D01*
X185049500Y-90747389D01*
X185027826Y-90799715D01*
X184969504Y-90858036D01*
X184906904Y-90966464D01*
X184874500Y-91087396D01*
X184874500Y-91212603D01*
X184906904Y-91333535D01*
X184956709Y-91419800D01*
X184969505Y-91441964D01*
X185058036Y-91530495D01*
X185166464Y-91593095D01*
X185166463Y-91593095D01*
X185236286Y-91611804D01*
X185287396Y-91625499D01*
X185287397Y-91625500D01*
X185287399Y-91625500D01*
X185412603Y-91625500D01*
X185412603Y-91625499D01*
X185533536Y-91593095D01*
X185641964Y-91530495D01*
X185730495Y-91441964D01*
X185793095Y-91333536D01*
X185825499Y-91212603D01*
X185825500Y-91212603D01*
X185825500Y-91087397D01*
X185825499Y-91087396D01*
X185793095Y-90966464D01*
X185730495Y-90858036D01*
X185672174Y-90799715D01*
X185650500Y-90747389D01*
X185650500Y-87052611D01*
X185672174Y-87000285D01*
X185696960Y-86975499D01*
X185730495Y-86941964D01*
X185793095Y-86833536D01*
X185825499Y-86712603D01*
X185825500Y-86712603D01*
X185825500Y-86587397D01*
X185825499Y-86587396D01*
X185796005Y-86477326D01*
X185793095Y-86466464D01*
X185730495Y-86358036D01*
X185641964Y-86269505D01*
X185641963Y-86269504D01*
X185533534Y-86206904D01*
X185533536Y-86206904D01*
X185412603Y-86174500D01*
X185412601Y-86174500D01*
X185287399Y-86174500D01*
X185287397Y-86174500D01*
X185166464Y-86206904D01*
X185058036Y-86269504D01*
X184969504Y-86358036D01*
X184906904Y-86466464D01*
X184874500Y-86587396D01*
X162100500Y-86587396D01*
X162100500Y-84130253D01*
X175449500Y-84130253D01*
X175449500Y-85869746D01*
X175461133Y-85928232D01*
X175464995Y-85934011D01*
X175505448Y-85994552D01*
X175529220Y-86010436D01*
X175571767Y-86038866D01*
X175571768Y-86038866D01*
X175571769Y-86038867D01*
X175630252Y-86050500D01*
X175630254Y-86050500D01*
X177369746Y-86050500D01*
X177369748Y-86050500D01*
X177428231Y-86038867D01*
X177494552Y-85994552D01*
X177538867Y-85928231D01*
X177550500Y-85869748D01*
X177550500Y-84130252D01*
X177538867Y-84071769D01*
X177537056Y-84069059D01*
X177524027Y-84049560D01*
X177494552Y-84005448D01*
X177471235Y-83989868D01*
X177428232Y-83961133D01*
X177428233Y-83961133D01*
X177398989Y-83955316D01*
X177369748Y-83949500D01*
X175630252Y-83949500D01*
X175601010Y-83955316D01*
X175571767Y-83961133D01*
X175505449Y-84005447D01*
X175505447Y-84005449D01*
X175461133Y-84071767D01*
X175461133Y-84071769D01*
X175451544Y-84119979D01*
X175449500Y-84130253D01*
X162100500Y-84130253D01*
X162100500Y-81774500D01*
X162122174Y-81722174D01*
X162174500Y-81700500D01*
X162932746Y-81700500D01*
X162985071Y-81722173D01*
X163023387Y-81760489D01*
X163023389Y-81760490D01*
X163023390Y-81760491D01*
X163093060Y-81800715D01*
X163126114Y-81819799D01*
X163126115Y-81819799D01*
X163126117Y-81819800D01*
X163183402Y-81835149D01*
X163240688Y-81850499D01*
X163240689Y-81850500D01*
X163240691Y-81850500D01*
X163359311Y-81850500D01*
X163359311Y-81850499D01*
X163473886Y-81819799D01*
X163576613Y-81760489D01*
X163660489Y-81676613D01*
X163719799Y-81573886D01*
X163750499Y-81459311D01*
X163750500Y-81459311D01*
X163750500Y-81340689D01*
X163750499Y-81340688D01*
X163719800Y-81226117D01*
X163719798Y-81226112D01*
X163660491Y-81123390D01*
X163660490Y-81123389D01*
X163660489Y-81123387D01*
X163576613Y-81039511D01*
X163576610Y-81039509D01*
X163576609Y-81039508D01*
X163473887Y-80980201D01*
X163473882Y-80980199D01*
X163359311Y-80949500D01*
X163359309Y-80949500D01*
X163240691Y-80949500D01*
X163240689Y-80949500D01*
X163126117Y-80980199D01*
X163126112Y-80980201D01*
X163023390Y-81039508D01*
X162985071Y-81077827D01*
X162932746Y-81099500D01*
X161760436Y-81099500D01*
X161684014Y-81119977D01*
X161684009Y-81119979D01*
X161615488Y-81159540D01*
X161559540Y-81215488D01*
X161519979Y-81284009D01*
X161519977Y-81284014D01*
X161499500Y-81360435D01*
X161499500Y-82198389D01*
X161477826Y-82250715D01*
X161425500Y-82272389D01*
X161373174Y-82250715D01*
X161341963Y-82219504D01*
X161233534Y-82156904D01*
X161233536Y-82156904D01*
X161112603Y-82124500D01*
X161112601Y-82124500D01*
X160987399Y-82124500D01*
X160987397Y-82124500D01*
X160866464Y-82156904D01*
X160758036Y-82219504D01*
X160669504Y-82308036D01*
X160606904Y-82416464D01*
X160574500Y-82537396D01*
X160574500Y-82662603D01*
X160606904Y-82783535D01*
X160669504Y-82891963D01*
X160727826Y-82950285D01*
X160749500Y-83002611D01*
X160749500Y-91676000D01*
X160727826Y-91728326D01*
X160675500Y-91750000D01*
X130500000Y-91750000D01*
X130500000Y-97425500D01*
X130478326Y-97477826D01*
X130426000Y-97499500D01*
X64518815Y-97499500D01*
X64513975Y-97499342D01*
X64178722Y-97477367D01*
X64169125Y-97476103D01*
X63858118Y-97414240D01*
X63848768Y-97411735D01*
X63548483Y-97309802D01*
X63539541Y-97306098D01*
X63394390Y-97234518D01*
X63255133Y-97165844D01*
X63246758Y-97161009D01*
X62983085Y-96984828D01*
X62975408Y-96978937D01*
X62736992Y-96769851D01*
X62730148Y-96763007D01*
X62641754Y-96662213D01*
X62521056Y-96524584D01*
X62515169Y-96516911D01*
X62338995Y-96253247D01*
X62334155Y-96244864D01*
X62197817Y-95968398D01*
X62193899Y-95960452D01*
X62190196Y-95951513D01*
X62185855Y-95938726D01*
X62088263Y-95651229D01*
X62085759Y-95641881D01*
X62048993Y-95457047D01*
X62023895Y-95330872D01*
X62022632Y-95321276D01*
X62000658Y-94986021D01*
X62000500Y-94981181D01*
X62000500Y-94630253D01*
X97449500Y-94630253D01*
X97449500Y-96369746D01*
X97461133Y-96428232D01*
X97490608Y-96472343D01*
X97505448Y-96494552D01*
X97538907Y-96516909D01*
X97571767Y-96538866D01*
X97571768Y-96538866D01*
X97571769Y-96538867D01*
X97630252Y-96550500D01*
X97630254Y-96550500D01*
X99369746Y-96550500D01*
X99369748Y-96550500D01*
X99428231Y-96538867D01*
X99494552Y-96494552D01*
X99538867Y-96428231D01*
X99550500Y-96369748D01*
X99550500Y-94630252D01*
X99538867Y-94571769D01*
X99494552Y-94505448D01*
X99472343Y-94490608D01*
X99428232Y-94461133D01*
X99428233Y-94461133D01*
X99398989Y-94455316D01*
X99369748Y-94449500D01*
X97630252Y-94449500D01*
X97601010Y-94455316D01*
X97571767Y-94461133D01*
X97505449Y-94505447D01*
X97505447Y-94505449D01*
X97461133Y-94571767D01*
X97449500Y-94630253D01*
X62000500Y-94630253D01*
X62000500Y-92856535D01*
X97449500Y-92856535D01*
X97449500Y-93063464D01*
X97489868Y-93266413D01*
X97489870Y-93266420D01*
X97569059Y-93457598D01*
X97684023Y-93629655D01*
X97830345Y-93775977D01*
X98002402Y-93890941D01*
X98193580Y-93970130D01*
X98396535Y-94010500D01*
X98396536Y-94010500D01*
X98603464Y-94010500D01*
X98603465Y-94010500D01*
X98806420Y-93970130D01*
X98997598Y-93890941D01*
X99169655Y-93775977D01*
X99315977Y-93629655D01*
X99430941Y-93457598D01*
X99510130Y-93266420D01*
X99550500Y-93063465D01*
X99550500Y-92856535D01*
X99510130Y-92653580D01*
X99430941Y-92462402D01*
X99315977Y-92290345D01*
X99169655Y-92144023D01*
X99159741Y-92137399D01*
X98997598Y-92029059D01*
X98806420Y-91949870D01*
X98806413Y-91949868D01*
X98653516Y-91919455D01*
X98603465Y-91909500D01*
X98396535Y-91909500D01*
X98356385Y-91917486D01*
X98193586Y-91949868D01*
X98193579Y-91949870D01*
X98002401Y-92029059D01*
X97830345Y-92144022D01*
X97830344Y-92144024D01*
X97684024Y-92290344D01*
X97684022Y-92290345D01*
X97569059Y-92462401D01*
X97489870Y-92653579D01*
X97489868Y-92653586D01*
X97449500Y-92856535D01*
X62000500Y-92856535D01*
X62000500Y-85774217D01*
X62022174Y-85721891D01*
X62074500Y-85700217D01*
X62080253Y-85700500D01*
X62081007Y-85700500D01*
X62218991Y-85700500D01*
X62218993Y-85700500D01*
X62354328Y-85673580D01*
X62481811Y-85620775D01*
X62596542Y-85544114D01*
X62694114Y-85446542D01*
X62723471Y-85402605D01*
X62770563Y-85371140D01*
X62826112Y-85382189D01*
X62846529Y-85402606D01*
X62873582Y-85443095D01*
X62875886Y-85446542D01*
X62973458Y-85544114D01*
X63088189Y-85620775D01*
X63088190Y-85620775D01*
X63088191Y-85620776D01*
X63209436Y-85670997D01*
X63215672Y-85673580D01*
X63351007Y-85700500D01*
X63351009Y-85700500D01*
X63488991Y-85700500D01*
X63488993Y-85700500D01*
X63624328Y-85673580D01*
X63751811Y-85620775D01*
X63866542Y-85544114D01*
X63964114Y-85446542D01*
X63993471Y-85402605D01*
X64040563Y-85371140D01*
X64096112Y-85382189D01*
X64116529Y-85402606D01*
X64143582Y-85443095D01*
X64145886Y-85446542D01*
X64243458Y-85544114D01*
X64358189Y-85620775D01*
X64358190Y-85620775D01*
X64358191Y-85620776D01*
X64479436Y-85670997D01*
X64485672Y-85673580D01*
X64621007Y-85700500D01*
X64621009Y-85700500D01*
X64758991Y-85700500D01*
X64758993Y-85700500D01*
X64894328Y-85673580D01*
X65021811Y-85620775D01*
X65136542Y-85544114D01*
X65234114Y-85446542D01*
X65310775Y-85331811D01*
X65363580Y-85204328D01*
X65390500Y-85068993D01*
X65390500Y-84931007D01*
X65363580Y-84795672D01*
X65338039Y-84734011D01*
X65310776Y-84668191D01*
X65234116Y-84553461D01*
X65234114Y-84553458D01*
X65160908Y-84480252D01*
X67799500Y-84480252D01*
X67799500Y-85519748D01*
X67801638Y-85530495D01*
X67811133Y-85578232D01*
X67839560Y-85620775D01*
X67855448Y-85644552D01*
X67892791Y-85669504D01*
X67921767Y-85688866D01*
X67921768Y-85688866D01*
X67921769Y-85688867D01*
X67980252Y-85700500D01*
X68125500Y-85700500D01*
X68177826Y-85722174D01*
X68199500Y-85774500D01*
X68199500Y-90897389D01*
X68177826Y-90949715D01*
X68119504Y-91008036D01*
X68056904Y-91116464D01*
X68024500Y-91237396D01*
X68024500Y-91362603D01*
X68056904Y-91483535D01*
X68056905Y-91483536D01*
X68119505Y-91591964D01*
X68208036Y-91680495D01*
X68316464Y-91743095D01*
X68316463Y-91743095D01*
X68342233Y-91750000D01*
X68437396Y-91775499D01*
X68437397Y-91775500D01*
X68437399Y-91775500D01*
X68562603Y-91775500D01*
X68562603Y-91775499D01*
X68683536Y-91743095D01*
X68791964Y-91680495D01*
X68880495Y-91591964D01*
X68943095Y-91483536D01*
X68975499Y-91362603D01*
X68975500Y-91362603D01*
X68975500Y-91237397D01*
X68975499Y-91237396D01*
X68943095Y-91116464D01*
X68880495Y-91008036D01*
X68822174Y-90949715D01*
X68800500Y-90897389D01*
X68800500Y-90340688D01*
X76749500Y-90340688D01*
X76749500Y-90459311D01*
X76780199Y-90573882D01*
X76780201Y-90573887D01*
X76839508Y-90676609D01*
X76839509Y-90676610D01*
X76839511Y-90676613D01*
X76923387Y-90760489D01*
X76923389Y-90760490D01*
X76923390Y-90760491D01*
X77026112Y-90819798D01*
X77026114Y-90819799D01*
X77026115Y-90819799D01*
X77026117Y-90819800D01*
X77049693Y-90826117D01*
X77140688Y-90850499D01*
X77140689Y-90850500D01*
X77140691Y-90850500D01*
X77259311Y-90850500D01*
X77259311Y-90850499D01*
X77373886Y-90819799D01*
X77476613Y-90760489D01*
X77514929Y-90722173D01*
X77567254Y-90700500D01*
X77989564Y-90700500D01*
X77989564Y-90700499D01*
X78065989Y-90680021D01*
X78134511Y-90640460D01*
X78190460Y-90584511D01*
X78230021Y-90515989D01*
X78250499Y-90439564D01*
X78250500Y-90439564D01*
X78250500Y-87202611D01*
X78272174Y-87150285D01*
X78288450Y-87134009D01*
X78330495Y-87091964D01*
X78393095Y-86983536D01*
X78425499Y-86862603D01*
X78425500Y-86862603D01*
X78425500Y-86737397D01*
X78425499Y-86737396D01*
X78393095Y-86616464D01*
X78330495Y-86508036D01*
X78299785Y-86477326D01*
X78278111Y-86425000D01*
X78299785Y-86372674D01*
X78314423Y-86358036D01*
X78330495Y-86341964D01*
X78393095Y-86233536D01*
X78425499Y-86112603D01*
X78425500Y-86112603D01*
X78425500Y-85987397D01*
X78425499Y-85987396D01*
X78424957Y-85985375D01*
X78393095Y-85866464D01*
X78330495Y-85758036D01*
X78241964Y-85669505D01*
X78241963Y-85669504D01*
X78133534Y-85606904D01*
X78133536Y-85606904D01*
X78012603Y-85574500D01*
X78012601Y-85574500D01*
X77887399Y-85574500D01*
X77887397Y-85574500D01*
X77766464Y-85606904D01*
X77658036Y-85669504D01*
X77569504Y-85758036D01*
X77506904Y-85866464D01*
X77474500Y-85987396D01*
X77474500Y-86112603D01*
X77506904Y-86233535D01*
X77569504Y-86341963D01*
X77600215Y-86372674D01*
X77621889Y-86425000D01*
X77600215Y-86477326D01*
X77569504Y-86508036D01*
X77506904Y-86616464D01*
X77474500Y-86737396D01*
X77474500Y-86862603D01*
X77506904Y-86983535D01*
X77569504Y-87091963D01*
X77627826Y-87150285D01*
X77649500Y-87202611D01*
X77649500Y-90025500D01*
X77627826Y-90077826D01*
X77575500Y-90099500D01*
X77567254Y-90099500D01*
X77514929Y-90077827D01*
X77514928Y-90077826D01*
X77476613Y-90039511D01*
X77476610Y-90039509D01*
X77476609Y-90039508D01*
X77373887Y-89980201D01*
X77373882Y-89980199D01*
X77259311Y-89949500D01*
X77259309Y-89949500D01*
X77140691Y-89949500D01*
X77140689Y-89949500D01*
X77026117Y-89980199D01*
X77026112Y-89980201D01*
X76923390Y-90039508D01*
X76839508Y-90123390D01*
X76780201Y-90226112D01*
X76780199Y-90226117D01*
X76749500Y-90340688D01*
X68800500Y-90340688D01*
X68800500Y-85774500D01*
X68822174Y-85722174D01*
X68874500Y-85700500D01*
X69019746Y-85700500D01*
X69019748Y-85700500D01*
X69078231Y-85688867D01*
X69144552Y-85644552D01*
X69188867Y-85578231D01*
X69200500Y-85519748D01*
X69200500Y-84480252D01*
X69188867Y-84421769D01*
X69183465Y-84413685D01*
X69168783Y-84391712D01*
X69144552Y-84355448D01*
X69122180Y-84340499D01*
X69078232Y-84311133D01*
X69078233Y-84311133D01*
X69048989Y-84305316D01*
X69019748Y-84299500D01*
X67980252Y-84299500D01*
X67951010Y-84305316D01*
X67921767Y-84311133D01*
X67855449Y-84355447D01*
X67855447Y-84355449D01*
X67811133Y-84421767D01*
X67811133Y-84421769D01*
X67799500Y-84480252D01*
X65160908Y-84480252D01*
X65136542Y-84455886D01*
X65113515Y-84440500D01*
X65021808Y-84379223D01*
X64894332Y-84326421D01*
X64894322Y-84326418D01*
X64803694Y-84308391D01*
X64758993Y-84299500D01*
X64621007Y-84299500D01*
X64582642Y-84307131D01*
X64485677Y-84326418D01*
X64485667Y-84326421D01*
X64358191Y-84379223D01*
X64243461Y-84455883D01*
X64145881Y-84553463D01*
X64116528Y-84597394D01*
X64069436Y-84628859D01*
X64013887Y-84617809D01*
X63993472Y-84597394D01*
X63964118Y-84553463D01*
X63964116Y-84553461D01*
X63964114Y-84553458D01*
X63866542Y-84455886D01*
X63843515Y-84440500D01*
X63751808Y-84379223D01*
X63624332Y-84326421D01*
X63624322Y-84326418D01*
X63533694Y-84308391D01*
X63488993Y-84299500D01*
X63351007Y-84299500D01*
X63312642Y-84307131D01*
X63215677Y-84326418D01*
X63215667Y-84326421D01*
X63088191Y-84379223D01*
X62973461Y-84455883D01*
X62875881Y-84553463D01*
X62846528Y-84597394D01*
X62799436Y-84628859D01*
X62743887Y-84617809D01*
X62723472Y-84597394D01*
X62694118Y-84553463D01*
X62694116Y-84553461D01*
X62694114Y-84553458D01*
X62596542Y-84455886D01*
X62596535Y-84455881D01*
X62533387Y-84413685D01*
X62501922Y-84366592D01*
X62500500Y-84352157D01*
X62500500Y-79702611D01*
X62522174Y-79650285D01*
X62580495Y-79591964D01*
X62643095Y-79483536D01*
X62675499Y-79362603D01*
X62675500Y-79362603D01*
X62675500Y-79237397D01*
X62675499Y-79237396D01*
X62643095Y-79116464D01*
X62580495Y-79008036D01*
X62491963Y-78919504D01*
X62383534Y-78856904D01*
X62383536Y-78856904D01*
X62262603Y-78824500D01*
X62262601Y-78824500D01*
X62137399Y-78824500D01*
X62093653Y-78836222D01*
X62037500Y-78828829D01*
X62003021Y-78783896D01*
X62000500Y-78764743D01*
X62000500Y-75337396D01*
X74174500Y-75337396D01*
X74174500Y-75462603D01*
X74206904Y-75583535D01*
X74269504Y-75691963D01*
X74327826Y-75750285D01*
X74349500Y-75802611D01*
X74349500Y-88347389D01*
X74327826Y-88399715D01*
X74269504Y-88458036D01*
X74206904Y-88566464D01*
X74174500Y-88687396D01*
X74174500Y-88812603D01*
X74206904Y-88933535D01*
X74260640Y-89026609D01*
X74269505Y-89041964D01*
X74358036Y-89130495D01*
X74466464Y-89193095D01*
X74466463Y-89193095D01*
X74494099Y-89200500D01*
X74587396Y-89225499D01*
X74587397Y-89225500D01*
X74587399Y-89225500D01*
X74712603Y-89225500D01*
X74712603Y-89225499D01*
X74833536Y-89193095D01*
X74941964Y-89130495D01*
X75030495Y-89041964D01*
X75093095Y-88933536D01*
X75125499Y-88812603D01*
X75125500Y-88812603D01*
X75125500Y-88687397D01*
X75114779Y-88647389D01*
X75108691Y-88624668D01*
X75116083Y-88568517D01*
X75161015Y-88534038D01*
X75217168Y-88541430D01*
X75217169Y-88541430D01*
X75284011Y-88580021D01*
X75284012Y-88580021D01*
X75284014Y-88580022D01*
X75322224Y-88590260D01*
X75360435Y-88600499D01*
X75360436Y-88600500D01*
X75360438Y-88600500D01*
X75439564Y-88600500D01*
X75439564Y-88600499D01*
X75515989Y-88580021D01*
X75584511Y-88540460D01*
X75640460Y-88484511D01*
X75680021Y-88415989D01*
X75700499Y-88339564D01*
X75700500Y-88339564D01*
X75700500Y-87624500D01*
X75722174Y-87572174D01*
X75774500Y-87550500D01*
X76339564Y-87550500D01*
X76339564Y-87550499D01*
X76415989Y-87530021D01*
X76484511Y-87490460D01*
X76540460Y-87434511D01*
X76580021Y-87365989D01*
X76600499Y-87289564D01*
X76600500Y-87289564D01*
X76600500Y-82837396D01*
X85574500Y-82837396D01*
X85574500Y-82962603D01*
X85606904Y-83083535D01*
X85669504Y-83191963D01*
X85727826Y-83250285D01*
X85749500Y-83302611D01*
X85749500Y-89397389D01*
X85727826Y-89449715D01*
X85669504Y-89508036D01*
X85606904Y-89616464D01*
X85574500Y-89737396D01*
X85574500Y-89862603D01*
X85606904Y-89983535D01*
X85661343Y-90077826D01*
X85669505Y-90091964D01*
X85758036Y-90180495D01*
X85866464Y-90243095D01*
X85866463Y-90243095D01*
X85936286Y-90261804D01*
X85987396Y-90275499D01*
X85987397Y-90275500D01*
X85987399Y-90275500D01*
X86112603Y-90275500D01*
X86112603Y-90275499D01*
X86233536Y-90243095D01*
X86341964Y-90180495D01*
X86430495Y-90091964D01*
X86461999Y-90037396D01*
X100124500Y-90037396D01*
X100124500Y-90162603D01*
X100156904Y-90283535D01*
X100219504Y-90391963D01*
X100277826Y-90450285D01*
X100299500Y-90502611D01*
X100299500Y-92847389D01*
X100277826Y-92899715D01*
X100219504Y-92958036D01*
X100156904Y-93066464D01*
X100124500Y-93187396D01*
X100124500Y-93312603D01*
X100156904Y-93433535D01*
X100156905Y-93433536D01*
X100219505Y-93541964D01*
X100308036Y-93630495D01*
X100416464Y-93693095D01*
X100416463Y-93693095D01*
X100486286Y-93711804D01*
X100537396Y-93725499D01*
X100537397Y-93725500D01*
X100537399Y-93725500D01*
X100662603Y-93725500D01*
X100662603Y-93725499D01*
X100783536Y-93693095D01*
X100891964Y-93630495D01*
X100980495Y-93541964D01*
X101043095Y-93433536D01*
X101075499Y-93312603D01*
X101075500Y-93312603D01*
X101075500Y-93187397D01*
X101075499Y-93187396D01*
X101043095Y-93066464D01*
X100980495Y-92958036D01*
X100922174Y-92899715D01*
X100900500Y-92847389D01*
X100900500Y-90502611D01*
X100922174Y-90450285D01*
X100932897Y-90439562D01*
X100980495Y-90391964D01*
X101043095Y-90283536D01*
X101075499Y-90162603D01*
X101075500Y-90162603D01*
X101075500Y-90037397D01*
X101075499Y-90037396D01*
X101072311Y-90025500D01*
X101043095Y-89916464D01*
X100980495Y-89808036D01*
X100891964Y-89719505D01*
X100891963Y-89719504D01*
X100783534Y-89656904D01*
X100783536Y-89656904D01*
X100662603Y-89624500D01*
X100662601Y-89624500D01*
X100537399Y-89624500D01*
X100537397Y-89624500D01*
X100416464Y-89656904D01*
X100308036Y-89719504D01*
X100219504Y-89808036D01*
X100156904Y-89916464D01*
X100124500Y-90037396D01*
X86461999Y-90037396D01*
X86493095Y-89983536D01*
X86525499Y-89862603D01*
X86525500Y-89862603D01*
X86525500Y-89737397D01*
X86525499Y-89737396D01*
X86493095Y-89616464D01*
X86430495Y-89508036D01*
X86372174Y-89449715D01*
X86350500Y-89397389D01*
X86350500Y-83302611D01*
X86372174Y-83250285D01*
X86394848Y-83227611D01*
X86430495Y-83191964D01*
X86493095Y-83083536D01*
X86525499Y-82962603D01*
X86525500Y-82962603D01*
X86525500Y-82837397D01*
X86525499Y-82837396D01*
X86523202Y-82828825D01*
X86493095Y-82716464D01*
X86430495Y-82608036D01*
X86341964Y-82519505D01*
X86341963Y-82519504D01*
X86233534Y-82456904D01*
X86233536Y-82456904D01*
X86112603Y-82424500D01*
X86112601Y-82424500D01*
X85987399Y-82424500D01*
X85987397Y-82424500D01*
X85866464Y-82456904D01*
X85758036Y-82519504D01*
X85669504Y-82608036D01*
X85606904Y-82716464D01*
X85574500Y-82837396D01*
X76600500Y-82837396D01*
X76600500Y-79124500D01*
X76622174Y-79072174D01*
X76674500Y-79050500D01*
X77369746Y-79050500D01*
X77369748Y-79050500D01*
X77428231Y-79038867D01*
X77494552Y-78994552D01*
X77538867Y-78928231D01*
X77550500Y-78869748D01*
X77550500Y-78787396D01*
X89324500Y-78787396D01*
X89324500Y-78912603D01*
X89356904Y-79033535D01*
X89419504Y-79141963D01*
X89477826Y-79200285D01*
X89499500Y-79252611D01*
X89499500Y-86397389D01*
X89477826Y-86449715D01*
X89419504Y-86508036D01*
X89356904Y-86616464D01*
X89324500Y-86737396D01*
X89324500Y-86862603D01*
X89356904Y-86983535D01*
X89406086Y-87068721D01*
X89419505Y-87091964D01*
X89508036Y-87180495D01*
X89616464Y-87243095D01*
X89616463Y-87243095D01*
X89678180Y-87259632D01*
X89737396Y-87275499D01*
X89737397Y-87275500D01*
X89737399Y-87275500D01*
X89862603Y-87275500D01*
X89862603Y-87275499D01*
X89983536Y-87243095D01*
X90091964Y-87180495D01*
X90180495Y-87091964D01*
X90243095Y-86983536D01*
X90275499Y-86862603D01*
X90275500Y-86862603D01*
X90275500Y-86737397D01*
X90275499Y-86737396D01*
X90243095Y-86616464D01*
X90180495Y-86508036D01*
X90122174Y-86449715D01*
X90100500Y-86397389D01*
X90100500Y-85401611D01*
X90122174Y-85349285D01*
X90174500Y-85327611D01*
X90226826Y-85349285D01*
X90258036Y-85380495D01*
X90366464Y-85443095D01*
X90366463Y-85443095D01*
X90394099Y-85450500D01*
X90487396Y-85475499D01*
X90487397Y-85475500D01*
X90487399Y-85475500D01*
X90612603Y-85475500D01*
X90612603Y-85475499D01*
X90733536Y-85443095D01*
X90841964Y-85380495D01*
X90930495Y-85291964D01*
X90993095Y-85183536D01*
X91025499Y-85062603D01*
X91025500Y-85062603D01*
X91025500Y-84937397D01*
X91025499Y-84937396D01*
X91018709Y-84912053D01*
X91014551Y-84896535D01*
X107829500Y-84896535D01*
X107829500Y-85103465D01*
X107830887Y-85110438D01*
X107869868Y-85306413D01*
X107869870Y-85306420D01*
X107949059Y-85497598D01*
X108063922Y-85669505D01*
X108064023Y-85669655D01*
X108210345Y-85815977D01*
X108382402Y-85930941D01*
X108573580Y-86010130D01*
X108776535Y-86050500D01*
X108776536Y-86050500D01*
X108983464Y-86050500D01*
X108983465Y-86050500D01*
X109186420Y-86010130D01*
X109377598Y-85930941D01*
X109549655Y-85815977D01*
X109695977Y-85669655D01*
X109810941Y-85497598D01*
X109890130Y-85306420D01*
X109930500Y-85103465D01*
X109930500Y-84896535D01*
X110369500Y-84896535D01*
X110369500Y-85103465D01*
X110370887Y-85110438D01*
X110409868Y-85306413D01*
X110409870Y-85306420D01*
X110489059Y-85497598D01*
X110604022Y-85669654D01*
X110750345Y-85815977D01*
X110922402Y-85930941D01*
X111053818Y-85985375D01*
X111093867Y-86025423D01*
X111099500Y-86053742D01*
X111099500Y-86697389D01*
X111077826Y-86749715D01*
X111019504Y-86808036D01*
X110956904Y-86916464D01*
X110924500Y-87037396D01*
X110924500Y-87162603D01*
X110956904Y-87283535D01*
X111014252Y-87382865D01*
X111019505Y-87391964D01*
X111108036Y-87480495D01*
X111216464Y-87543095D01*
X111216463Y-87543095D01*
X111286286Y-87561804D01*
X111337396Y-87575499D01*
X111337397Y-87575500D01*
X111337399Y-87575500D01*
X111462603Y-87575500D01*
X111462603Y-87575499D01*
X111583536Y-87543095D01*
X111691964Y-87480495D01*
X111723174Y-87449285D01*
X111775500Y-87427611D01*
X111827826Y-87449285D01*
X111849500Y-87501611D01*
X111849500Y-88647389D01*
X111827826Y-88699715D01*
X111769504Y-88758036D01*
X111706904Y-88866464D01*
X111674500Y-88987396D01*
X111674500Y-89112603D01*
X111706904Y-89233535D01*
X111761778Y-89328580D01*
X111769505Y-89341964D01*
X111858036Y-89430495D01*
X111966464Y-89493095D01*
X111966463Y-89493095D01*
X112036286Y-89511804D01*
X112087396Y-89525499D01*
X112087397Y-89525500D01*
X112087399Y-89525500D01*
X112212603Y-89525500D01*
X112212603Y-89525499D01*
X112333536Y-89493095D01*
X112441964Y-89430495D01*
X112530495Y-89341964D01*
X112593095Y-89233536D01*
X112625499Y-89112603D01*
X112625500Y-89112603D01*
X112625500Y-88987397D01*
X112625499Y-88987396D01*
X112625341Y-88986808D01*
X112593095Y-88866464D01*
X112530495Y-88758036D01*
X112472174Y-88699715D01*
X112450500Y-88647389D01*
X112450500Y-86010436D01*
X112450499Y-86010435D01*
X112430022Y-85934014D01*
X112430020Y-85934009D01*
X112392919Y-85869748D01*
X112390460Y-85865489D01*
X112334511Y-85809540D01*
X112334510Y-85809539D01*
X112292056Y-85785029D01*
X112264970Y-85757943D01*
X112247191Y-85727149D01*
X112239801Y-85670997D01*
X112249747Y-85649046D01*
X112350941Y-85497598D01*
X112430130Y-85306420D01*
X112470500Y-85103465D01*
X112470500Y-84896535D01*
X112909500Y-84896535D01*
X112909500Y-85103465D01*
X112910887Y-85110438D01*
X112949868Y-85306413D01*
X112949870Y-85306420D01*
X113029059Y-85497598D01*
X113143922Y-85669505D01*
X113144023Y-85669655D01*
X113290345Y-85815977D01*
X113462402Y-85930941D01*
X113653580Y-86010130D01*
X113856535Y-86050500D01*
X113856536Y-86050500D01*
X114063464Y-86050500D01*
X114063465Y-86050500D01*
X114266420Y-86010130D01*
X114457598Y-85930941D01*
X114629655Y-85815977D01*
X114775977Y-85669655D01*
X114890941Y-85497598D01*
X114970130Y-85306420D01*
X115010500Y-85103465D01*
X115010500Y-84896535D01*
X114970130Y-84693580D01*
X114890941Y-84502402D01*
X114775977Y-84330345D01*
X114629655Y-84184023D01*
X114593013Y-84159540D01*
X114457598Y-84069059D01*
X114266420Y-83989870D01*
X114266413Y-83989868D01*
X114113516Y-83959455D01*
X114063465Y-83949500D01*
X113856535Y-83949500D01*
X113816385Y-83957486D01*
X113653586Y-83989868D01*
X113653579Y-83989870D01*
X113462401Y-84069059D01*
X113290345Y-84184022D01*
X113290344Y-84184024D01*
X113144024Y-84330344D01*
X113144022Y-84330345D01*
X113029059Y-84502401D01*
X112949870Y-84693579D01*
X112949868Y-84693586D01*
X112925427Y-84816464D01*
X112909500Y-84896535D01*
X112470500Y-84896535D01*
X112430130Y-84693580D01*
X112350941Y-84502402D01*
X112235977Y-84330345D01*
X112089655Y-84184023D01*
X112053013Y-84159540D01*
X111917598Y-84069059D01*
X111726420Y-83989870D01*
X111726413Y-83989868D01*
X111573516Y-83959455D01*
X111523465Y-83949500D01*
X111316535Y-83949500D01*
X111276385Y-83957486D01*
X111113586Y-83989868D01*
X111113579Y-83989870D01*
X110922401Y-84069059D01*
X110750345Y-84184022D01*
X110750344Y-84184024D01*
X110604024Y-84330344D01*
X110604022Y-84330345D01*
X110489059Y-84502401D01*
X110409870Y-84693579D01*
X110409868Y-84693586D01*
X110385427Y-84816464D01*
X110369500Y-84896535D01*
X109930500Y-84896535D01*
X109890130Y-84693580D01*
X109810941Y-84502402D01*
X109695977Y-84330345D01*
X109549655Y-84184023D01*
X109513013Y-84159540D01*
X109377598Y-84069059D01*
X109186420Y-83989870D01*
X109186413Y-83989868D01*
X109033516Y-83959455D01*
X108983465Y-83949500D01*
X108776535Y-83949500D01*
X108736385Y-83957486D01*
X108573586Y-83989868D01*
X108573579Y-83989870D01*
X108382401Y-84069059D01*
X108210345Y-84184022D01*
X108210344Y-84184024D01*
X108064024Y-84330344D01*
X108064022Y-84330345D01*
X107949059Y-84502401D01*
X107869870Y-84693579D01*
X107869868Y-84693586D01*
X107845427Y-84816464D01*
X107829500Y-84896535D01*
X91014551Y-84896535D01*
X90993095Y-84816464D01*
X90930495Y-84708036D01*
X90872174Y-84649715D01*
X90850500Y-84597389D01*
X90850500Y-82837396D01*
X143474500Y-82837396D01*
X143474500Y-82962603D01*
X143506904Y-83083535D01*
X143559195Y-83174106D01*
X143569505Y-83191964D01*
X143658036Y-83280495D01*
X143766464Y-83343095D01*
X143766463Y-83343095D01*
X143836286Y-83361804D01*
X143887396Y-83375499D01*
X143887397Y-83375500D01*
X143887399Y-83375500D01*
X144012603Y-83375500D01*
X144012603Y-83375499D01*
X144133536Y-83343095D01*
X144241964Y-83280495D01*
X144273174Y-83249285D01*
X144325500Y-83227611D01*
X144377826Y-83249285D01*
X144399500Y-83301611D01*
X144399500Y-84439564D01*
X144419977Y-84515985D01*
X144419979Y-84515990D01*
X144444200Y-84557941D01*
X144459540Y-84584511D01*
X144515489Y-84640460D01*
X144584011Y-84680021D01*
X144584012Y-84680021D01*
X144584014Y-84680022D01*
X144622224Y-84690260D01*
X144660435Y-84700499D01*
X144660436Y-84700500D01*
X144660438Y-84700500D01*
X146548389Y-84700500D01*
X146600715Y-84722174D01*
X146622389Y-84774500D01*
X146600715Y-84826826D01*
X146599715Y-84827826D01*
X146547389Y-84849500D01*
X144510436Y-84849500D01*
X144434014Y-84869977D01*
X144434009Y-84869979D01*
X144365488Y-84909540D01*
X144309540Y-84965488D01*
X144269979Y-85034009D01*
X144269977Y-85034014D01*
X144249500Y-85110435D01*
X144249500Y-87447389D01*
X144227826Y-87499715D01*
X144169504Y-87558036D01*
X144106904Y-87666464D01*
X144074500Y-87787396D01*
X144074500Y-87912603D01*
X144106904Y-88033535D01*
X144169111Y-88141281D01*
X144169505Y-88141964D01*
X144258036Y-88230495D01*
X144366464Y-88293095D01*
X144366463Y-88293095D01*
X144390367Y-88299500D01*
X144487396Y-88325499D01*
X144487397Y-88325500D01*
X144487399Y-88325500D01*
X144612603Y-88325500D01*
X144612603Y-88325499D01*
X144733536Y-88293095D01*
X144841964Y-88230495D01*
X144930495Y-88141964D01*
X144993095Y-88033536D01*
X145025499Y-87912603D01*
X145025500Y-87912603D01*
X145025500Y-87787397D01*
X145025499Y-87787396D01*
X144993095Y-87666464D01*
X144930495Y-87558036D01*
X144872174Y-87499715D01*
X144850500Y-87447389D01*
X144850500Y-85524500D01*
X144872174Y-85472174D01*
X144924500Y-85450500D01*
X146547389Y-85450500D01*
X146599715Y-85472174D01*
X146658036Y-85530495D01*
X146766464Y-85593095D01*
X146766463Y-85593095D01*
X146836286Y-85611804D01*
X146887396Y-85625499D01*
X146887397Y-85625500D01*
X146887399Y-85625500D01*
X147012603Y-85625500D01*
X147012603Y-85625499D01*
X147133536Y-85593095D01*
X147241964Y-85530495D01*
X147273174Y-85499285D01*
X147325500Y-85477611D01*
X147377826Y-85499285D01*
X147399500Y-85551611D01*
X147399500Y-86097389D01*
X147377826Y-86149715D01*
X147319504Y-86208036D01*
X147256904Y-86316464D01*
X147224500Y-86437396D01*
X147224500Y-86562603D01*
X147256904Y-86683535D01*
X147308204Y-86772389D01*
X147319505Y-86791964D01*
X147408036Y-86880495D01*
X147516464Y-86943095D01*
X147516463Y-86943095D01*
X147540367Y-86949500D01*
X147637396Y-86975499D01*
X147637397Y-86975500D01*
X147637399Y-86975500D01*
X147762603Y-86975500D01*
X147762603Y-86975499D01*
X147883536Y-86943095D01*
X147991964Y-86880495D01*
X148080495Y-86791964D01*
X148143095Y-86683536D01*
X148175499Y-86562603D01*
X148175500Y-86562603D01*
X148175500Y-86437397D01*
X148175499Y-86437396D01*
X148172177Y-86425000D01*
X148143095Y-86316464D01*
X148080495Y-86208036D01*
X148022174Y-86149715D01*
X148000500Y-86097389D01*
X148000500Y-84810436D01*
X148000499Y-84810435D01*
X147980022Y-84734014D01*
X147980020Y-84734009D01*
X147961846Y-84702531D01*
X147940460Y-84665489D01*
X147884511Y-84609540D01*
X147884510Y-84609539D01*
X147842056Y-84585029D01*
X147814970Y-84557943D01*
X147790460Y-84515489D01*
X147734511Y-84459540D01*
X147734510Y-84459539D01*
X147692056Y-84435029D01*
X147664970Y-84407943D01*
X147640460Y-84365489D01*
X147584511Y-84309540D01*
X147584510Y-84309539D01*
X147542056Y-84285029D01*
X147514970Y-84257943D01*
X147490460Y-84215489D01*
X147434511Y-84159540D01*
X147365990Y-84119979D01*
X147365985Y-84119977D01*
X147289564Y-84099500D01*
X147289562Y-84099500D01*
X145074500Y-84099500D01*
X145022174Y-84077826D01*
X145000500Y-84025500D01*
X145000500Y-82552611D01*
X145022174Y-82500285D01*
X145048354Y-82474105D01*
X145080495Y-82441964D01*
X145143095Y-82333536D01*
X145175499Y-82212603D01*
X145175500Y-82212603D01*
X145175500Y-82087397D01*
X145175499Y-82087396D01*
X145171804Y-82073608D01*
X145143095Y-81966464D01*
X145080495Y-81858036D01*
X144996564Y-81774105D01*
X154099500Y-81774105D01*
X154099500Y-81905894D01*
X154133606Y-82033181D01*
X154133607Y-82033184D01*
X154133608Y-82033186D01*
X154199500Y-82147314D01*
X154292686Y-82240500D01*
X154406814Y-82306392D01*
X154534105Y-82340499D01*
X154534106Y-82340500D01*
X154534108Y-82340500D01*
X154665894Y-82340500D01*
X154665894Y-82340499D01*
X154724598Y-82324770D01*
X154780751Y-82332162D01*
X154815229Y-82377095D01*
X154815230Y-82415400D01*
X154808113Y-82441963D01*
X154799500Y-82474108D01*
X154799500Y-82605892D01*
X154806392Y-82631614D01*
X154815230Y-82664599D01*
X154807837Y-82720752D01*
X154762903Y-82755230D01*
X154724599Y-82755230D01*
X154665892Y-82739500D01*
X154534108Y-82739500D01*
X154534106Y-82739500D01*
X154406818Y-82773606D01*
X154406809Y-82773610D01*
X154292685Y-82839500D01*
X154199500Y-82932685D01*
X154133610Y-83046809D01*
X154133606Y-83046818D01*
X154099500Y-83174105D01*
X154099500Y-83305894D01*
X154133606Y-83433181D01*
X154133610Y-83433190D01*
X154146784Y-83456008D01*
X154199500Y-83547314D01*
X154292686Y-83640500D01*
X154406814Y-83706392D01*
X154534105Y-83740499D01*
X154534106Y-83740500D01*
X154534108Y-83740500D01*
X154665894Y-83740500D01*
X154665894Y-83740499D01*
X154724598Y-83724770D01*
X154780751Y-83732162D01*
X154815229Y-83777095D01*
X154815230Y-83815400D01*
X154799500Y-83874108D01*
X154799500Y-84005894D01*
X154833606Y-84133181D01*
X154833610Y-84133190D01*
X154862958Y-84184022D01*
X154899500Y-84247314D01*
X154992686Y-84340500D01*
X155106814Y-84406392D01*
X155234105Y-84440499D01*
X155234106Y-84440500D01*
X155234108Y-84440500D01*
X155365894Y-84440500D01*
X155365894Y-84440499D01*
X155493186Y-84406392D01*
X155607314Y-84340500D01*
X155700500Y-84247314D01*
X155766392Y-84133186D01*
X155800499Y-84005894D01*
X155800500Y-84005894D01*
X155800500Y-83874106D01*
X155800499Y-83874105D01*
X155784770Y-83815401D01*
X155792162Y-83759248D01*
X155837095Y-83724770D01*
X155875401Y-83724770D01*
X155902990Y-83732162D01*
X155934105Y-83740499D01*
X155934106Y-83740500D01*
X155934108Y-83740500D01*
X156065894Y-83740500D01*
X156065894Y-83740499D01*
X156124598Y-83724770D01*
X156180751Y-83732162D01*
X156215229Y-83777095D01*
X156215230Y-83815400D01*
X156199500Y-83874108D01*
X156199500Y-84005894D01*
X156233606Y-84133181D01*
X156233610Y-84133190D01*
X156262958Y-84184022D01*
X156299500Y-84247314D01*
X156392686Y-84340500D01*
X156506814Y-84406392D01*
X156634105Y-84440499D01*
X156634106Y-84440500D01*
X156634108Y-84440500D01*
X156765894Y-84440500D01*
X156765894Y-84440499D01*
X156893186Y-84406392D01*
X157007314Y-84340500D01*
X157100500Y-84247314D01*
X157166392Y-84133186D01*
X157200499Y-84005894D01*
X157200500Y-84005894D01*
X157200500Y-83874106D01*
X157200499Y-83874105D01*
X157184770Y-83815401D01*
X157192162Y-83759248D01*
X157237095Y-83724770D01*
X157275401Y-83724770D01*
X157302990Y-83732162D01*
X157334105Y-83740499D01*
X157334106Y-83740500D01*
X157334108Y-83740500D01*
X157465894Y-83740500D01*
X157465894Y-83740499D01*
X157593186Y-83706392D01*
X157707314Y-83640500D01*
X157800500Y-83547314D01*
X157866392Y-83433186D01*
X157900499Y-83305894D01*
X157900500Y-83305894D01*
X157900500Y-83174106D01*
X157900499Y-83174105D01*
X157876231Y-83083536D01*
X157866392Y-83046814D01*
X157800500Y-82932686D01*
X157707314Y-82839500D01*
X157610380Y-82783535D01*
X157593190Y-82773610D01*
X157593181Y-82773606D01*
X157465894Y-82739500D01*
X157465892Y-82739500D01*
X157334108Y-82739500D01*
X157275400Y-82755230D01*
X157219247Y-82747836D01*
X157184769Y-82702903D01*
X157184770Y-82664598D01*
X157186974Y-82656371D01*
X157200499Y-82605894D01*
X157200500Y-82605894D01*
X157200500Y-82474106D01*
X157200499Y-82474105D01*
X157195890Y-82456905D01*
X157187208Y-82424500D01*
X157184770Y-82415401D01*
X157192162Y-82359248D01*
X157237095Y-82324770D01*
X157275401Y-82324770D01*
X157302990Y-82332162D01*
X157334105Y-82340499D01*
X157334106Y-82340500D01*
X157334108Y-82340500D01*
X157465894Y-82340500D01*
X157465894Y-82340499D01*
X157593186Y-82306392D01*
X157707314Y-82240500D01*
X157800500Y-82147314D01*
X157866392Y-82033186D01*
X157900499Y-81905894D01*
X157900500Y-81905894D01*
X157900500Y-81774106D01*
X157900499Y-81774105D01*
X157899266Y-81769505D01*
X157866392Y-81646814D01*
X157800500Y-81532686D01*
X157707314Y-81439500D01*
X157688824Y-81428825D01*
X157593190Y-81373610D01*
X157593181Y-81373606D01*
X157465894Y-81339500D01*
X157465892Y-81339500D01*
X157334108Y-81339500D01*
X157275400Y-81355230D01*
X157219247Y-81347836D01*
X157184769Y-81302903D01*
X157184770Y-81264598D01*
X157195081Y-81226117D01*
X157200499Y-81205894D01*
X157200500Y-81205894D01*
X157200500Y-81074106D01*
X157200499Y-81074105D01*
X157166393Y-80946818D01*
X157166392Y-80946814D01*
X157100500Y-80832686D01*
X157007314Y-80739500D01*
X156910380Y-80683535D01*
X156893190Y-80673610D01*
X156893181Y-80673606D01*
X156765894Y-80639500D01*
X156765892Y-80639500D01*
X156634108Y-80639500D01*
X156634106Y-80639500D01*
X156506818Y-80673606D01*
X156506809Y-80673610D01*
X156392685Y-80739500D01*
X156299500Y-80832685D01*
X156233610Y-80946809D01*
X156233606Y-80946818D01*
X156199500Y-81074105D01*
X156199500Y-81074108D01*
X156199500Y-81205892D01*
X156204918Y-81226112D01*
X156215230Y-81264599D01*
X156207837Y-81320752D01*
X156162903Y-81355230D01*
X156124599Y-81355230D01*
X156065892Y-81339500D01*
X155934108Y-81339500D01*
X155875400Y-81355230D01*
X155819247Y-81347836D01*
X155784769Y-81302903D01*
X155784770Y-81264598D01*
X155795081Y-81226117D01*
X155800499Y-81205894D01*
X155800500Y-81205894D01*
X155800500Y-81074106D01*
X155800499Y-81074105D01*
X155766393Y-80946818D01*
X155766392Y-80946814D01*
X155700500Y-80832686D01*
X155607314Y-80739500D01*
X155510380Y-80683535D01*
X155493190Y-80673610D01*
X155493181Y-80673606D01*
X155365894Y-80639500D01*
X155365892Y-80639500D01*
X155234108Y-80639500D01*
X155234106Y-80639500D01*
X155106818Y-80673606D01*
X155106809Y-80673610D01*
X154992685Y-80739500D01*
X154899500Y-80832685D01*
X154833610Y-80946809D01*
X154833606Y-80946818D01*
X154799500Y-81074105D01*
X154799500Y-81074108D01*
X154799500Y-81205892D01*
X154804918Y-81226112D01*
X154815230Y-81264599D01*
X154807837Y-81320752D01*
X154762903Y-81355230D01*
X154724599Y-81355230D01*
X154665892Y-81339500D01*
X154534108Y-81339500D01*
X154534106Y-81339500D01*
X154406818Y-81373606D01*
X154406809Y-81373610D01*
X154292685Y-81439500D01*
X154199500Y-81532685D01*
X154133610Y-81646809D01*
X154133606Y-81646818D01*
X154099500Y-81774105D01*
X144996564Y-81774105D01*
X144991964Y-81769505D01*
X144991963Y-81769504D01*
X144883534Y-81706904D01*
X144883536Y-81706904D01*
X144762603Y-81674500D01*
X144762601Y-81674500D01*
X144637399Y-81674500D01*
X144637397Y-81674500D01*
X144516464Y-81706904D01*
X144408036Y-81769504D01*
X144376826Y-81800715D01*
X144324500Y-81822389D01*
X144272174Y-81800715D01*
X144250500Y-81748389D01*
X144250500Y-80901611D01*
X144272174Y-80849285D01*
X144324500Y-80827611D01*
X144376826Y-80849285D01*
X144408036Y-80880495D01*
X144516464Y-80943095D01*
X144516463Y-80943095D01*
X144540367Y-80949500D01*
X144637396Y-80975499D01*
X144637397Y-80975500D01*
X144637399Y-80975500D01*
X144762603Y-80975500D01*
X144762603Y-80975499D01*
X144883536Y-80943095D01*
X144991964Y-80880495D01*
X145080495Y-80791964D01*
X145143095Y-80683536D01*
X145175499Y-80562603D01*
X145175500Y-80562603D01*
X145175500Y-80437398D01*
X145175073Y-80434153D01*
X145175500Y-80432560D01*
X145175500Y-80432549D01*
X145175503Y-80432549D01*
X145189737Y-80379447D01*
X145238788Y-80351132D01*
X145248441Y-80350500D01*
X146547389Y-80350500D01*
X146599715Y-80372174D01*
X146658036Y-80430495D01*
X146766464Y-80493095D01*
X146766463Y-80493095D01*
X146836286Y-80511804D01*
X146887396Y-80525499D01*
X146887397Y-80525500D01*
X146887399Y-80525500D01*
X147012603Y-80525500D01*
X147012603Y-80525499D01*
X147133536Y-80493095D01*
X147241964Y-80430495D01*
X147330495Y-80341964D01*
X147393095Y-80233536D01*
X147425499Y-80112603D01*
X147425500Y-80112603D01*
X147425500Y-79987397D01*
X147425499Y-79987396D01*
X147393095Y-79866464D01*
X147330495Y-79758036D01*
X147241963Y-79669504D01*
X147133534Y-79606904D01*
X147133536Y-79606904D01*
X147012603Y-79574500D01*
X147012601Y-79574500D01*
X146887399Y-79574500D01*
X146887397Y-79574500D01*
X146766464Y-79606904D01*
X146658036Y-79669504D01*
X146599715Y-79727826D01*
X146547389Y-79749500D01*
X144660436Y-79749500D01*
X144584014Y-79769977D01*
X144584009Y-79769979D01*
X144515488Y-79809540D01*
X144459540Y-79865488D01*
X144419979Y-79934009D01*
X144419977Y-79934014D01*
X144399500Y-80010435D01*
X144399500Y-80097389D01*
X144377826Y-80149715D01*
X144376826Y-80150715D01*
X144324500Y-80172389D01*
X144272174Y-80150715D01*
X144250500Y-80098389D01*
X144250500Y-78651611D01*
X144272174Y-78599285D01*
X144324500Y-78577611D01*
X144376826Y-78599285D01*
X144377826Y-78600285D01*
X144399500Y-78652611D01*
X144399500Y-78889564D01*
X144419977Y-78965985D01*
X144419979Y-78965990D01*
X144444255Y-79008036D01*
X144459540Y-79034511D01*
X144515489Y-79090460D01*
X144584011Y-79130021D01*
X144584012Y-79130021D01*
X144584014Y-79130022D01*
X144622224Y-79140260D01*
X144660435Y-79150499D01*
X144660436Y-79150500D01*
X144660438Y-79150500D01*
X144739562Y-79150500D01*
X146547389Y-79150500D01*
X146599715Y-79172174D01*
X146658036Y-79230495D01*
X146766464Y-79293095D01*
X146766463Y-79293095D01*
X146836286Y-79311804D01*
X146887396Y-79325499D01*
X146887397Y-79325500D01*
X146887399Y-79325500D01*
X147012603Y-79325500D01*
X147012603Y-79325499D01*
X147133536Y-79293095D01*
X147241964Y-79230495D01*
X147330495Y-79141964D01*
X147393095Y-79033536D01*
X147425499Y-78912603D01*
X147425500Y-78912603D01*
X147425500Y-78787397D01*
X147425499Y-78787396D01*
X147393095Y-78666464D01*
X147330495Y-78558036D01*
X147241963Y-78469504D01*
X147133534Y-78406904D01*
X147133536Y-78406904D01*
X147012603Y-78374500D01*
X147012601Y-78374500D01*
X146887399Y-78374500D01*
X146887397Y-78374500D01*
X146766464Y-78406904D01*
X146658036Y-78469504D01*
X146599715Y-78527826D01*
X146547389Y-78549500D01*
X145204315Y-78549500D01*
X145151989Y-78527826D01*
X145130315Y-78475500D01*
X145140228Y-78438502D01*
X145140410Y-78438185D01*
X145143095Y-78433536D01*
X145175499Y-78312603D01*
X145175500Y-78312603D01*
X145175500Y-78187397D01*
X145175499Y-78187396D01*
X145143095Y-78066464D01*
X145080495Y-77958036D01*
X145049285Y-77926826D01*
X145027611Y-77874500D01*
X145049285Y-77822174D01*
X145101611Y-77800500D01*
X146547389Y-77800500D01*
X146599715Y-77822174D01*
X146658036Y-77880495D01*
X146766464Y-77943095D01*
X146766463Y-77943095D01*
X146836286Y-77961804D01*
X146887396Y-77975499D01*
X146887397Y-77975500D01*
X146887399Y-77975500D01*
X147012603Y-77975500D01*
X147012603Y-77975499D01*
X147133536Y-77943095D01*
X147241964Y-77880495D01*
X147330495Y-77791964D01*
X147393095Y-77683536D01*
X147425499Y-77562603D01*
X147425500Y-77562603D01*
X147425500Y-77437397D01*
X147425499Y-77437396D01*
X147393095Y-77316464D01*
X147330495Y-77208036D01*
X147241963Y-77119504D01*
X147133534Y-77056904D01*
X147133535Y-77056904D01*
X147122797Y-77054027D01*
X147012603Y-77024500D01*
X147012601Y-77024500D01*
X146887399Y-77024500D01*
X146887397Y-77024500D01*
X146766464Y-77056904D01*
X146658036Y-77119504D01*
X146599715Y-77177826D01*
X146547389Y-77199500D01*
X145101611Y-77199500D01*
X145049285Y-77177826D01*
X145027611Y-77125500D01*
X145049285Y-77073174D01*
X145050692Y-77071767D01*
X145080495Y-77041964D01*
X145111999Y-76987396D01*
X192824500Y-76987396D01*
X192824500Y-77112603D01*
X192856904Y-77233535D01*
X192919504Y-77341963D01*
X192977826Y-77400285D01*
X192999500Y-77452611D01*
X192999500Y-90632746D01*
X192977827Y-90685071D01*
X192939508Y-90723390D01*
X192880201Y-90826112D01*
X192880199Y-90826117D01*
X192849500Y-90940688D01*
X192849500Y-91059311D01*
X192880199Y-91173882D01*
X192880201Y-91173887D01*
X192939508Y-91276609D01*
X192939509Y-91276610D01*
X192939511Y-91276613D01*
X193023387Y-91360489D01*
X193023389Y-91360490D01*
X193023390Y-91360491D01*
X193126112Y-91419798D01*
X193126114Y-91419799D01*
X193126115Y-91419799D01*
X193126117Y-91419800D01*
X193183402Y-91435149D01*
X193240688Y-91450499D01*
X193240689Y-91450500D01*
X193240691Y-91450500D01*
X193359311Y-91450500D01*
X193359311Y-91450499D01*
X193473886Y-91419799D01*
X193576613Y-91360489D01*
X193660489Y-91276613D01*
X193719799Y-91173886D01*
X193750499Y-91059311D01*
X193750500Y-91059311D01*
X193750500Y-90940689D01*
X193750499Y-90940688D01*
X193719800Y-90826117D01*
X193719798Y-90826112D01*
X193660491Y-90723390D01*
X193660490Y-90723389D01*
X193660489Y-90723387D01*
X193622173Y-90685071D01*
X193600500Y-90632746D01*
X193600500Y-87486008D01*
X203479500Y-87486008D01*
X203479500Y-88723991D01*
X203506418Y-88859322D01*
X203506421Y-88859332D01*
X203559223Y-88986808D01*
X203611420Y-89064927D01*
X203635886Y-89101542D01*
X203733458Y-89199114D01*
X203848189Y-89275775D01*
X203975672Y-89328580D01*
X204111007Y-89355500D01*
X204111009Y-89355500D01*
X204248991Y-89355500D01*
X204248993Y-89355500D01*
X204384328Y-89328580D01*
X204511811Y-89275775D01*
X204626542Y-89199114D01*
X204724114Y-89101542D01*
X204800775Y-88986811D01*
X204853580Y-88859328D01*
X204880500Y-88723993D01*
X204880500Y-87529231D01*
X205034500Y-87529231D01*
X205034500Y-87680768D01*
X205073717Y-87827130D01*
X205073718Y-87827133D01*
X205073719Y-87827135D01*
X205149485Y-87958365D01*
X205256635Y-88065515D01*
X205387865Y-88141281D01*
X205534231Y-88180499D01*
X205534232Y-88180500D01*
X205534234Y-88180500D01*
X205685768Y-88180500D01*
X205685768Y-88180499D01*
X205832135Y-88141281D01*
X205963365Y-88065515D01*
X206070515Y-87958365D01*
X206146281Y-87827135D01*
X206185499Y-87680768D01*
X206185500Y-87680768D01*
X206185500Y-87529232D01*
X206185499Y-87529231D01*
X206178098Y-87501611D01*
X206146281Y-87382865D01*
X206070515Y-87251635D01*
X205963365Y-87144485D01*
X205945224Y-87134011D01*
X205832139Y-87068721D01*
X205832130Y-87068717D01*
X205685768Y-87029500D01*
X205685766Y-87029500D01*
X205534234Y-87029500D01*
X205534232Y-87029500D01*
X205387869Y-87068717D01*
X205387860Y-87068721D01*
X205256637Y-87144483D01*
X205149483Y-87251637D01*
X205073721Y-87382860D01*
X205073717Y-87382869D01*
X205034500Y-87529231D01*
X204880500Y-87529231D01*
X204880500Y-87486007D01*
X204853580Y-87350672D01*
X204828268Y-87289564D01*
X204800776Y-87223191D01*
X204772247Y-87180495D01*
X204724114Y-87108458D01*
X204626542Y-87010886D01*
X204585608Y-86983535D01*
X204511808Y-86934223D01*
X204384332Y-86881421D01*
X204384322Y-86881418D01*
X204289719Y-86862601D01*
X204248993Y-86854500D01*
X204111007Y-86854500D01*
X204072642Y-86862131D01*
X203975677Y-86881418D01*
X203975667Y-86881421D01*
X203848191Y-86934223D01*
X203733461Y-87010883D01*
X203635883Y-87108461D01*
X203559223Y-87223191D01*
X203506421Y-87350667D01*
X203506418Y-87350677D01*
X203483945Y-87463656D01*
X203480597Y-87480495D01*
X203479500Y-87486008D01*
X193600500Y-87486008D01*
X193600500Y-86587396D01*
X206324500Y-86587396D01*
X206324500Y-86712603D01*
X206356904Y-86833535D01*
X206419504Y-86941963D01*
X206477826Y-87000285D01*
X206499500Y-87052611D01*
X206499500Y-88382746D01*
X206477827Y-88435071D01*
X206439508Y-88473390D01*
X206380201Y-88576112D01*
X206380199Y-88576117D01*
X206349500Y-88690688D01*
X206349500Y-88809311D01*
X206380199Y-88923882D01*
X206380201Y-88923887D01*
X206439508Y-89026609D01*
X206439509Y-89026610D01*
X206439511Y-89026613D01*
X206523387Y-89110489D01*
X206523389Y-89110490D01*
X206523390Y-89110491D01*
X206535102Y-89117253D01*
X206626114Y-89169799D01*
X206626115Y-89169799D01*
X206626117Y-89169800D01*
X206683402Y-89185149D01*
X206740688Y-89200499D01*
X206740689Y-89200500D01*
X206740691Y-89200500D01*
X206859311Y-89200500D01*
X206859311Y-89200499D01*
X206973886Y-89169799D01*
X207076613Y-89110489D01*
X207160489Y-89026613D01*
X207219799Y-88923886D01*
X207250499Y-88809311D01*
X207250500Y-88809311D01*
X207250500Y-88690689D01*
X207250499Y-88690688D01*
X207219800Y-88576117D01*
X207219798Y-88576112D01*
X207160491Y-88473390D01*
X207160490Y-88473389D01*
X207160489Y-88473387D01*
X207122173Y-88435071D01*
X207100500Y-88382746D01*
X207100500Y-87529231D01*
X210814500Y-87529231D01*
X210814500Y-87680768D01*
X210853717Y-87827130D01*
X210853718Y-87827133D01*
X210853719Y-87827135D01*
X210929485Y-87958365D01*
X211036635Y-88065515D01*
X211167865Y-88141281D01*
X211314231Y-88180499D01*
X211314232Y-88180500D01*
X211314234Y-88180500D01*
X211465768Y-88180500D01*
X211465768Y-88180499D01*
X211612135Y-88141281D01*
X211743365Y-88065515D01*
X211850515Y-87958365D01*
X211926281Y-87827135D01*
X211965499Y-87680768D01*
X211965500Y-87680768D01*
X211965500Y-87529232D01*
X211965499Y-87529231D01*
X211958098Y-87501611D01*
X211926281Y-87382865D01*
X211850515Y-87251635D01*
X211743365Y-87144485D01*
X211725224Y-87134011D01*
X211612139Y-87068721D01*
X211612130Y-87068717D01*
X211465768Y-87029500D01*
X211465766Y-87029500D01*
X211314234Y-87029500D01*
X211314232Y-87029500D01*
X211167869Y-87068717D01*
X211167860Y-87068721D01*
X211036637Y-87144483D01*
X210929483Y-87251637D01*
X210853721Y-87382860D01*
X210853717Y-87382869D01*
X210814500Y-87529231D01*
X207100500Y-87529231D01*
X207100500Y-87052611D01*
X207122174Y-87000285D01*
X207146960Y-86975499D01*
X207180495Y-86941964D01*
X207243095Y-86833536D01*
X207275499Y-86712603D01*
X207275500Y-86712603D01*
X207275500Y-86587397D01*
X207275499Y-86587396D01*
X207246005Y-86477326D01*
X207243095Y-86466464D01*
X207180495Y-86358036D01*
X207091964Y-86269505D01*
X207091963Y-86269504D01*
X206983534Y-86206904D01*
X206983536Y-86206904D01*
X206862603Y-86174500D01*
X206862601Y-86174500D01*
X206737399Y-86174500D01*
X206737397Y-86174500D01*
X206616464Y-86206904D01*
X206508036Y-86269504D01*
X206419504Y-86358036D01*
X206356904Y-86466464D01*
X206324500Y-86587396D01*
X193600500Y-86587396D01*
X193600500Y-83456007D01*
X203479500Y-83456007D01*
X203479500Y-84393993D01*
X203483417Y-84413685D01*
X203506418Y-84529322D01*
X203506421Y-84529332D01*
X203559223Y-84656808D01*
X203610810Y-84734014D01*
X203635886Y-84771542D01*
X203733458Y-84869114D01*
X203848189Y-84945775D01*
X203848190Y-84945775D01*
X203848191Y-84945776D01*
X203895783Y-84965489D01*
X203975672Y-84998580D01*
X204111007Y-85025500D01*
X204111009Y-85025500D01*
X204248991Y-85025500D01*
X204248993Y-85025500D01*
X204384328Y-84998580D01*
X204511811Y-84945775D01*
X204626542Y-84869114D01*
X204724114Y-84771542D01*
X204800775Y-84656811D01*
X204853580Y-84529328D01*
X204880500Y-84393993D01*
X204880500Y-83456007D01*
X212119500Y-83456007D01*
X212119500Y-84393993D01*
X212123417Y-84413685D01*
X212146418Y-84529322D01*
X212146421Y-84529332D01*
X212199223Y-84656808D01*
X212250810Y-84734014D01*
X212275886Y-84771542D01*
X212373458Y-84869114D01*
X212488189Y-84945775D01*
X212488190Y-84945775D01*
X212488191Y-84945776D01*
X212535783Y-84965489D01*
X212615672Y-84998580D01*
X212751007Y-85025500D01*
X212751009Y-85025500D01*
X212888991Y-85025500D01*
X212888993Y-85025500D01*
X213024328Y-84998580D01*
X213151811Y-84945775D01*
X213266542Y-84869114D01*
X213364114Y-84771542D01*
X213440775Y-84656811D01*
X213493580Y-84529328D01*
X213520500Y-84393993D01*
X213520500Y-83456007D01*
X213493580Y-83320672D01*
X213476938Y-83280495D01*
X213440776Y-83193191D01*
X213439955Y-83191963D01*
X213364114Y-83078458D01*
X213266542Y-82980886D01*
X213220744Y-82950285D01*
X213151808Y-82904223D01*
X213024332Y-82851421D01*
X213024322Y-82851418D01*
X212933694Y-82833391D01*
X212888993Y-82824500D01*
X212751007Y-82824500D01*
X212712642Y-82832131D01*
X212615677Y-82851418D01*
X212615667Y-82851421D01*
X212488191Y-82904223D01*
X212373461Y-82980883D01*
X212275883Y-83078461D01*
X212199223Y-83193191D01*
X212146421Y-83320667D01*
X212146418Y-83320677D01*
X212130063Y-83402903D01*
X212119500Y-83456007D01*
X204880500Y-83456007D01*
X204853580Y-83320672D01*
X204836938Y-83280495D01*
X204800776Y-83193191D01*
X204799955Y-83191963D01*
X204724114Y-83078458D01*
X204626542Y-82980886D01*
X204580744Y-82950285D01*
X204511808Y-82904223D01*
X204384332Y-82851421D01*
X204384322Y-82851418D01*
X204293694Y-82833391D01*
X204248993Y-82824500D01*
X204111007Y-82824500D01*
X204072642Y-82832131D01*
X203975677Y-82851418D01*
X203975667Y-82851421D01*
X203848191Y-82904223D01*
X203733461Y-82980883D01*
X203635883Y-83078461D01*
X203559223Y-83193191D01*
X203506421Y-83320667D01*
X203506418Y-83320677D01*
X203490063Y-83402903D01*
X203479500Y-83456007D01*
X193600500Y-83456007D01*
X193600500Y-77452611D01*
X193622174Y-77400285D01*
X193638450Y-77384009D01*
X193680495Y-77341964D01*
X193743095Y-77233536D01*
X193775499Y-77112603D01*
X193775500Y-77112603D01*
X193775500Y-76987397D01*
X193775499Y-76987396D01*
X193743095Y-76866464D01*
X193680495Y-76758036D01*
X193591963Y-76669504D01*
X193483534Y-76606904D01*
X193483536Y-76606904D01*
X193362603Y-76574500D01*
X193362601Y-76574500D01*
X193237399Y-76574500D01*
X193237397Y-76574500D01*
X193116464Y-76606904D01*
X193008036Y-76669504D01*
X192919504Y-76758036D01*
X192856904Y-76866464D01*
X192824500Y-76987396D01*
X145111999Y-76987396D01*
X145143095Y-76933536D01*
X145175499Y-76812603D01*
X145175500Y-76812603D01*
X145175500Y-76687398D01*
X145175073Y-76684153D01*
X145175500Y-76682560D01*
X145175500Y-76682549D01*
X145175503Y-76682549D01*
X145189737Y-76629447D01*
X145238788Y-76601132D01*
X145248441Y-76600500D01*
X146547389Y-76600500D01*
X146599715Y-76622174D01*
X146658036Y-76680495D01*
X146766464Y-76743095D01*
X146766463Y-76743095D01*
X146836286Y-76761804D01*
X146887396Y-76775499D01*
X146887397Y-76775500D01*
X146887399Y-76775500D01*
X147012603Y-76775500D01*
X147012603Y-76775499D01*
X147133536Y-76743095D01*
X147241964Y-76680495D01*
X147330495Y-76591964D01*
X147393095Y-76483536D01*
X147425499Y-76362603D01*
X147425500Y-76362603D01*
X147425500Y-76237397D01*
X147425499Y-76237396D01*
X147393095Y-76116464D01*
X147330495Y-76008036D01*
X147241963Y-75919504D01*
X147133534Y-75856904D01*
X147133536Y-75856904D01*
X147012603Y-75824500D01*
X147012601Y-75824500D01*
X146887399Y-75824500D01*
X146887397Y-75824500D01*
X146766464Y-75856904D01*
X146658036Y-75919504D01*
X146599715Y-75977826D01*
X146547389Y-75999500D01*
X144660436Y-75999500D01*
X144584014Y-76019977D01*
X144584009Y-76019979D01*
X144515488Y-76059540D01*
X144459540Y-76115488D01*
X144419979Y-76184009D01*
X144419977Y-76184014D01*
X144399500Y-76260435D01*
X144399500Y-76347389D01*
X144377826Y-76399715D01*
X144319504Y-76458036D01*
X144256904Y-76566464D01*
X144224500Y-76687396D01*
X144224500Y-76812603D01*
X144256904Y-76933535D01*
X144319504Y-77041963D01*
X144350715Y-77073174D01*
X144372389Y-77125500D01*
X144350715Y-77177826D01*
X144298389Y-77199500D01*
X143910436Y-77199500D01*
X143834014Y-77219977D01*
X143834009Y-77219979D01*
X143765488Y-77259540D01*
X143709540Y-77315488D01*
X143669979Y-77384009D01*
X143669977Y-77384014D01*
X143649500Y-77460435D01*
X143649500Y-82497389D01*
X143627826Y-82549715D01*
X143569504Y-82608036D01*
X143506904Y-82716464D01*
X143474500Y-82837396D01*
X90850500Y-82837396D01*
X90850500Y-80152611D01*
X90872174Y-80100285D01*
X90894848Y-80077611D01*
X90930495Y-80041964D01*
X90993095Y-79933536D01*
X91025499Y-79812603D01*
X91025500Y-79812603D01*
X91025500Y-79687397D01*
X91025499Y-79687396D01*
X90993095Y-79566464D01*
X90930495Y-79458036D01*
X90841963Y-79369504D01*
X90733534Y-79306904D01*
X90733536Y-79306904D01*
X90612603Y-79274500D01*
X90612601Y-79274500D01*
X90487399Y-79274500D01*
X90487397Y-79274500D01*
X90366464Y-79306904D01*
X90258036Y-79369504D01*
X90226826Y-79400715D01*
X90174500Y-79422389D01*
X90122174Y-79400715D01*
X90100500Y-79348389D01*
X90100500Y-79252611D01*
X90122174Y-79200285D01*
X90150285Y-79172174D01*
X90180495Y-79141964D01*
X90243095Y-79033536D01*
X90275499Y-78912603D01*
X90275500Y-78912603D01*
X90275500Y-78787397D01*
X90275499Y-78787396D01*
X90243095Y-78666464D01*
X90180495Y-78558036D01*
X90091963Y-78469504D01*
X89983534Y-78406904D01*
X89983536Y-78406904D01*
X89862603Y-78374500D01*
X89862601Y-78374500D01*
X89737399Y-78374500D01*
X89737397Y-78374500D01*
X89616464Y-78406904D01*
X89508036Y-78469504D01*
X89419504Y-78558036D01*
X89356904Y-78666464D01*
X89324500Y-78787396D01*
X77550500Y-78787396D01*
X77550500Y-77130252D01*
X77538867Y-77071769D01*
X77494552Y-77005448D01*
X77467536Y-76987396D01*
X77428232Y-76961133D01*
X77428233Y-76961133D01*
X77398989Y-76955316D01*
X77369748Y-76949500D01*
X77369746Y-76949500D01*
X77022772Y-76949500D01*
X76970446Y-76927826D01*
X76948772Y-76875500D01*
X76950264Y-76864172D01*
X76949867Y-76864120D01*
X76950500Y-76859311D01*
X76950500Y-76740689D01*
X76950499Y-76740688D01*
X76919800Y-76626117D01*
X76919798Y-76626112D01*
X76867430Y-76535409D01*
X76860037Y-76479257D01*
X76894516Y-76434323D01*
X76903186Y-76430047D01*
X76997598Y-76390941D01*
X77169655Y-76275977D01*
X77315977Y-76129655D01*
X77430941Y-75957598D01*
X77510130Y-75766420D01*
X77550500Y-75563465D01*
X77550500Y-75356535D01*
X77510130Y-75153580D01*
X77430941Y-74962402D01*
X77315977Y-74790345D01*
X77169655Y-74644023D01*
X77018393Y-74542954D01*
X76997598Y-74529059D01*
X76806420Y-74449870D01*
X76806413Y-74449868D01*
X76653516Y-74419455D01*
X76603465Y-74409500D01*
X76396535Y-74409500D01*
X76356385Y-74417486D01*
X76193586Y-74449868D01*
X76193579Y-74449870D01*
X76002401Y-74529059D01*
X75830345Y-74644022D01*
X75830344Y-74644024D01*
X75684024Y-74790344D01*
X75684022Y-74790345D01*
X75569059Y-74962401D01*
X75489870Y-75153579D01*
X75489868Y-75153586D01*
X75449500Y-75356535D01*
X75449500Y-75563464D01*
X75489868Y-75766413D01*
X75489870Y-75766420D01*
X75569059Y-75957598D01*
X75674557Y-76115489D01*
X75684023Y-76129655D01*
X75830345Y-76275977D01*
X76002402Y-76390941D01*
X76096802Y-76430043D01*
X76136850Y-76470092D01*
X76136850Y-76526729D01*
X76132569Y-76535410D01*
X76080201Y-76626112D01*
X76080199Y-76626117D01*
X76049500Y-76740688D01*
X76049500Y-76859311D01*
X76050133Y-76864120D01*
X76047636Y-76864448D01*
X76041320Y-76912489D01*
X75996393Y-76946975D01*
X75977228Y-76949500D01*
X75630252Y-76949500D01*
X75601010Y-76955316D01*
X75571767Y-76961133D01*
X75505449Y-77005447D01*
X75505447Y-77005449D01*
X75461133Y-77071767D01*
X75449500Y-77130253D01*
X75449500Y-78869746D01*
X75461133Y-78928232D01*
X75486363Y-78965990D01*
X75505448Y-78994552D01*
X75525628Y-79008036D01*
X75571767Y-79038866D01*
X75571768Y-79038866D01*
X75571769Y-79038867D01*
X75630252Y-79050500D01*
X75925500Y-79050500D01*
X75977826Y-79072174D01*
X75999500Y-79124500D01*
X75999500Y-86875500D01*
X75977826Y-86927826D01*
X75925500Y-86949500D01*
X75360436Y-86949500D01*
X75284014Y-86969977D01*
X75284009Y-86969979D01*
X75215488Y-87009540D01*
X75159540Y-87065488D01*
X75119979Y-87134009D01*
X75119977Y-87134014D01*
X75099500Y-87210435D01*
X75099500Y-88344412D01*
X75098112Y-88344412D01*
X75084802Y-88394050D01*
X75035748Y-88422360D01*
X74981043Y-88407691D01*
X74973776Y-88401317D01*
X74972174Y-88399715D01*
X74950500Y-88347389D01*
X74950500Y-75802611D01*
X74972174Y-75750285D01*
X75030495Y-75691964D01*
X75093095Y-75583536D01*
X75125499Y-75462603D01*
X75125500Y-75462603D01*
X75125500Y-75337397D01*
X75125499Y-75337396D01*
X75093095Y-75216464D01*
X75030495Y-75108036D01*
X74941963Y-75019504D01*
X74833534Y-74956904D01*
X74833536Y-74956904D01*
X74712603Y-74924500D01*
X74712601Y-74924500D01*
X74587399Y-74924500D01*
X74587397Y-74924500D01*
X74466464Y-74956904D01*
X74358036Y-75019504D01*
X74269504Y-75108036D01*
X74206904Y-75216464D01*
X74174500Y-75337396D01*
X62000500Y-75337396D01*
X62000500Y-75018818D01*
X62000658Y-75013978D01*
X62022632Y-74678723D01*
X62023896Y-74669127D01*
X62028889Y-74644024D01*
X62085762Y-74358104D01*
X62088258Y-74348785D01*
X62190199Y-74048475D01*
X62193895Y-74039553D01*
X62334161Y-73755121D01*
X62338982Y-73746769D01*
X62515178Y-73483075D01*
X62521052Y-73475420D01*
X62730152Y-73236987D01*
X62736987Y-73230152D01*
X62975420Y-73021052D01*
X62983075Y-73015178D01*
X63246769Y-72838982D01*
X63255121Y-72834161D01*
X63539549Y-72693897D01*
X63548475Y-72690200D01*
X63848774Y-72588262D01*
X63858112Y-72585760D01*
X64169129Y-72523895D01*
X64178721Y-72522632D01*
X64513978Y-72500657D01*
X64518818Y-72500500D01*
X213481182Y-72500500D01*
X213486022Y-72500658D01*
G37*
%TD.AperFunction*%
%TD*%
M02*
