%TF.GenerationSoftware,KiCad,Pcbnew,10.0.5*%
%TF.CreationDate,2026-08-03T21:37:27-04:00*%
%TF.ProjectId,wazza,77617a7a-612e-46b6-9963-61645f706362,rev?*%
%TF.SameCoordinates,Original*%
%TF.FileFunction,Soldermask,Top*%
%TF.FilePolarity,Negative*%
%FSLAX46Y46*%
G04 Gerber Fmt 4.6, Leading zero omitted, Abs format (unit mm)*
G04 Created by KiCad (PCBNEW 10.0.5) date 2026-08-03 21:37:27*
%MOMM*%
%LPD*%
G01*
G04 APERTURE LIST*
G04 Aperture macros list*
%AMRoundRect*
0 Rectangle with rounded corners*
0 $1 Rounding radius*
0 $2 $3 $4 $5 $6 $7 $8 $9 X,Y pos of 4 corners*
0 Add a 4 corners polygon primitive as box body*
4,1,4,$2,$3,$4,$5,$6,$7,$8,$9,$2,$3,0*
0 Add four circle primitives for the rounded corners*
1,1,$1+$1,$2,$3*
1,1,$1+$1,$4,$5*
1,1,$1+$1,$6,$7*
1,1,$1+$1,$8,$9*
0 Add four rect primitives between the rounded corners*
20,1,$1+$1,$2,$3,$4,$5,0*
20,1,$1+$1,$4,$5,$6,$7,0*
20,1,$1+$1,$6,$7,$8,$9,0*
20,1,$1+$1,$8,$9,$2,$3,0*%
G04 Aperture macros list end*
%ADD10RoundRect,0.250000X0.250000X0.475000X-0.250000X0.475000X-0.250000X-0.475000X0.250000X-0.475000X0*%
%ADD11RoundRect,0.250000X0.262500X0.450000X-0.262500X0.450000X-0.262500X-0.450000X0.262500X-0.450000X0*%
%ADD12RoundRect,0.250000X-0.450000X0.262500X-0.450000X-0.262500X0.450000X-0.262500X0.450000X0.262500X0*%
%ADD13R,1.550000X1.300000*%
%ADD14R,1.700000X1.700000*%
%ADD15C,1.700000*%
%ADD16R,1.000000X1.000000*%
%ADD17C,1.000000*%
%ADD18C,0.650000*%
%ADD19RoundRect,0.150000X0.150000X0.425000X-0.150000X0.425000X-0.150000X-0.425000X0.150000X-0.425000X0*%
%ADD20RoundRect,0.075000X0.075000X0.500000X-0.075000X0.500000X-0.075000X-0.500000X0.075000X-0.500000X0*%
%ADD21O,1.000000X2.100000*%
%ADD22O,1.000000X1.800000*%
%ADD23RoundRect,0.062500X0.350000X0.062500X-0.350000X0.062500X-0.350000X-0.062500X0.350000X-0.062500X0*%
%ADD24RoundRect,0.062500X0.062500X0.350000X-0.062500X0.350000X-0.062500X-0.350000X0.062500X-0.350000X0*%
%ADD25RoundRect,0.150000X0.512500X0.150000X-0.512500X0.150000X-0.512500X-0.150000X0.512500X-0.150000X0*%
%ADD26R,1.500000X0.900000*%
%ADD27R,0.900000X1.500000*%
%ADD28C,0.600000*%
%ADD29R,3.900000X3.900000*%
%ADD30RoundRect,0.090000X0.660000X0.360000X-0.660000X0.360000X-0.660000X-0.360000X0.660000X-0.360000X0*%
%ADD31R,0.230000X0.350000*%
%ADD32R,0.350000X0.230000*%
G04 APERTURE END LIST*
D10*
%TO.C,C1*%
X182450000Y-85000000D03*
X180550000Y-85000000D03*
%TD*%
D11*
%TO.C,R10*%
X87412500Y-91000000D03*
X85587500Y-91000000D03*
%TD*%
D12*
%TO.C,R3*%
X186500000Y-77087500D03*
X186500000Y-78912500D03*
%TD*%
D11*
%TO.C,R14*%
X129412500Y-89000000D03*
X127587500Y-89000000D03*
%TD*%
D13*
%TO.C,SW2*%
X108475000Y-93250000D03*
X100525000Y-93250000D03*
X108475000Y-88750000D03*
X100525000Y-88750000D03*
%TD*%
D14*
%TO.C,U14*%
X116500000Y-85000000D03*
D15*
X113960000Y-85000000D03*
X111420000Y-85000000D03*
X108880000Y-85000000D03*
%TD*%
D14*
%TO.C,J2*%
X98500000Y-95500000D03*
D15*
X98500000Y-92960000D03*
X98500000Y-90420000D03*
%TD*%
D13*
%TO.C,SW3*%
X108475000Y-81250000D03*
X100525000Y-81250000D03*
X108475000Y-76750000D03*
X100525000Y-76750000D03*
%TD*%
D16*
%TO.C,MK2*%
X68500000Y-85000000D03*
D17*
X67230000Y-85000000D03*
X65960000Y-85000000D03*
X64690000Y-85000000D03*
X63420000Y-85000000D03*
X62150000Y-85000000D03*
%TD*%
D18*
%TO.C,J1*%
X211390000Y-87605000D03*
X205610000Y-87605000D03*
D19*
X211700000Y-88680000D03*
X210900000Y-88680000D03*
D20*
X209750000Y-88680000D03*
X208750000Y-88680000D03*
X208250000Y-88680000D03*
X207250000Y-88680000D03*
D19*
X206100000Y-88680000D03*
X205300000Y-88680000D03*
X205300000Y-88680000D03*
X206100000Y-88680000D03*
D20*
X206750000Y-88680000D03*
X207750000Y-88680000D03*
X209250000Y-88680000D03*
X210250000Y-88680000D03*
D19*
X210900000Y-88680000D03*
X211700000Y-88680000D03*
D21*
X212820000Y-88105000D03*
D22*
X212820000Y-83925000D03*
D21*
X204180000Y-88105000D03*
D22*
X204180000Y-83925000D03*
%TD*%
D23*
%TO.C,U12*%
X77962500Y-89750000D03*
X77962500Y-89250000D03*
X77962500Y-88750000D03*
X77962500Y-88250000D03*
D24*
X77250000Y-87537500D03*
X76750000Y-87537500D03*
X76250000Y-87537500D03*
X75750000Y-87537500D03*
D23*
X75037500Y-88250000D03*
X75037500Y-88750000D03*
X75037500Y-89250000D03*
X75037500Y-89750000D03*
D24*
X75750000Y-90462500D03*
X76250000Y-90462500D03*
X76750000Y-90462500D03*
X77250000Y-90462500D03*
D14*
X76500000Y-89000000D03*
%TD*%
D12*
%TO.C,R2*%
X184000000Y-91087500D03*
X184000000Y-92912500D03*
%TD*%
D25*
%TO.C,U2*%
X195637500Y-80950000D03*
X195637500Y-80000000D03*
X195637500Y-79050000D03*
X193362500Y-79050000D03*
X193362500Y-80950000D03*
%TD*%
D26*
%TO.C,U9*%
X163250000Y-90260000D03*
X163250000Y-88990000D03*
X163250000Y-87720000D03*
X163250000Y-86450000D03*
X163250000Y-85180000D03*
X163250000Y-83910000D03*
X163250000Y-82640000D03*
X163250000Y-81370000D03*
X163250000Y-80100000D03*
X163250000Y-78830000D03*
X163250000Y-77560000D03*
X163250000Y-76290000D03*
X163250000Y-75020000D03*
X163250000Y-73750000D03*
D27*
X161485000Y-72500000D03*
X160215000Y-72500000D03*
X158945000Y-72500000D03*
X157675000Y-72500000D03*
X156405000Y-72500000D03*
X155135000Y-72500000D03*
X153865000Y-72500000D03*
X152595000Y-72500000D03*
X151325000Y-72500000D03*
X150055000Y-72500000D03*
X148785000Y-72500000D03*
X147515000Y-72500000D03*
D26*
X145750000Y-73750000D03*
X145750000Y-75020000D03*
X145750000Y-76290000D03*
X145750000Y-77560000D03*
X145750000Y-78830000D03*
X145750000Y-80100000D03*
X145750000Y-81370000D03*
X145750000Y-82640000D03*
X145750000Y-83910000D03*
X145750000Y-85180000D03*
X145750000Y-86450000D03*
X145750000Y-87720000D03*
X145750000Y-88990000D03*
X145750000Y-90260000D03*
D28*
X157400000Y-83240000D03*
X157400000Y-81840000D03*
X156700000Y-83940000D03*
X156700000Y-82540000D03*
X156700000Y-81140000D03*
X156000000Y-83240000D03*
D29*
X156000000Y-82540000D03*
D28*
X156000000Y-81840000D03*
X155300000Y-83940000D03*
X155300000Y-82540000D03*
X155300000Y-81140000D03*
X154600000Y-83240000D03*
X154600000Y-81840000D03*
%TD*%
D11*
%TO.C,R13*%
X87412500Y-79000000D03*
X85587500Y-79000000D03*
%TD*%
D25*
%TO.C,U1*%
X195637500Y-90950000D03*
X195637500Y-90000000D03*
X195637500Y-89050000D03*
X193362500Y-89050000D03*
X193362500Y-90950000D03*
%TD*%
D11*
%TO.C,R15*%
X129412500Y-81000000D03*
X127587500Y-81000000D03*
%TD*%
D14*
%TO.C,LS1*%
X76500000Y-78000000D03*
D15*
X76500000Y-75460000D03*
%TD*%
D10*
%TO.C,C3*%
X135450000Y-91000000D03*
X133550000Y-91000000D03*
%TD*%
%TO.C,C4*%
X135450000Y-79000000D03*
X133550000Y-79000000D03*
%TD*%
D30*
%TO.C,D1*%
X122450000Y-96650000D03*
X122450000Y-93350000D03*
X117550000Y-93350000D03*
X117550000Y-96650000D03*
%TD*%
D14*
%TO.C,BT1*%
X176500000Y-85000000D03*
D15*
X173960000Y-85000000D03*
%TD*%
D12*
%TO.C,R1*%
X186500000Y-91087500D03*
X186500000Y-92912500D03*
%TD*%
D31*
%TO.C,U13*%
X96005000Y-86225000D03*
D32*
X95975000Y-85645000D03*
X95975000Y-85215000D03*
X95975000Y-84785000D03*
X95975000Y-84355000D03*
D31*
X96005000Y-83775000D03*
X95575000Y-83775000D03*
X95145000Y-83775000D03*
X94715000Y-83775000D03*
X94285000Y-83775000D03*
X93855000Y-83775000D03*
X93425000Y-83775000D03*
X92995000Y-83775000D03*
D32*
X93025000Y-84355000D03*
X93025000Y-84785000D03*
X93025000Y-85215000D03*
X93025000Y-85645000D03*
D31*
X92995000Y-86225000D03*
X93425000Y-86225000D03*
X93855000Y-86225000D03*
X94285000Y-86225000D03*
X94715000Y-86225000D03*
X95145000Y-86225000D03*
X95575000Y-86225000D03*
%TD*%
M02*
