%TF.GenerationSoftware,KiCad,Pcbnew,10.0.5*%
%TF.CreationDate,2026-08-03T21:37:27-04:00*%
%TF.ProjectId,wazza,77617a7a-612e-46b6-9963-61645f706362,rev?*%
%TF.SameCoordinates,Original*%
%TF.FileFunction,Profile,NP*%
%FSLAX46Y46*%
G04 Gerber Fmt 4.6, Leading zero omitted, Abs format (unit mm)*
G04 Created by KiCad (PCBNEW 10.0.5) date 2026-08-03 21:37:27*
%MOMM*%
%LPD*%
G01*
G04 APERTURE LIST*
%TA.AperFunction,Profile*%
%ADD10C,0.100000*%
%TD*%
G04 APERTURE END LIST*
D10*
X61500000Y-75000000D02*
X61525666Y-74608422D01*
X61500000Y-95000000D02*
X61500000Y-75000000D01*
X61525666Y-74608422D02*
X61602223Y-74223543D01*
X61525666Y-95391579D02*
X61500000Y-95000000D01*
X61602223Y-74223543D02*
X61728362Y-73851950D01*
X61602223Y-95776458D02*
X61525666Y-95391579D01*
X61728362Y-73851950D02*
X61901924Y-73500000D01*
X61728362Y-96148051D02*
X61602223Y-95776458D01*
X61901924Y-73500000D02*
X62119940Y-73173716D01*
X61901924Y-96500000D02*
X61728362Y-96148051D01*
X62119940Y-73173716D02*
X62378680Y-72878680D01*
X62119940Y-96826285D02*
X61901924Y-96500000D01*
X62378680Y-72878680D02*
X62673716Y-72619940D01*
X62378680Y-97121321D02*
X62119940Y-96826285D01*
X62673716Y-72619940D02*
X63000000Y-72401924D01*
X62673716Y-97380061D02*
X62378680Y-97121321D01*
X63000000Y-72401924D02*
X63351950Y-72228362D01*
X63000000Y-97598077D02*
X62673716Y-97380061D01*
X63351950Y-72228362D02*
X63723543Y-72102223D01*
X63351950Y-97771639D02*
X63000000Y-97598077D01*
X63723543Y-72102223D02*
X64108422Y-72025666D01*
X63723543Y-97897778D02*
X63351950Y-97771639D01*
X64108422Y-72025666D02*
X64500000Y-72000000D01*
X64108422Y-97974335D02*
X63723543Y-97897778D01*
X64500000Y-72000000D02*
X213500000Y-72000000D01*
X64500000Y-98000000D02*
X64108422Y-97974335D01*
X213500000Y-72000000D02*
X213891579Y-72025666D01*
X213500000Y-98000000D02*
X64500000Y-98000000D01*
X213891579Y-72025666D02*
X214276458Y-72102223D01*
X213891579Y-97974335D02*
X213500001Y-98000000D01*
X214276458Y-72102223D02*
X214648051Y-72228362D01*
X214276458Y-97897778D02*
X213891579Y-97974335D01*
X214648051Y-72228362D02*
X215000000Y-72401924D01*
X214648051Y-97771639D02*
X214276458Y-97897778D01*
X215000000Y-72401924D02*
X215326285Y-72619940D01*
X215000001Y-97598077D02*
X214648051Y-97771639D01*
X215326285Y-72619940D02*
X215621321Y-72878680D01*
X215326285Y-97380061D02*
X215000001Y-97598077D01*
X215621321Y-72878680D02*
X215880061Y-73173716D01*
X215621321Y-97121321D02*
X215326285Y-97380061D01*
X215880061Y-73173716D02*
X216098077Y-73500000D01*
X215880061Y-96826285D02*
X215621321Y-97121321D01*
X216098077Y-73500000D02*
X216271639Y-73851950D01*
X216098077Y-96500001D02*
X215880061Y-96826285D01*
X216271639Y-73851950D02*
X216397778Y-74223543D01*
X216271639Y-96148051D02*
X216098077Y-96500001D01*
X216397778Y-74223543D02*
X216474335Y-74608422D01*
X216397778Y-95776458D02*
X216271639Y-96148051D01*
X216474335Y-74608422D02*
X216500000Y-75000000D01*
X216474335Y-95391579D02*
X216397778Y-95776458D01*
X216500000Y-75000000D02*
X216500000Y-95000000D01*
X216500000Y-95000000D02*
X216474335Y-95391579D01*
M02*
