M48
; DRILL file KiCad 10.0.5 date 2026-08-03T21:37:28
; FORMAT={-:-/ absolute / metric / decimal}
; #@! TF.CreationDate,2026-08-03T21:37:28-04:00
; #@! TF.GenerationSoftware,Kicad,Pcbnew,10.0.5
; #@! TF.FileFunction,Plated,1,2,PTH
FMAT,2
METRIC
; #@! TA.AperFunction,Plated,PTH,ComponentDrill
T1C0.200
; #@! TA.AperFunction,Plated,PTH,ViaDrill
T2C0.250
; #@! TA.AperFunction,Plated,PTH,ViaDrill
T3C0.300
; #@! TA.AperFunction,Plated,PTH,ComponentDrill
T4C0.600
; #@! TA.AperFunction,Plated,PTH,ComponentDrill
T5C0.650
; #@! TA.AperFunction,Plated,PTH,ComponentDrill
T6C1.000
%
G90
G05
T1
X154.6Y-81.84
X154.6Y-83.24
X155.3Y-81.14
X155.3Y-82.54
X155.3Y-83.94
X156.0Y-81.84
X156.0Y-83.24
X156.7Y-81.14
X156.7Y-82.54
X156.7Y-83.94
X157.4Y-81.84
X157.4Y-83.24
T2
X76.5Y-76.8
X77.2Y-90.4
X163.3Y-81.4
X193.3Y-91.0
X206.8Y-88.75
X209.8Y-88.75
T3
X62.2Y-79.3
X68.5Y-91.3
X74.65Y-75.4
X74.65Y-88.75
X77.95Y-86.05
X77.95Y-86.8
X86.05Y-82.9
X86.05Y-89.8
X89.8Y-78.85
X89.8Y-86.8
X90.55Y-79.75
X90.55Y-85.0
X100.6Y-90.1
X100.6Y-93.25
X111.4Y-87.1
X112.15Y-89.05
X143.95Y-82.9
X144.55Y-87.85
X144.7Y-76.75
X144.7Y-78.25
X144.7Y-80.5
X144.7Y-82.15
X146.95Y-76.3
X146.95Y-77.5
X146.95Y-78.85
X146.95Y-80.05
X146.95Y-85.15
X147.7Y-86.5
X161.05Y-82.6
X161.05Y-94.6
X161.8Y-95.5
X185.35Y-86.65
X185.35Y-91.15
X193.3Y-77.05
X206.8Y-86.65
X209.8Y-92.2
T5
X62.15Y-85.0
X63.42Y-85.0
X64.69Y-85.0
X65.96Y-85.0
X67.23Y-85.0
X68.5Y-85.0
T6
X76.5Y-75.46
X76.5Y-78.0
X98.5Y-90.42
X98.5Y-92.96
X98.5Y-95.5
X108.88Y-85.0
X111.42Y-85.0
X113.96Y-85.0
X116.5Y-85.0
X173.96Y-85.0
X176.5Y-85.0
T4
X204.18Y-84.325G85X204.18Y-83.525
G05
X204.18Y-88.655G85X204.18Y-87.555
G05
X212.82Y-84.325G85X212.82Y-83.525
G05
X212.82Y-88.655G85X212.82Y-87.555
G05
M30
